<svg version="1.1" xmlns="http://www.w3.org/2000/svg" viewBox="0 0 1092.7850720901508 474.5" width="1092.7850720901508" height="474.5">
  <!-- svg-source:excalidraw -->
  
  <defs>
    <style class="style-fonts">
      @font-face {
        font-family: "Virgil";
        src: url("https://excalidraw.com/Virgil.woff2");
      }
      @font-face {
        font-family: "Cascadia";
        src: url("https://excalidraw.com/Cascadia.woff2");
      }
    </style>
    
  </defs>
  <rect x="0" y="0" width="1092.7850720901508" height="474.5" fill="#ffffff"></rect><g stroke-linecap="round" transform="translate(219.78507209015083 77.5) rotate(0 132.5 137)"><path d="M32 0 M32 0 C103.43 -0.87, 177.26 -0.97, 233 0 M233 0 C256.3 -1.69, 263.02 9.88, 265 32 M265 32 C266.59 105.29, 265.11 182.18, 265 242 M265 242 C264.51 264.84, 254.56 275.38, 233 274 M233 274 C164.84 273.45, 97.67 274.85, 32 274 M32 274 C11.6 273.24, 1.17 264.24, 0 242 M0 242 C-1.75 172.7, -2.06 103.03, 0 32 M0 32 C0.98 10.6, 10.9 -1.14, 32 0" stroke="#e03131" stroke-width="1.5" fill="none" stroke-dasharray="8 9"></path></g><g stroke-linecap="round" transform="translate(239.28507209015083 262) rotate(0 89 26)"><path d="M3.46 3.01 C3.46 3.01, 3.46 3.01, 3.46 3.01 M3.46 3.01 C3.46 3.01, 3.46 3.01, 3.46 3.01 M1.89 10.92 C3.83 8.58, 5.9 7.23, 9.1 2.61 M1.89 10.92 C3.68 9.1, 5.17 7.48, 9.1 2.61 M1.63 17.31 C7.37 13.05, 11.64 6.52, 15.4 1.46 M1.63 17.31 C6.18 12.36, 10.58 7.48, 15.4 1.46 M1.36 23.71 C7.89 15.54, 14.51 11.96, 20.39 1.82 M1.36 23.71 C4.89 19.48, 10.23 14.84, 20.39 1.82 M1.76 29.35 C7.06 22.3, 12.87 17.71, 25.38 2.18 M1.76 29.35 C8.11 22.14, 14.28 16.21, 25.38 2.18 M1.5 35.75 C10.82 24.36, 19.96 17.34, 31.02 1.79 M1.5 35.75 C14.04 22.02, 24.35 9.94, 31.02 1.79 M0.58 42.9 C10.29 29.31, 22.22 15.92, 36.01 2.15 M0.58 42.9 C9.65 32.63, 19.31 20.68, 36.01 2.15 M2.94 46.28 C15.14 31.03, 30.37 16.62, 41.65 1.76 M2.94 46.28 C12.93 34.94, 23.64 23.5, 41.65 1.76 M4.65 50.42 C19.42 33.87, 33.93 20.71, 46.64 2.12 M4.65 50.42 C19.39 36.04, 31.74 20.26, 46.64 2.12 M8.32 52.29 C24.64 30.78, 44.6 12.7, 52.28 1.72 M8.32 52.29 C22.53 34.66, 37.29 18.44, 52.28 1.72 M13.97 51.89 C29.59 34.51, 41.33 18.83, 57.27 2.08 M13.97 51.89 C27.8 36.56, 42.59 20.2, 57.27 2.08 M18.95 52.25 C30.09 39.03, 40.98 25.55, 62.25 2.44 M18.95 52.25 C36.33 32.54, 53.09 13.67, 62.25 2.44 M23.94 52.61 C37.21 39.08, 52.03 21.44, 67.9 2.05 M23.94 52.61 C39.68 34.12, 57.07 15.98, 67.9 2.05 M29.58 52.22 C43.33 36.5, 55.23 19.56, 72.88 2.41 M29.58 52.22 C46.22 33.24, 62.88 14.71, 72.88 2.41 M34.57 52.58 C50.05 36.2, 62.67 22.25, 78.53 2.01 M34.57 52.58 C50.72 34.69, 68.05 15.54, 78.53 2.01 M40.21 52.18 C55.13 34.63, 72.15 15.93, 83.51 2.37 M40.21 52.18 C56.01 34.29, 73.17 14.67, 83.51 2.37 M45.2 52.54 C61.75 34.37, 74.31 16.85, 89.16 1.98 M45.2 52.54 C58.27 35.85, 72.81 21.44, 89.16 1.98 M50.84 52.15 C62.7 39.6, 73.92 23.48, 94.14 2.34 M50.84 52.15 C59.34 41.63, 69.99 31.09, 94.14 2.34 M55.83 52.51 C69.67 36.09, 85.82 21.35, 99.79 1.94 M55.83 52.51 C64.21 42.21, 73.47 32.81, 99.79 1.94 M61.47 52.11 C70.8 41.55, 82.23 28.33, 104.77 2.3 M61.47 52.11 C71.07 41.53, 80.74 30.18, 104.77 2.3 M66.46 52.47 C78.12 37.85, 89.87 22.19, 109.76 2.66 M66.46 52.47 C78.1 38.98, 90.94 24.7, 109.76 2.66 M71.45 52.83 C87.27 35.24, 104.14 16.09, 115.4 2.27 M71.45 52.83 C83.47 40.07, 95.26 25.98, 115.4 2.27 M77.09 52.44 C94.02 36.31, 105.35 17.59, 120.39 2.63 M77.09 52.44 C94.48 32.62, 112.47 12.38, 120.39 2.63 M82.08 52.8 C96.03 36.48, 107.37 23.47, 126.03 2.23 M82.08 52.8 C99.25 33.2, 116.17 15.2, 126.03 2.23 M87.72 52.4 C102.31 33.8, 122.25 16.3, 131.02 2.59 M87.72 52.4 C99.98 38.78, 112.94 23.96, 131.02 2.59 M92.71 52.77 C108.08 36.85, 124.28 17.27, 136.66 2.2 M92.71 52.77 C106.98 37.3, 119.71 20.93, 136.66 2.2 M98.35 52.37 C115.23 35.48, 129.04 17.89, 141.65 2.56 M98.35 52.37 C109.38 38.3, 121.96 25.95, 141.65 2.56 M103.34 52.73 C121.56 32.36, 139.26 14.35, 147.29 2.16 M103.34 52.73 C119.3 35.18, 132.54 18.84, 147.29 2.16 M108.98 52.34 C122.99 32.39, 139.2 16.1, 152.28 2.53 M108.98 52.34 C124.22 35.98, 139.08 18.07, 152.28 2.53 M113.97 52.7 C128.54 35.2, 145.12 17.21, 157.27 2.89 M113.97 52.7 C127.27 37.73, 140.08 23.45, 157.27 2.89 M118.96 53.06 C130.01 43.2, 138.22 32.24, 162.91 2.49 M118.96 53.06 C131 38.62, 144.83 23.03, 162.91 2.49 M124.6 52.66 C135.13 40.48, 144.2 31.56, 167.9 2.85 M124.6 52.66 C138.29 36.37, 152.35 21.23, 167.9 2.85 M129.59 53.02 C138.46 43.74, 149.14 33.77, 172.89 3.21 M129.59 53.02 C145.78 33.19, 164.32 14, 172.89 3.21 M135.23 52.63 C148.61 39.11, 158.64 25.78, 176.56 5.08 M135.23 52.63 C147.07 38.41, 158.92 24.26, 176.56 5.08 M140.22 52.99 C148.34 44.54, 157.58 33.25, 178.27 9.21 M140.22 52.99 C151.35 39.87, 163.48 27.02, 178.27 9.21 M145.86 52.59 C159.85 40.34, 170.42 26.22, 180.63 12.59 M145.86 52.59 C154.56 42.01, 162.82 33.28, 180.63 12.59 M150.85 52.95 C160.03 41.34, 172.27 27.86, 180.37 18.99 M150.85 52.95 C160.18 42.52, 171.35 30.09, 180.37 18.99 M156.49 52.56 C165.27 42.21, 175.55 29.93, 180.76 24.63 M156.49 52.56 C163.63 42.52, 172.4 34.15, 180.76 24.63 M161.48 52.92 C168.52 47.47, 171.03 40.14, 180.5 31.03 M161.48 52.92 C166.69 47.33, 170.67 42.99, 180.5 31.03 M166.46 53.28 C171.08 48.3, 173.78 45.57, 180.24 37.43 M166.46 53.28 C170.07 49.65, 173.65 46.26, 180.24 37.43" stroke="#ffc9c9" stroke-width="0.5" fill="none"></path><path d="M13 0 M13 0 C49.88 0.97, 82.57 0.42, 165 0 M13 0 C44.95 1.2, 76.85 1.39, 165 0 M165 0 C171.81 -1.72, 177.7 5.44, 178 13 M165 0 C173.18 1.31, 177.18 2.26, 178 13 M178 13 C179.1 19.76, 179.03 22.72, 178 39 M178 13 C177.91 19.25, 178.16 26.38, 178 39 M178 39 C177.32 49.26, 172.67 53.26, 165 52 M178 39 C179.2 47.24, 172.13 51.72, 165 52 M165 52 C120.65 50.27, 77.23 52.58, 13 52 M165 52 C122.87 51.88, 80.82 52.01, 13 52 M13 52 C6.24 53.19, -1.97 47.49, 0 39 M13 52 C3.49 49.98, -1.21 48.05, 0 39 M0 39 C-1.49 33.98, 1.34 27.62, 0 13 M0 39 C-1.03 32.32, 0.09 26.62, 0 13 M0 13 C-0.33 5.54, 5.59 1.64, 13 0 M0 13 C1.84 4.76, 2.6 -0.26, 13 0" stroke="#1e1e1e" stroke-width="1" fill="none"></path></g><g transform="translate(275.20511603546333 275.5) rotate(0 53.0799560546875 12.5)"><text x="53.0799560546875" y="0" font-family="Virgil, Segoe UI Emoji" font-size="20px" fill="#1e1e1e" text-anchor="middle" style="white-space: pre;" direction="ltr" dominant-baseline="text-before-edge">JavaScript</text></g><g transform="translate(231.78507209015083 47.5) rotate(0 47.999969482421875 12.5)"><text x="0" y="0" font-family="Virgil, Segoe UI Emoji" font-size="20px" fill="#1e1e1e" text-anchor="start" style="white-space: pre;" direction="ltr" dominant-baseline="text-before-edge">Front End</text></g><g stroke-linecap="round" transform="translate(20.785072090150834 69.5) rotate(0 22 21.5)"><path d="M32.79 3.16 C36.96 4.89, 41.77 8.52, 43.33 12.71 C44.89 16.91, 43.68 23.77, 42.15 28.34 C40.62 32.92, 37.87 37.91, 34.14 40.14 C30.4 42.38, 24.39 42.35, 19.74 41.77 C15.1 41.19, 9.57 39.89, 6.28 36.65 C2.98 33.4, 0.29 26.99, -0.01 22.31 C-0.31 17.62, 1.68 12.24, 4.49 8.53 C7.3 4.82, 12 0.79, 16.83 0.06 C21.66 -0.68, 30.4 3.27, 33.48 4.12 C36.55 4.97, 35.57 5.07, 35.31 5.16 M22.64 -1.46 C26.84 -1.73, 31.39 1.08, 34.63 4.08 C37.87 7.09, 41.09 12.03, 42.09 16.56 C43.1 21.09, 42.56 27.09, 40.66 31.29 C38.77 35.48, 34.76 40, 30.71 41.75 C26.66 43.49, 21.06 43.29, 16.38 41.75 C11.71 40.21, 5.29 36.35, 2.66 32.51 C0.03 28.66, -0.01 23.21, 0.59 18.7 C1.19 14.19, 2.91 8.55, 6.25 5.44 C9.59 2.33, 18.09 0.8, 20.63 0.05 C23.17 -0.69, 21.4 0.69, 21.48 0.98" stroke="#1e1e1e" stroke-width="1" fill="none"></path></g><g stroke-linecap="round"><g transform="translate(43.785072090150834 115.5) rotate(0 0.24296865000388834 23.499704338023435)"><path d="M-0.62 -0.12 C-0.6 7.56, 0.02 39.16, -0.22 47.14 M1.25 -1.23 C1.21 7.09, -0.6 39.87, -0.76 48.23" stroke="#1e1e1e" stroke-width="1" fill="none"></path></g></g><mask></mask><g stroke-linecap="round"><g transform="translate(43.785072090150834 165.5) rotate(0 10.215773666650023 14.804671521903941)"><path d="M-0.66 0.02 C3.04 4.95, 17.43 24.37, 21.09 29.4 M1.19 -1.01 C4.84 4.08, 16.94 25.18, 20.19 30.62" stroke="#1e1e1e" stroke-width="1" fill="none"></path></g></g><mask></mask><g stroke-linecap="round"><g transform="translate(43.785072090150834 165.5) rotate(0 -9.21541038878729 13.61512284934986)"><path d="M-1.08 0.78 C-4.36 5.19, -16.26 22.73, -18.98 27.09 M0.55 0.14 C-2.42 4.19, -13.72 21.38, -16.79 25.54" stroke="#1e1e1e" stroke-width="1" fill="none"></path></g></g><mask></mask><g stroke-linecap="round"><g transform="translate(45.785072090150834 127.5) rotate(0 16.113867596606724 -0.18819957846176294)"><path d="M-0.04 -0.12 C5.52 0.09, 28.26 0.91, 33.75 0.87 M-1.53 -1.23 C3.92 -1.32, 27.59 -1.13, 33.2 -0.79" stroke="#1e1e1e" stroke-width="1" fill="none"></path></g></g><mask></mask><g stroke-linecap="round"><g transform="translate(41.785072090150834 125.5) rotate(0 -15.72353150902785 1.6971545107383292)"><path d="M0.34 0.84 C-4.84 1.34, -25.56 1.78, -30.55 2.1 M-0.94 0.23 C-6.37 0.94, -26.91 2.55, -31.79 3.17" stroke="#1e1e1e" stroke-width="1" fill="none"></path></g></g><mask></mask><g stroke-linecap="round" transform="translate(650.2850720901508 84.5) rotate(0 213.5 134.5)"><path d="M32 0 M32 0 C109.81 2.71, 186.42 0.76, 395 0 M395 0 C416.78 -1.02, 426.4 12.25, 427 32 M427 32 C429.4 86.67, 427.27 142.22, 427 237 M427 237 C428.48 256.94, 415.49 269.57, 395 269 M395 269 C316.15 271.46, 239.21 270.67, 32 269 M32 269 C11.61 268.26, 1.08 257.04, 0 237 M0 237 C1.84 193.61, 0.11 150.97, 0 32 M0 32 C0.78 9.68, 10.91 0.2, 32 0" stroke="#1e1e1e" stroke-width="1.5" fill="none" stroke-dasharray="8 9"></path></g><g transform="translate(653.785102607729 51) rotate(0 45.92997741699219 12.5)"><text x="0" y="0" font-family="Virgil, Segoe UI Emoji" font-size="20px" fill="#1e1e1e" text-anchor="start" style="white-space: pre;" direction="ltr" dominant-baseline="text-before-edge">Back End</text></g><g stroke-linecap="round"><g transform="translate(67.78507209015083 149.5) rotate(0 69.65644779907075 -0.8131782053741006)"><path d="M1.11 0.56 C24.3 0.33, 116.38 -1.6, 139.07 -2.19 M0.24 -0.19 C23.36 -0.16, 115.44 -0.42, 138.69 -0.76" stroke="#1e1e1e" stroke-width="1" fill="none"></path></g><g transform="translate(67.78507209015083 149.5) rotate(0 69.65644779907075 -0.8131782053741006)"><path d="M111.51 11.51 C118.65 5.11, 125.67 4.07, 140.32 -1.02 M111.11 8.77 C117.63 7.25, 124.71 5.22, 139.14 -1.13" stroke="#1e1e1e" stroke-width="1" fill="none"></path></g><g transform="translate(67.78507209015083 149.5) rotate(0 69.65644779907075 -0.8131782053741006)"><path d="M111.35 -9.01 C118.4 -9.32, 125.46 -4.27, 140.32 -1.02 M110.95 -11.75 C117.66 -8.39, 124.78 -5.55, 139.14 -1.13" stroke="#1e1e1e" stroke-width="1" fill="none"></path></g></g><mask></mask><g transform="translate(92.78507209015083 83.5) rotate(0 55.819969177246094 25)"><text x="0" y="0" font-family="Virgil, Segoe UI Emoji" font-size="20px" fill="#1e1e1e" text-anchor="start" style="white-space: pre;" direction="ltr" dominant-baseline="text-before-edge">käyttää ja</text><text x="0" y="25" font-family="Virgil, Segoe UI Emoji" font-size="20px" fill="#1e1e1e" text-anchor="start" style="white-space: pre;" direction="ltr" dominant-baseline="text-before-edge">katsoo</text></g><g stroke-linecap="round" transform="translate(698.7850720901508 259.5) rotate(0 89 29.5)"><path d="M3.93 3.41 C3.93 3.41, 3.93 3.41, 3.93 3.41 M3.93 3.41 C3.93 3.41, 3.93 3.41, 3.93 3.41 M1.7 12.07 C4.52 9.4, 7.64 6.94, 10.23 2.26 M1.7 12.07 C4.48 8.63, 6.9 6.35, 10.23 2.26 M1.44 18.47 C6 12.51, 11.9 5.85, 16.52 1.11 M1.44 18.47 C5.93 12.5, 12.28 7.22, 16.52 1.11 M1.17 24.87 C6.64 17.71, 11.78 14.25, 21.51 1.47 M1.17 24.87 C7.78 15.7, 16.31 6.63, 21.51 1.47 M1.57 30.51 C9.68 18.14, 20.41 9.62, 27.15 1.08 M1.57 30.51 C9.95 21.89, 17.75 13.06, 27.15 1.08 M1.31 36.91 C10.22 25.38, 22.17 12.29, 32.14 1.44 M1.31 36.91 C11.79 26.11, 21.76 15.27, 32.14 1.44 M1.7 42.55 C12.21 30.13, 22.88 21.1, 37.13 1.8 M1.7 42.55 C8.34 34.43, 16.09 24.8, 37.13 1.8 M1.44 48.95 C17.93 32.24, 31.89 12.64, 42.77 1.41 M1.44 48.95 C15.69 32.09, 31.41 14.3, 42.77 1.41 M3.15 53.09 C19.73 34.05, 35.97 11, 47.76 1.77 M3.15 53.09 C18.42 35.94, 32.4 20.34, 47.76 1.77 M5.51 56.46 C19.02 40.84, 28.5 30.72, 53.4 1.37 M5.51 56.46 C16.69 44.25, 26.43 33.5, 53.4 1.37 M9.18 58.33 C27.06 38.17, 42.16 19.89, 58.39 1.73 M9.18 58.33 C23.3 42.79, 36.3 24.98, 58.39 1.73 M14.17 58.69 C25.95 41.63, 42.71 29.93, 64.03 1.34 M14.17 58.69 C28.53 42.38, 43.58 24.01, 64.03 1.34 M19.16 59.05 C37.95 38.25, 53.66 19, 69.02 1.7 M19.16 59.05 C36.75 38.5, 55.14 20.2, 69.02 1.7 M24.8 58.66 C39.45 39.17, 55.94 24.28, 74.01 2.06 M24.8 58.66 C44.16 36.97, 61.2 15.86, 74.01 2.06 M29.79 59.02 C46.36 43.79, 59.58 24.93, 79.65 1.66 M29.79 59.02 C50.06 37.15, 68.33 13.98, 79.65 1.66 M35.43 58.63 C46.16 45.14, 57.68 33.38, 84.64 2.02 M35.43 58.63 C48.26 42.96, 61.55 26.58, 84.64 2.02 M40.42 58.99 C52.81 43.22, 68.11 27.12, 90.28 1.63 M40.42 58.99 C54.68 40.58, 70.24 23.28, 90.28 1.63 M46.06 58.59 C61.59 38.44, 77.55 20.94, 95.27 1.99 M46.06 58.59 C66.18 36.13, 84.85 15.61, 95.27 1.99 M51.05 58.95 C63.95 41.99, 79.06 27.77, 100.91 1.59 M51.05 58.95 C70.09 35.84, 90.81 13.63, 100.91 1.59 M56.69 58.56 C71.5 38.92, 88.83 19.13, 105.9 1.95 M56.69 58.56 C75.95 36.84, 95.54 14.47, 105.9 1.95 M61.68 58.92 C70.62 47.56, 84.18 35.13, 111.54 1.56 M61.68 58.92 C80.95 37.05, 99.04 14.18, 111.54 1.56 M66.67 59.28 C76.94 46.62, 86.71 35.19, 116.53 1.92 M66.67 59.28 C82.56 42.23, 97.71 24.34, 116.53 1.92 M72.31 58.88 C91.38 40.24, 104.39 23.11, 121.51 2.28 M72.31 58.88 C81.66 46.73, 93.26 35.23, 121.51 2.28 M77.3 59.24 C96.41 39.3, 113.93 17.57, 127.16 1.88 M77.3 59.24 C88.68 45.4, 101.24 31.58, 127.16 1.88 M82.94 58.85 C95.22 43.01, 109.54 25.92, 132.14 2.24 M82.94 58.85 C92.89 46.68, 104.22 33.07, 132.14 2.24 M87.93 59.21 C101 44.43, 113.3 31.32, 137.79 1.85 M87.93 59.21 C100.36 45.76, 110.89 33.81, 137.79 1.85 M93.57 58.81 C108.46 40.37, 123.61 21.83, 142.77 2.21 M93.57 58.81 C113.94 36.83, 132.63 15.78, 142.77 2.21 M98.56 59.17 C115.05 40.87, 129.28 21.56, 148.42 1.82 M98.56 59.17 C110.23 46.17, 122.59 32.21, 148.42 1.82 M103.54 59.53 C120.51 37.85, 138.09 16.42, 153.4 2.18 M103.54 59.53 C117.89 43.8, 133.5 26.29, 153.4 2.18 M109.19 59.14 C122.05 42.4, 138.05 24.69, 158.39 2.54 M109.19 59.14 C124.37 42.17, 140.25 25.26, 158.39 2.54 M114.17 59.5 C131.39 37.64, 150.08 16.76, 164.03 2.14 M114.17 59.5 C130.74 38.89, 147.35 19.74, 164.03 2.14 M119.82 59.1 C132.72 42.06, 146.66 30.17, 170.33 0.99 M119.82 59.1 C131.22 45.6, 143.96 29.93, 170.33 0.99 M124.8 59.46 C140.17 42.93, 155.62 22.72, 173.35 3.62 M124.8 59.46 C142.14 38.34, 158.62 20.27, 173.35 3.62 M130.45 59.07 C143.55 43.49, 155.75 31.12, 176.37 6.24 M130.45 59.07 C145.6 41.41, 161.69 23.39, 176.37 6.24 M135.43 59.43 C144.45 48.37, 152.88 37.82, 178.08 10.37 M135.43 59.43 C149.11 41.85, 163.98 25.08, 178.08 10.37 M141.08 59.04 C153.71 47.02, 162.54 35.48, 180.44 13.75 M141.08 59.04 C149.58 50.29, 156.5 41.1, 180.44 13.75 M146.06 59.4 C157.22 47.03, 167.72 34.14, 180.18 20.15 M146.06 59.4 C157.98 44.25, 172.5 29.16, 180.18 20.15 M151.05 59.76 C159.84 48.32, 171.33 36.37, 180.57 25.79 M151.05 59.76 C161.38 46.08, 172.45 35.12, 180.57 25.79 M156.69 59.36 C163.93 51.06, 172.43 40.47, 180.31 32.19 M156.69 59.36 C163.93 51.62, 170.5 43.28, 180.31 32.19 M161.68 59.72 C168.96 53.52, 174.74 44.65, 180.05 38.59 M161.68 59.72 C166.31 52.85, 171.52 47.01, 180.05 38.59 M166.01 60.84 C169.06 55.29, 175.18 48.62, 179.79 44.99 M166.01 60.84 C172.18 53.76, 177.27 47.26, 179.79 44.99" stroke="#a5d8ff" stroke-width="0.5" fill="none"></path><path d="M14.75 0 M14.75 0 C50.51 -0.67, 84.37 -0.07, 163.25 0 M14.75 0 C60.21 -0.43, 104.02 -0.31, 163.25 0 M163.25 0 C174.23 -1.74, 179.94 6.83, 178 14.75 M163.25 0 C171.62 -0.96, 179.77 6.46, 178 14.75 M178 14.75 C177.92 25.45, 177.41 34.64, 178 44.25 M178 14.75 C177.67 24.72, 177.7 34.36, 178 44.25 M178 44.25 C178.84 52.59, 174.1 57.46, 163.25 59 M178 44.25 C177.72 55.02, 173.16 58.98, 163.25 59 M163.25 59 C129.86 57.69, 100.12 59.68, 14.75 59 M163.25 59 C124.22 59.96, 84 58.44, 14.75 59 M14.75 59 C5.33 58.25, -1.87 53.98, 0 44.25 M14.75 59 C4.7 58.55, -1.09 54.38, 0 44.25 M0 44.25 C1.15 34.5, 1 26.55, 0 14.75 M0 44.25 C0.51 36.66, 0.62 27.92, 0 14.75 M0 14.75 C-0.97 4.03, 5.8 -0.04, 14.75 0 M0 14.75 C0.91 5.51, 5.58 -1.71, 14.75 0" stroke="#1e1e1e" stroke-width="1" fill="none"></path></g><g transform="translate(755.6851041336079 276.5) rotate(0 32.09996795654297 12.5)"><text x="32.09996795654297" y="0" font-family="Virgil, Segoe UI Emoji" font-size="20px" fill="#1e1e1e" text-anchor="middle" style="white-space: pre;" direction="ltr" dominant-baseline="text-before-edge">Python</text></g><g stroke-linecap="round" transform="translate(886.7850720901508 115.5) rotate(0 89 33)"><path d="M4.39 3.82 C4.39 3.82, 4.39 3.82, 4.39 3.82 M4.39 3.82 C4.39 3.82, 4.39 3.82, 4.39 3.82 M1.51 13.23 C4.31 10.37, 7.62 6.36, 10.69 2.67 M1.51 13.23 C3.34 11.41, 6.3 8.2, 10.69 2.67 M1.24 19.63 C3.75 15.02, 8.92 10.52, 17.65 0.76 M1.24 19.63 C7.76 12.34, 12.84 7.03, 17.65 0.76 M0.98 26.03 C11.12 14.66, 16.62 5.74, 22.63 1.12 M0.98 26.03 C9.21 17.42, 16.14 8.15, 22.63 1.12 M1.38 31.67 C10.58 20.42, 21.51 11.55, 28.28 0.73 M1.38 31.67 C9.52 20.69, 19.37 10.39, 28.28 0.73 M1.12 38.07 C10.07 29.79, 17.3 20.11, 33.26 1.09 M1.12 38.07 C9.52 28.28, 19.08 17.8, 33.26 1.09 M1.51 43.71 C15.83 27.91, 29.16 9.88, 38.91 0.7 M1.51 43.71 C13.27 31.45, 22.19 18.48, 38.91 0.7 M1.25 50.11 C12.75 40.89, 19.14 29.54, 43.89 1.06 M1.25 50.11 C16.86 31.83, 33.37 12.58, 43.89 1.06 M2.3 55 C19.45 35.57, 39.07 11.01, 48.88 1.42 M2.3 55 C19.57 33.89, 38.84 13.07, 48.88 1.42 M4.01 59.13 C19.51 41.29, 35.23 25.21, 54.52 1.02 M4.01 59.13 C16.4 43.98, 30.69 28.99, 54.52 1.02 M5.71 63.27 C17.67 51.02, 27.76 38.29, 59.51 1.38 M5.71 63.27 C17.02 50.83, 29.5 37.12, 59.51 1.38 M9.39 65.14 C24.67 50.51, 38.03 32.42, 65.15 0.99 M9.39 65.14 C32.45 39.16, 53.5 14.85, 65.15 0.99 M14.38 65.5 C29.59 50.28, 45.11 32.11, 70.14 1.35 M14.38 65.5 C29.22 48.89, 43.67 32.63, 70.14 1.35 M20.02 65.1 C31.75 51.56, 45.91 32.99, 75.78 0.95 M20.02 65.1 C34.21 48.12, 49.14 31.76, 75.78 0.95 M25.01 65.46 C38.51 51.69, 52.4 33.78, 80.77 1.31 M25.01 65.46 C43.74 42.45, 65.11 21.61, 80.77 1.31 M30.65 65.07 C47.94 47.74, 61.36 28.85, 85.76 1.67 M30.65 65.07 C50.26 42.21, 69.36 18.11, 85.76 1.67 M35.64 65.43 C59.7 38.62, 81.22 14.47, 91.4 1.28 M35.64 65.43 C49.79 49.42, 64.73 32.97, 91.4 1.28 M41.28 65.03 C61.01 41.85, 79.71 22.02, 96.39 1.64 M41.28 65.03 C56.09 47.39, 71.35 30.56, 96.39 1.64 M46.27 65.39 C58.16 48.41, 74.75 36.09, 102.03 1.24 M46.27 65.39 C59.71 48.35, 74.93 31.47, 102.03 1.24 M51.25 65.75 C70.29 44.64, 84.9 26.12, 107.02 1.6 M51.25 65.75 C73.07 42.19, 93.02 18.61, 107.02 1.6 M56.9 65.36 C71.29 49.35, 87.18 28.36, 112.66 1.21 M56.9 65.36 C79.92 39.54, 102.39 13.64, 112.66 1.21 M61.88 65.72 C80.58 41.05, 101.38 19.46, 117.65 1.57 M61.88 65.72 C77.12 47.67, 92.99 28.59, 117.65 1.57 M67.53 65.32 C79.05 50.78, 93.37 34.56, 122.64 1.93 M67.53 65.32 C80.63 49.83, 92.46 35.61, 122.64 1.93 M72.51 65.68 C82.84 51.89, 95.43 36.41, 128.28 1.53 M72.51 65.68 C88.03 48.9, 102.64 30.55, 128.28 1.53 M78.16 65.29 C91.5 50.56, 107.93 33.25, 133.27 1.89 M78.16 65.29 C94.08 47.64, 110.03 29.64, 133.27 1.89 M83.14 65.65 C101.45 45.77, 116.43 27.54, 138.91 1.5 M83.14 65.65 C93.8 52.31, 105.95 38.59, 138.91 1.5 M88.79 65.26 C102.44 48.74, 120.47 31.6, 143.9 1.86 M88.79 65.26 C109.62 42.65, 128.6 19.45, 143.9 1.86 M93.77 65.62 C113.17 45.46, 130.01 23.44, 149.54 1.47 M93.77 65.62 C107.5 48.88, 122.07 33.32, 149.54 1.47 M98.76 65.98 C115.26 48.41, 133.41 28.36, 154.53 1.83 M98.76 65.98 C111.61 51.45, 124.45 36.38, 154.53 1.83 M104.4 65.58 C126.53 39.95, 144.89 19, 159.51 2.19 M104.4 65.58 C122.86 45.43, 140.34 25.04, 159.51 2.19 M109.39 65.94 C126.24 49.74, 140.36 29.03, 165.16 1.79 M109.39 65.94 C120.42 52.86, 133.83 39.61, 165.16 1.79 M115.03 65.55 C128.14 53.75, 138.85 39.87, 170.14 2.15 M115.03 65.55 C130.34 49.95, 143.3 34.08, 170.14 2.15 M120.02 65.91 C132.97 50.83, 147.16 33.97, 173.82 4.02 M120.02 65.91 C137.53 46.47, 154.43 25.06, 173.82 4.02 M125.66 65.51 C141.96 46.44, 158.59 29.61, 176.84 6.64 M125.66 65.51 C138.38 51.54, 152.92 35.05, 176.84 6.64 M130.65 65.87 C139.82 56.67, 149.46 43.27, 178.54 10.78 M130.65 65.87 C147.31 45.45, 164.51 26.8, 178.54 10.78 M135.64 66.23 C149.68 51.25, 163.85 37.11, 180.25 14.91 M135.64 66.23 C153.19 47.02, 168.87 27.65, 180.25 14.91 M141.28 65.84 C158.43 49.71, 173.05 30.28, 179.99 21.31 M141.28 65.84 C149.04 56.34, 157.64 48.17, 179.99 21.31 M146.27 66.2 C154.59 55.59, 165.78 43.43, 180.38 26.95 M146.27 66.2 C158.95 52.51, 170.5 37.83, 180.38 26.95 M151.91 65.8 C159.34 57.71, 168.78 48.26, 180.12 33.35 M151.91 65.8 C161.44 55.71, 168.77 45.46, 180.12 33.35 M156.9 66.16 C162.98 58.84, 168.26 52.56, 179.86 39.75 M156.9 66.16 C163.84 58.21, 170.25 50.95, 179.86 39.75 M161.88 66.52 C168.2 61.87, 173.32 55.1, 179.6 46.15 M161.88 66.52 C166.41 61.71, 171.15 56.48, 179.6 46.15 M168.84 64.62 C171.93 62.61, 172.71 60.66, 179.34 52.54 M168.84 64.62 C172.24 61.27, 175.52 55.79, 179.34 52.54" stroke="#96f2d7" stroke-width="0.5" fill="none"></path><path d="M16.5 0 M16.5 0 C63.74 -2.43, 109.89 -0.9, 161.5 0 M16.5 0 C64.93 -1.85, 112.37 -1.67, 161.5 0 M161.5 0 C170.97 1.6, 177.49 6.12, 178 16.5 M161.5 0 C172.68 -1.98, 176.44 6.44, 178 16.5 M178 16.5 C177.69 28.07, 176.33 41.33, 178 49.5 M178 16.5 C178.39 25.76, 178.98 36.67, 178 49.5 M178 49.5 C178.57 58.74, 173.54 67.78, 161.5 66 M178 49.5 C176.37 60.24, 171.01 66.05, 161.5 66 M161.5 66 C114.97 65, 66.14 66.17, 16.5 66 M161.5 66 C128.29 65.83, 95.51 64, 16.5 66 M16.5 66 C6.55 64.12, 1.9 60.75, 0 49.5 M16.5 66 C5.33 64.09, 0.16 59.83, 0 49.5 M0 49.5 C1.88 42.77, -0.15 34.89, 0 16.5 M0 49.5 C-0.69 40.52, -0.16 30.45, 0 16.5 M0 16.5 C-0.31 7.04, 4.72 0.39, 16.5 0 M0 16.5 C-1.58 5.81, 4.61 1.23, 16.5 0" stroke="#1e1e1e" stroke-width="1" fill="none"></path></g><g transform="translate(922.7551190872211 136) rotate(0 53.02995300292969 12.5)"><text x="53.02995300292969" y="0" font-family="Virgil, Segoe UI Emoji" font-size="20px" fill="#1e1e1e" text-anchor="middle" style="white-space: pre;" direction="ltr" dominant-baseline="text-before-edge">tietokanta</text></g><g stroke-linecap="round"><g transform="translate(686.7850720901508 276.04563774800596) rotate(0 -127.7352929489407 -0.46458381546122496)"><path d="M-0.84 1.15 C-43.67 0.72, -213.21 -1.93, -255.98 -2.08 M0.92 0.71 C-42.07 0.33, -213.16 -0.78, -256.39 -1.14" stroke="#1e1e1e" stroke-width="1" fill="none"></path></g><g transform="translate(686.7850720901508 276.04563774800596) rotate(0 -127.7352929489407 -0.46458381546122496)"><path d="M-27.25 12.73 C-20.27 6.65, -5.51 1.66, -0.47 0.15 M-28.41 10.04 C-18.84 8.61, -10.49 5.35, -1.33 1.99" stroke="#1e1e1e" stroke-width="1" fill="none"></path></g><g transform="translate(686.7850720901508 276.04563774800596) rotate(0 -127.7352929489407 -0.46458381546122496)"><path d="M-26.98 -7.79 C-20.01 -6, -5.36 -3.12, -0.47 0.15 M-28.13 -10.48 C-18.61 -4.88, -10.36 -1.12, -1.33 1.99" stroke="#1e1e1e" stroke-width="1" fill="none"></path></g></g><mask></mask><g stroke-linecap="round" transform="translate(240.78507209015083 110.5) rotate(0 106 33)"><path d="M4.39 3.82 C4.39 3.82, 4.39 3.82, 4.39 3.82 M4.39 3.82 C4.39 3.82, 4.39 3.82, 4.39 3.82 M1.51 13.23 C4.65 10.55, 5.9 7.5, 10.69 2.67 M1.51 13.23 C3.17 11.15, 5.84 8.26, 10.69 2.67 M1.24 19.63 C9.7 12.75, 15.51 3.65, 17.65 0.76 M1.24 19.63 C6.05 13.98, 12.13 8.32, 17.65 0.76 M0.98 26.03 C9.46 17.31, 18.55 8.3, 22.63 1.12 M0.98 26.03 C8.48 16.88, 16.02 8.12, 22.63 1.12 M1.38 31.67 C11.8 20.5, 21.84 5.91, 28.28 0.73 M1.38 31.67 C9.55 23.45, 15.53 14.01, 28.28 0.73 M1.12 38.07 C15.58 22.44, 25.7 9.6, 33.26 1.09 M1.12 38.07 C9.36 28.19, 16.23 18.9, 33.26 1.09 M1.51 43.71 C11.91 35.77, 16.89 25.49, 38.91 0.7 M1.51 43.71 C14.33 28.98, 26.14 15.87, 38.91 0.7 M1.25 50.11 C10.79 37.1, 25.67 26.41, 43.89 1.06 M1.25 50.11 C11.46 36.98, 22.07 26.11, 43.89 1.06 M2.3 55 C16.3 40.14, 32.51 22.84, 48.88 1.42 M2.3 55 C17.54 38.57, 31.2 21.29, 48.88 1.42 M4.01 59.13 C14.6 47.12, 26.53 33.26, 54.52 1.02 M4.01 59.13 C17.6 42.64, 32.15 26.5, 54.52 1.02 M5.71 63.27 C24.78 39.21, 45.41 18.37, 59.51 1.38 M5.71 63.27 C21.37 44.85, 39.64 24.53, 59.51 1.38 M9.39 65.14 C31.64 37.79, 53.55 16.4, 65.15 0.99 M9.39 65.14 C28.18 43.01, 46.05 23.25, 65.15 0.99 M14.38 65.5 C28.03 51.03, 38.91 33.63, 70.14 1.35 M14.38 65.5 C28.9 49.72, 42.41 33.09, 70.14 1.35 M20.02 65.1 C41.2 40.62, 64.1 14.48, 75.78 0.95 M20.02 65.1 C41.21 41.84, 63.24 15.86, 75.78 0.95 M25.01 65.46 C40.06 45.24, 57.23 27.43, 80.77 1.31 M25.01 65.46 C42.33 47.66, 57.38 29.16, 80.77 1.31 M30.65 65.07 C49.72 44.19, 65.51 20.73, 86.41 0.92 M30.65 65.07 C48.93 44.36, 67.16 23.76, 86.41 0.92 M35.64 65.43 C47 52.03, 60.58 36.97, 91.4 1.28 M35.64 65.43 C58.93 40.56, 80.81 14.33, 91.4 1.28 M41.28 65.03 C57.38 44.47, 76.22 22.48, 96.39 1.64 M41.28 65.03 C53.05 53.23, 63.63 40.01, 96.39 1.64 M46.27 65.39 C66.58 39.8, 89.95 18.62, 102.03 1.24 M46.27 65.39 C56.87 51.8, 69.91 36.88, 102.03 1.24 M51.91 65 C66.59 45.31, 85.33 27.94, 107.02 1.6 M51.91 65 C71.3 42.5, 92.45 18.27, 107.02 1.6 M56.9 65.36 C72.44 46.35, 90.94 24.84, 112.66 1.21 M56.9 65.36 C78.72 39.98, 100.94 14.97, 112.66 1.21 M61.88 65.72 C83.69 39.9, 103.35 15.48, 117.65 1.57 M61.88 65.72 C78.96 45.47, 97.85 23.76, 117.65 1.57 M67.53 65.32 C79.11 51.35, 91.92 38.08, 123.29 1.17 M67.53 65.32 C79.05 51.14, 93 36.79, 123.29 1.17 M72.51 65.68 C92.42 42.81, 110.46 19.81, 128.28 1.53 M72.51 65.68 C90.39 46.24, 108.18 25.51, 128.28 1.53 M78.16 65.29 C90.78 50.95, 104.1 36.85, 133.27 1.89 M78.16 65.29 C91.04 50.8, 105.5 33.99, 133.27 1.89 M83.14 65.65 C104.75 43.17, 124.8 16.94, 138.91 1.5 M83.14 65.65 C97.21 48.66, 114.06 31.31, 138.91 1.5 M88.79 65.26 C104.09 50.37, 113.71 36.44, 143.9 1.86 M88.79 65.26 C109.62 41.26, 131.4 15.89, 143.9 1.86 M93.77 65.62 C104.73 52.17, 116.96 39.78, 149.54 1.47 M93.77 65.62 C112.39 44.18, 131.75 21.24, 149.54 1.47 M99.42 65.22 C121.84 41.43, 140.2 17.12, 154.53 1.83 M99.42 65.22 C114.96 48.87, 129.45 32.4, 154.53 1.83 M104.4 65.58 C122.61 49.16, 136.09 27.91, 160.17 1.43 M104.4 65.58 C123.33 44, 142.08 21.19, 160.17 1.43 M109.39 65.94 C130.19 42.31, 150.06 21.83, 165.16 1.79 M109.39 65.94 C127.3 47.07, 143.78 26.22, 165.16 1.79 M115.03 65.55 C127.4 51.47, 140.33 35.25, 170.8 1.4 M115.03 65.55 C127.97 50.53, 140.93 34.59, 170.8 1.4 M120.02 65.91 C140.88 42.18, 161.06 18.59, 175.79 1.76 M120.02 65.91 C140.3 41.3, 163.2 17.59, 175.79 1.76 M125.66 65.51 C137.85 52.16, 153.73 34.09, 180.77 2.12 M125.66 65.51 C145 44.34, 164.35 20.89, 180.77 2.12 M130.65 65.87 C148.45 43.95, 164.79 24.45, 186.42 1.72 M130.65 65.87 C150.74 41.31, 173.03 17.3, 186.42 1.72 M136.29 65.48 C147.86 52.65, 160.58 39.19, 191.4 2.08 M136.29 65.48 C151.76 46.83, 169.65 27.22, 191.4 2.08 M141.28 65.84 C155.43 50.01, 168.98 34.77, 197.05 1.69 M141.28 65.84 C155.22 50.53, 167.11 36.84, 197.05 1.69 M146.27 66.2 C167.98 43.72, 186.79 18.2, 202.69 1.29 M146.27 66.2 C161.39 47.7, 178.33 30.19, 202.69 1.29 M151.91 65.8 C171.44 44.9, 188.53 26.19, 206.36 3.16 M151.91 65.8 C167.01 45.97, 184.82 26.87, 206.36 3.16 M156.9 66.16 C167.59 53.94, 177.56 38.99, 209.38 5.79 M156.9 66.16 C176.18 42.38, 198.08 19.99, 209.38 5.79 M162.54 65.77 C181 42.97, 202.22 22.64, 211.09 9.92 M162.54 65.77 C171.84 53.95, 182.43 43.3, 211.09 9.92 M167.53 66.13 C180.44 54.35, 191.1 38.4, 212.8 14.05 M167.53 66.13 C180.42 52.05, 193.57 36.93, 212.8 14.05 M173.17 65.73 C182.34 54.43, 189 45.44, 213.19 19.7 M173.17 65.73 C187.07 49.64, 201.15 32.91, 213.19 19.7 M178.16 66.09 C192.66 49.6, 204.67 37.56, 212.93 26.09 M178.16 66.09 C188.19 53.38, 199.57 40.85, 212.93 26.09 M183.8 65.7 C193.58 55.04, 203.75 44.83, 212.67 32.49 M183.8 65.7 C189.5 57.85, 197.66 48.85, 212.67 32.49 M188.79 66.06 C195.34 56.76, 204.7 50.05, 212.41 38.89 M188.79 66.06 C192.59 61.27, 199.09 55.07, 212.41 38.89 M193.78 66.42 C199.12 57.7, 205.86 51.45, 212.8 44.53 M193.78 66.42 C200.95 58.27, 206.86 51.66, 212.8 44.53 M197.45 68.29 C199.19 65.79, 204.83 60.14, 212.54 50.93 M197.45 68.29 C200.54 64.42, 204.98 59.86, 212.54 50.93" stroke="#ffec99" stroke-width="0.5" fill="none"></path><path d="M16.5 0 M16.5 0 C69.62 -2.78, 126.06 -2.64, 195.5 0 M16.5 0 C60.45 -0.39, 104.84 -0.35, 195.5 0 M195.5 0 C205.95 0.37, 211.37 5.19, 212 16.5 M195.5 0 C206.53 0.11, 209.96 5.94, 212 16.5 M212 16.5 C212.69 25.45, 211.34 36.83, 212 49.5 M212 16.5 C212.59 25.94, 212.72 36.81, 212 49.5 M212 49.5 C213.98 60.18, 206.36 67.12, 195.5 66 M212 49.5 C210.78 62.17, 204.45 66.27, 195.5 66 M195.5 66 C151.69 67.62, 105.16 65.71, 16.5 66 M195.5 66 C136.67 66.34, 77.48 65.98, 16.5 66 M16.5 66 C5.27 64.8, 0.05 59.09, 0 49.5 M16.5 66 C5.75 65.06, 2.15 58.74, 0 49.5 M0 49.5 C-1.59 35.1, 0.39 23.91, 0 16.5 M0 49.5 C0.67 38.82, 0.13 25.69, 0 16.5 M0 16.5 C-1.38 6.08, 4.48 1.15, 16.5 0 M0 16.5 C0.33 3.63, 4.46 -2.16, 16.5 0" stroke="#1e1e1e" stroke-width="1" fill="none"></path></g><g stroke-linecap="round" transform="translate(253.78507209015083 118.5) rotate(0 42.5 24.5)"><path d="M12.25 0 M12.25 0 C30.55 0.06, 47.82 -2.32, 72.75 0 M12.25 0 C35.16 -1.18, 58.82 -1.27, 72.75 0 M72.75 0 C80.24 0.86, 85.96 5.68, 85 12.25 M72.75 0 C81.18 0.21, 84.91 4.36, 85 12.25 M85 12.25 C86.21 20.53, 84.35 25.61, 85 36.75 M85 12.25 C84.52 18.37, 85.59 23.35, 85 36.75 M85 36.75 C85.27 44.6, 82.44 48.85, 72.75 49 M85 36.75 C85.8 45.83, 80.84 48.68, 72.75 49 M72.75 49 C56.36 49.05, 42.06 49.51, 12.25 49 M72.75 49 C50.93 48.97, 28.02 48.7, 12.25 49 M12.25 49 C3.57 50.55, 0.9 46.5, 0 36.75 M12.25 49 C3.1 47.87, 0.1 42.95, 0 36.75 M0 36.75 C-1.09 28.39, -0.18 20.93, 0 12.25 M0 36.75 C0.11 31.02, -1.04 24.21, 0 12.25 M0 12.25 C0.63 4.96, 4.21 1.28, 12.25 0 M0 12.25 C-2.17 3.27, 4.68 0.21, 12.25 0" stroke="#1e1e1e" stroke-width="1" fill="none"></path></g><g transform="translate(276.7350919265766 130.5) rotate(0 19.54998016357422 12.5)"><text x="19.54998016357422" y="0" font-family="Virgil, Segoe UI Emoji" font-size="20px" fill="#1e1e1e" text-anchor="middle" style="white-space: pre;" direction="ltr" dominant-baseline="text-before-edge">html</text></g><g stroke-linecap="round" transform="translate(350.28507209015083 122) rotate(0 43 21)"><path d="M10.5 0 M10.5 0 C25.53 1.04, 40.38 2.01, 75.5 0 M10.5 0 C25.58 0.69, 40.6 -1.08, 75.5 0 M75.5 0 C81.56 -0.71, 84.71 2.3, 86 10.5 M75.5 0 C82.26 -1.77, 84.43 2.64, 86 10.5 M86 10.5 C86.87 17.67, 84.31 22.34, 86 31.5 M86 10.5 C86 18.59, 86.23 25.77, 86 31.5 M86 31.5 C86.97 39.39, 83.35 40.43, 75.5 42 M86 31.5 C87.92 40, 81.46 43.41, 75.5 42 M75.5 42 C53.26 43.41, 29.63 43.66, 10.5 42 M75.5 42 C56.14 40.65, 35.33 41.02, 10.5 42 M10.5 42 C2.45 43.41, -1.96 39.5, 0 31.5 M10.5 42 C1.78 40.68, 1.15 40.53, 0 31.5 M0 31.5 C1.61 23.94, -1.74 20.43, 0 10.5 M0 31.5 C-0.01 22.97, 0.95 15.04, 0 10.5 M0 10.5 C1.93 4.02, 2.5 -0.08, 10.5 0 M0 10.5 C0.82 1.63, 1.57 -2.14, 10.5 0" stroke="#1e1e1e" stroke-width="1" fill="none"></path></g><g transform="translate(377.4050900955219 130.5) rotate(0 15.879981994628906 12.5)"><text x="15.879981994628906" y="0" font-family="Virgil, Segoe UI Emoji" font-size="20px" fill="#1e1e1e" text-anchor="middle" style="white-space: pre;" direction="ltr" dominant-baseline="text-before-edge">css</text></g><g transform="translate(372.78507209015083 214.5) rotate(0 45.84996032714844 12.5)"><text x="0" y="0" font-family="Virgil, Segoe UI Emoji" font-size="20px" fill="#1e1e1e" text-anchor="start" style="white-space: pre;" direction="ltr" dominant-baseline="text-before-edge">päivittää</text></g><g stroke-linecap="round"><g transform="translate(359.7518274420829 256.5) rotate(0 0.7905600791649476 -38.161542557170606)"><path d="M0.91 -0.75 C1.33 -13.25, 1.56 -63.2, 1.65 -75.78 M-0.07 1.47 C0.31 -11.35, 0.84 -65.03, 0.99 -77.79" stroke="#1e1e1e" stroke-width="1" fill="none"></path></g><g transform="translate(359.7518274420829 256.5) rotate(0 0.7905600791649476 -38.161542557170606)"><path d="M9.69 -48.57 C9.19 -55.4, 6.09 -63.47, -0.78 -76.63 M10.89 -50.37 C8.27 -56.29, 6.64 -63.3, 0.71 -76.84" stroke="#1e1e1e" stroke-width="1" fill="none"></path></g><g transform="translate(359.7518274420829 256.5) rotate(0 0.7905600791649476 -38.161542557170606)"><path d="M-10.83 -48.79 C-6.61 -55.73, -4.98 -63.74, -0.78 -76.63 M-9.63 -50.6 C-7.27 -56.36, -3.92 -63.32, 0.71 -76.84" stroke="#1e1e1e" stroke-width="1" fill="none"></path></g></g><mask></mask><g stroke-linecap="round" transform="translate(218.78507209015083 398.5) rotate(0 432 33)"><path d="M6.13 2.68 C6.13 2.68, 6.13 2.68, 6.13 2.68 M6.13 2.68 C6.13 2.68, 6.13 2.68, 6.13 2.68 M3.9 11.34 C6.8 8.07, 8.42 8.07, 13.09 0.78 M3.9 11.34 C6.64 7.55, 8.96 4.71, 13.09 0.78 M3.64 17.74 C8.6 11.98, 15.21 7.36, 18.07 1.14 M3.64 17.74 C7.52 14.04, 10.22 10.79, 18.07 1.14 M3.38 24.14 C6.65 18.36, 12.23 14.64, 23.06 1.5 M3.38 24.14 C11.74 14.36, 18.45 6.05, 23.06 1.5 M3.12 30.54 C12.28 18.38, 24.32 7.22, 28.7 1.1 M3.12 30.54 C10.19 22.16, 17.51 13.94, 28.7 1.1 M2.86 36.93 C12.13 25.78, 20.55 16.57, 33.69 1.46 M2.86 36.93 C13.23 24.02, 24.58 11.3, 33.69 1.46 M2.6 43.33 C13.53 30.77, 27.42 12.51, 39.33 1.07 M2.6 43.33 C16.4 29.24, 27.73 15.03, 39.33 1.07 M1.68 50.48 C17.3 31.28, 33.72 11.86, 44.32 1.43 M1.68 50.48 C13.5 37.03, 23.48 26.15, 44.32 1.43 M1.42 56.88 C17.88 34.89, 36.91 16.03, 49.96 1.03 M1.42 56.88 C16.48 39.82, 30.61 24.46, 49.96 1.03 M3.78 60.26 C18.44 44.64, 30.17 28.79, 54.95 1.39 M3.78 60.26 C19.42 42.65, 33.73 25.83, 54.95 1.39 M6.14 63.64 C21.73 46.76, 36.24 30.84, 60.59 1 M6.14 63.64 C23.84 43.51, 43.35 21.95, 60.59 1 M9.82 65.51 C23.54 49.97, 35.86 37.65, 65.58 1.36 M9.82 65.51 C31.41 41.12, 52.01 15.26, 65.58 1.36 M14.8 65.87 C38.54 41.78, 57.45 17.37, 71.22 0.96 M14.8 65.87 C30.93 46.96, 47.06 27.49, 71.22 0.96 M18.48 67.74 C37.91 47.5, 53.59 27.53, 76.21 1.32 M18.48 67.74 C29.96 53.47, 42.26 39.63, 76.21 1.32 M23.47 68.1 C45.06 43.34, 69.66 15.71, 81.85 0.93 M23.47 68.1 C36.41 53.65, 48.24 40.89, 81.85 0.93 M29.11 67.7 C45.14 47.82, 61.71 30.51, 86.84 1.29 M29.11 67.7 C49.97 44.17, 68.99 21.46, 86.84 1.29 M34.1 68.06 C48.72 51.84, 61.08 36.36, 92.48 0.9 M34.1 68.06 C56.24 42.41, 78.36 15.76, 92.48 0.9 M39.74 67.67 C62.12 44.08, 82.05 19.4, 97.47 1.26 M39.74 67.67 C57.63 44.72, 76.58 22.74, 97.47 1.26 M44.73 68.03 C59.77 48.85, 77 33.69, 102.46 1.62 M44.73 68.03 C63.88 44.75, 83.39 23.98, 102.46 1.62 M50.37 67.64 C71.56 43.15, 93.61 16.81, 108.1 1.22 M50.37 67.64 C64.86 52.01, 78.27 37.24, 108.1 1.22 M55.36 68 C69.68 51.02, 81.46 35.96, 113.09 1.58 M55.36 68 C69.3 53, 82.05 38.42, 113.09 1.58 M61 67.6 C83.02 42.93, 104.69 20.04, 118.73 1.19 M61 67.6 C74.42 50.86, 88.87 34.75, 118.73 1.19 M65.99 67.96 C82.23 48.72, 98.57 26.61, 123.72 1.55 M65.99 67.96 C79.67 52.6, 94.37 36.8, 123.72 1.55 M71.63 67.57 C90.8 42.22, 115.25 20.26, 129.36 1.15 M71.63 67.57 C88.79 46.34, 106.59 25.93, 129.36 1.15 M76.62 67.93 C92.73 48.05, 109.74 29.56, 134.35 1.51 M76.62 67.93 C87.35 53.73, 99.71 40.57, 134.35 1.51 M82.26 67.53 C95.65 47.73, 115.04 30.79, 139.99 1.12 M82.26 67.53 C99.69 47.85, 114.06 31.16, 139.99 1.12 M87.25 67.89 C106.49 44.41, 126.64 23.02, 144.98 1.48 M87.25 67.89 C109.82 42.75, 130.6 17.49, 144.98 1.48 M92.89 67.5 C114.13 44.5, 135.61 21.69, 150.62 1.08 M92.89 67.5 C115.23 43.75, 136.64 18.54, 150.62 1.08 M97.88 67.86 C116.21 44.59, 137.86 25.5, 155.61 1.44 M97.88 67.86 C113.76 50.96, 129.61 32.13, 155.61 1.44 M103.52 67.46 C122.18 46.89, 140.15 25.13, 161.25 1.05 M103.52 67.46 C120.32 46.46, 140.61 26.18, 161.25 1.05 M108.51 67.82 C122.37 50.48, 140.47 32.94, 166.24 1.41 M108.51 67.82 C130.92 43.16, 153.1 16.86, 166.24 1.41 M114.15 67.43 C130.18 46.45, 148.3 24.87, 171.88 1.01 M114.15 67.43 C137.8 42.05, 160 15.34, 171.88 1.01 M119.14 67.79 C134.62 53.97, 145.38 37.57, 176.87 1.37 M119.14 67.79 C138.07 46.37, 155.64 27.4, 176.87 1.37 M124.78 67.39 C139.01 51.76, 153.55 35.97, 182.51 0.98 M124.78 67.39 C146.67 40.98, 171.13 15.58, 182.51 0.98 M129.77 67.75 C145.5 52.46, 159.52 32.76, 187.5 1.34 M129.77 67.75 C143.28 54, 154.8 38.71, 187.5 1.34 M135.41 67.36 C149.78 52.76, 164.07 34.49, 193.14 0.94 M135.41 67.36 C151.4 48.46, 166.57 31.31, 193.14 0.94 M140.4 67.72 C157.14 49.5, 172.55 33.62, 198.13 1.3 M140.4 67.72 C161.33 42.95, 181.81 19.99, 198.13 1.3 M145.38 68.08 C164.29 48.9, 180.27 28.06, 203.77 0.91 M145.38 68.08 C163.04 46.63, 179.94 26.42, 203.77 0.91 M151.03 67.68 C167.48 48.85, 186.58 29.81, 208.76 1.27 M151.03 67.68 C163.55 54.01, 175.23 40.15, 208.76 1.27 M156.01 68.05 C169.32 55.42, 182.11 39.21, 213.75 1.63 M156.01 68.05 C171.32 50.35, 188.88 30.36, 213.75 1.63 M161.66 67.65 C180.04 47.27, 198.48 23.57, 219.39 1.24 M161.66 67.65 C177 50.29, 192.09 34.75, 219.39 1.24 M166.64 68.01 C187.57 45.95, 208.17 24.66, 224.38 1.6 M166.64 68.01 C187.52 44, 208.09 21.52, 224.38 1.6 M172.29 67.62 C183.93 50.49, 199.8 37.73, 230.02 1.2 M172.29 67.62 C186.61 51.88, 198.1 38.15, 230.02 1.2 M177.27 67.98 C197.41 47.24, 212.68 25.22, 235.01 1.56 M177.27 67.98 C188.99 54.5, 201.63 41.68, 235.01 1.56 M182.92 67.58 C195.62 52.37, 205.67 40.27, 240.65 1.17 M182.92 67.58 C200.44 49.03, 218.15 29.04, 240.65 1.17 M187.9 67.94 C210.08 44.02, 232.44 16.55, 245.64 1.53 M187.9 67.94 C202.7 51.75, 216.81 35.59, 245.64 1.53 M193.55 67.55 C213.13 43.72, 233.93 19.75, 251.28 1.13 M193.55 67.55 C208.82 49.55, 225.31 30.93, 251.28 1.13 M198.53 67.91 C218.44 43.87, 241.67 20.75, 256.27 1.49 M198.53 67.91 C209.6 53.33, 223.47 38.87, 256.27 1.49 M204.18 67.51 C223.69 47.43, 241.64 26.97, 261.91 1.1 M204.18 67.51 C214.33 53, 227.43 40.56, 261.91 1.1 M209.16 67.87 C227.57 48.87, 245.3 30.02, 266.9 1.46 M209.16 67.87 C221.64 55.44, 232.75 40.57, 266.9 1.46 M214.81 67.48 C229.37 52.72, 240.5 38.78, 272.54 1.06 M214.81 67.48 C233.8 43.49, 255.12 22.61, 272.54 1.06 M219.79 67.84 C237.93 48.85, 254.5 29.33, 277.53 1.42 M219.79 67.84 C231.38 54.08, 243.65 38.92, 277.53 1.42 M225.44 67.44 C244.1 43.3, 266.68 20.9, 283.17 1.03 M225.44 67.44 C237.92 53.88, 249.68 40.37, 283.17 1.03 M230.42 67.8 C243.1 49.53, 256.94 33.78, 288.16 1.39 M230.42 67.8 C243.3 54.47, 254.25 40.69, 288.16 1.39 M236.07 67.41 C248.7 49.44, 265.81 33.02, 293.8 0.99 M236.07 67.41 C255.8 45.02, 275.54 21.42, 293.8 0.99 M241.05 67.77 C255.6 52.27, 269.66 37.74, 298.79 1.35 M241.05 67.77 C256.05 49.49, 271.59 32.4, 298.79 1.35 M246.7 67.37 C261.14 53.23, 271.92 37.14, 304.43 0.96 M246.7 67.37 C264.88 46.31, 282.67 25.06, 304.43 0.96 M251.68 67.73 C273.94 41.02, 298.63 15.21, 309.42 1.32 M251.68 67.73 C274.85 42.38, 298.47 14.3, 309.42 1.32 M256.67 68.09 C272.93 50.45, 286.37 33.63, 315.06 0.93 M256.67 68.09 C276.8 45.73, 295.17 23.71, 315.06 0.93 M262.31 67.7 C276.05 49.05, 293.45 34.27, 320.05 1.29 M262.31 67.7 C283.3 42.86, 305.77 19.74, 320.05 1.29 M267.3 68.06 C285.08 47.22, 304.46 29.61, 325.03 1.65 M267.3 68.06 C283.27 51.22, 298.12 34.12, 325.03 1.65 M272.94 67.67 C294.27 40.12, 318.8 16.04, 330.68 1.25 M272.94 67.67 C287.38 51.05, 303.02 33.28, 330.68 1.25 M277.93 68.03 C300.21 44.12, 320.79 19.78, 335.66 1.61 M277.93 68.03 C298.47 43.96, 320.53 20.87, 335.66 1.61 M283.57 67.63 C303.91 44.19, 323.5 23.22, 341.31 1.22 M283.57 67.63 C300.53 49.29, 315.97 29.77, 341.31 1.22 M288.56 67.99 C301.55 53.2, 315.46 39.98, 346.3 1.58 M288.56 67.99 C308.41 45.38, 328.71 22.36, 346.3 1.58 M294.2 67.6 C312.93 48.79, 330.54 25.2, 351.94 1.18 M294.2 67.6 C307.03 53.68, 319.36 39.74, 351.94 1.18 M299.19 67.96 C316.28 47.84, 336.04 25.68, 356.93 1.54 M299.19 67.96 C320.45 42.2, 342.58 18.23, 356.93 1.54 M304.83 67.56 C322.45 47.67, 339.45 27.85, 362.57 1.15 M304.83 67.56 C323.07 46.28, 341.65 25.2, 362.57 1.15 M309.82 67.92 C325.69 50.39, 339.12 34.03, 367.56 1.51 M309.82 67.92 C322.9 53.62, 334.95 39.84, 367.56 1.51 M315.47 67.53 C332.97 46.33, 352.01 25.72, 373.2 1.11 M315.47 67.53 C329.44 50.52, 344.51 34.72, 373.2 1.11 M320.45 67.89 C337.46 45.88, 355.02 27.34, 378.19 1.47 M320.45 67.89 C337.42 47.98, 355.55 28.55, 378.19 1.47 M326.1 67.49 C346.97 42.59, 370.93 18.66, 383.83 1.08 M326.1 67.49 C345.09 44.17, 365.12 23.46, 383.83 1.08 M331.08 67.85 C349.8 46.9, 366.6 25.66, 388.82 1.44 M331.08 67.85 C346.18 50.32, 361.44 32.31, 388.82 1.44 M336.73 67.46 C357.44 42.76, 376.74 21.25, 394.46 1.04 M336.73 67.46 C352.88 48.38, 369.2 29.15, 394.46 1.04 M341.71 67.82 C362.91 42.12, 386.96 18.16, 399.45 1.4 M341.71 67.82 C353.81 55.58, 366.24 41.08, 399.45 1.4 M347.36 67.42 C364.29 47, 383.35 29.62, 405.09 1.01 M347.36 67.42 C365.61 45.95, 386.2 22.68, 405.09 1.01 M352.34 67.78 C375.05 41.36, 392.81 20.01, 410.08 1.37 M352.34 67.78 C365.64 51.66, 379.22 36.52, 410.08 1.37 M357.99 67.39 C374.76 46.73, 390.92 28.08, 415.72 0.98 M357.99 67.39 C370.22 52.89, 383.88 38.1, 415.72 0.98 M362.97 67.75 C377.6 50.11, 390.67 36.42, 420.71 1.34 M362.97 67.75 C379.51 47.64, 397.63 27.48, 420.71 1.34 M368.62 67.36 C382.59 54.91, 393.45 40.78, 426.35 0.94 M368.62 67.36 C384.92 48.58, 401.09 30.29, 426.35 0.94 M373.6 67.72 C390.61 52.27, 403.99 32.02, 431.34 1.3 M373.6 67.72 C386.39 54.03, 399.27 38.2, 431.34 1.3 M378.59 68.08 C400.89 39.35, 422.56 16.76, 436.98 0.91 M378.59 68.08 C395.58 49.61, 412.68 29.07, 436.98 0.91 M384.23 67.68 C396.67 49.53, 412.71 35.41, 441.97 1.27 M384.23 67.68 C406.61 41.93, 428.91 16.41, 441.97 1.27 M389.22 68.04 C410.26 43.65, 429.06 24.17, 446.95 1.63 M389.22 68.04 C405.46 50.78, 420.82 33.45, 446.95 1.63 M394.86 67.65 C410.99 50.6, 425.7 31.25, 452.6 1.23 M394.86 67.65 C411.46 49.28, 425.57 31.82, 452.6 1.23 M399.85 68.01 C410.14 56.34, 425.69 39.43, 457.58 1.59 M399.85 68.01 C415.13 49.52, 430.97 31.8, 457.58 1.59 M405.49 67.61 C425.08 40.58, 449.21 16.15, 463.23 1.2 M405.49 67.61 C425.36 43.75, 446.07 20.13, 463.23 1.2 M410.48 67.97 C431.9 43.19, 450.5 21.02, 468.21 1.56 M410.48 67.97 C430.97 43.75, 450.81 19.22, 468.21 1.56 M416.12 67.58 C433.79 47.94, 450.42 27.05, 473.86 1.16 M416.12 67.58 C436.53 40.87, 459.88 16.8, 473.86 1.16 M421.11 67.94 C440.31 45.4, 459.96 24.7, 478.84 1.52 M421.11 67.94 C437.26 49.1, 453.78 28.94, 478.84 1.52 M426.75 67.54 C441.56 49.71, 461.87 29.16, 484.49 1.13 M426.75 67.54 C442.16 48.2, 459.93 28.72, 484.49 1.13 M431.74 67.9 C450.14 42.92, 470.07 22.08, 489.47 1.49 M431.74 67.9 C452.89 43.71, 473.76 18.21, 489.47 1.49 M437.38 67.51 C456.19 44.62, 477.05 22.28, 495.12 1.09 M437.38 67.51 C455.64 47.28, 471.9 28.21, 495.12 1.09 M442.37 67.87 C465.32 41.93, 485.32 17.2, 500.1 1.45 M442.37 67.87 C456.66 52.2, 469.16 35.99, 500.1 1.45 M448.01 67.47 C465.73 48.93, 482.81 27.35, 505.75 1.06 M448.01 67.47 C460.03 54.68, 471.03 39.88, 505.75 1.06 M453 67.83 C468.26 48.46, 484.06 32.26, 510.73 1.42 M453 67.83 C467.52 51.6, 481.9 33.83, 510.73 1.42 M458.64 67.44 C481.57 42.99, 505.6 18.44, 516.38 1.02 M458.64 67.44 C476.13 47.65, 492.37 27.2, 516.38 1.02 M463.63 67.8 C477.14 50.3, 494.4 33.58, 521.36 1.38 M463.63 67.8 C483.23 44.99, 502.83 23.3, 521.36 1.38 M469.27 67.4 C485.63 43.87, 504.38 24.5, 527.01 0.99 M469.27 67.4 C484.17 50.08, 500.75 32.83, 527.01 0.99 M474.26 67.76 C497.98 44.89, 515.63 19.38, 531.99 1.35 M474.26 67.76 C492.85 46.95, 511.32 24.8, 531.99 1.35 M479.9 67.37 C500.02 44.61, 518.11 22.21, 537.64 0.96 M479.9 67.37 C494.15 51.08, 508.86 34.82, 537.64 0.96 M484.89 67.73 C499.7 46.24, 517.8 27.99, 542.62 1.32 M484.89 67.73 C507.76 42.15, 529.37 15.63, 542.62 1.32 M489.88 68.09 C511.15 42.65, 535.89 17.27, 548.27 0.92 M489.88 68.09 C501.4 54.41, 514.27 39.68, 548.27 0.92 M495.52 67.7 C513.26 50.03, 530.46 28.5, 553.25 1.28 M495.52 67.7 C508.19 53.35, 521.94 37.1, 553.25 1.28 M500.51 68.06 C520.02 47.36, 537.49 24.02, 558.24 1.64 M500.51 68.06 C518.92 46.52, 538.23 22.68, 558.24 1.64 M506.15 67.66 C521.85 51.35, 535.28 32.95, 563.88 1.25 M506.15 67.66 C523.83 48.51, 540.85 27.93, 563.88 1.25 M511.14 68.02 C531.8 44.67, 548.63 24.72, 568.87 1.61 M511.14 68.02 C527.28 49.96, 542.68 30.84, 568.87 1.61 M516.78 67.63 C534.25 47.22, 553.93 23.02, 574.51 1.21 M516.78 67.63 C536.98 42.1, 559.09 18.58, 574.51 1.21 M521.77 67.99 C538.73 48.38, 554.62 27.49, 579.5 1.57 M521.77 67.99 C537.82 47.78, 555.49 27.16, 579.5 1.57 M527.41 67.59 C539.52 51.85, 552.14 37.06, 585.14 1.18 M527.41 67.59 C548.08 43.97, 568.58 18.96, 585.14 1.18 M532.4 67.95 C546.41 51.07, 559.12 37.3, 590.13 1.54 M532.4 67.95 C550.33 47.03, 568.91 25.77, 590.13 1.54 M538.04 67.56 C552.7 49.05, 567.22 32.14, 595.77 1.14 M538.04 67.56 C555.73 47.03, 574.11 26.1, 595.77 1.14 M543.03 67.92 C560.23 47.32, 578.2 27.43, 600.76 1.5 M543.03 67.92 C557.29 51.19, 570.94 35.92, 600.76 1.5 M548.67 67.52 C560.22 52.53, 576.11 36.08, 606.4 1.11 M548.67 67.52 C560.45 53.7, 573.65 39.93, 606.4 1.11 M553.66 67.88 C570.31 47.67, 586.3 28, 611.39 1.47 M553.66 67.88 C568.75 49.44, 585.64 30.04, 611.39 1.47 M559.3 67.49 C576.31 46.91, 593.52 25.98, 617.03 1.07 M559.3 67.49 C581.11 41.33, 601.8 18.07, 617.03 1.07 M564.29 67.85 C584.78 39.92, 608.03 15.42, 622.02 1.43 M564.29 67.85 C576.38 52.26, 590.59 39.11, 622.02 1.43 M569.93 67.45 C587.46 48.3, 602.27 33.93, 627.66 1.04 M569.93 67.45 C584.34 51.38, 597.94 34.75, 627.66 1.04 M574.92 67.81 C590.25 50.25, 604.55 30.69, 632.65 1.4 M574.92 67.81 C592.32 48.03, 609.94 28.17, 632.65 1.4 M580.56 67.42 C598.6 46.5, 617.59 28.17, 638.29 1.01 M580.56 67.42 C602.63 41.65, 625.8 14.21, 638.29 1.01 M585.55 67.78 C601.13 48.7, 620.14 29.1, 643.28 1.37 M585.55 67.78 C598.09 55.09, 609.54 40.78, 643.28 1.37 M591.19 67.39 C605.62 46.84, 621.47 31.94, 648.92 0.97 M591.19 67.39 C612.68 43.84, 632.83 18.37, 648.92 0.97 M596.18 67.75 C606.74 53.54, 620.45 37.63, 653.91 1.33 M596.18 67.75 C610.56 52.37, 624.23 35.97, 653.91 1.33 M601.82 67.35 C624.18 40.97, 645.69 13.23, 659.55 0.94 M601.82 67.35 C623.97 41.52, 646.61 15.21, 659.55 0.94 M606.81 67.71 C617.99 52.74, 632.53 40.73, 664.54 1.3 M606.81 67.71 C626.23 43.82, 646.34 21.08, 664.54 1.3 M611.8 68.07 C628.88 46.38, 649.44 26.43, 670.18 0.9 M611.8 68.07 C629.01 50.54, 644.07 30.74, 670.18 0.9 M617.44 67.68 C630.49 50.82, 641.67 36.27, 675.17 1.26 M617.44 67.68 C636.72 46.25, 654.8 26.27, 675.17 1.26 M622.43 68.04 C638.8 45.97, 657.07 25.42, 680.16 1.62 M622.43 68.04 C641.43 46.98, 660.42 25.53, 680.16 1.62 M628.07 67.64 C647.64 46.26, 665.65 26.42, 685.8 1.23 M628.07 67.64 C648.15 44.89, 669.1 20.33, 685.8 1.23 M633.06 68 C649.88 52.17, 662.87 31.67, 690.79 1.59 M633.06 68 C656.2 40.31, 679.36 14.23, 690.79 1.59 M638.7 67.61 C653.57 50.05, 668.55 30.73, 696.43 1.19 M638.7 67.61 C656.21 48.28, 674.18 26.59, 696.43 1.19 M643.69 67.97 C660.81 51.41, 673.51 33.34, 701.42 1.55 M643.69 67.97 C661.43 48.45, 678.25 30.1, 701.42 1.55 M649.33 67.57 C669.93 42.93, 687.77 22.26, 707.06 1.16 M649.33 67.57 C664.22 49.81, 679.15 32.69, 707.06 1.16 M654.32 67.93 C667.63 50.42, 684.55 32.87, 712.05 1.52 M654.32 67.93 C672.7 45.58, 691.94 23.99, 712.05 1.52 M659.96 67.54 C680.91 44.58, 697.24 23.17, 717.69 1.12 M659.96 67.54 C678.83 45.62, 697.44 23.74, 717.69 1.12 M664.95 67.9 C683.95 44.11, 707.56 20.52, 722.68 1.48 M664.95 67.9 C685.05 43.43, 706.86 20.22, 722.68 1.48 M670.59 67.5 C694.02 45.06, 714.46 19.07, 728.32 1.09 M670.59 67.5 C685 50.24, 700.68 32.5, 728.32 1.09 M675.58 67.86 C691.65 49.69, 710.22 28.45, 733.31 1.45 M675.58 67.86 C697.69 42.48, 720.37 17.94, 733.31 1.45 M681.22 67.47 C696.15 50.41, 709.89 32.4, 738.95 1.06 M681.22 67.47 C695.45 51.54, 708.33 35.24, 738.95 1.06 M686.21 67.83 C699.07 51.28, 712.64 34.07, 743.94 1.42 M686.21 67.83 C703.75 46.2, 722.97 24.61, 743.94 1.42 M691.85 67.44 C713.08 42.12, 736.63 16.82, 749.58 1.02 M691.85 67.44 C710.08 47.93, 726.48 26.77, 749.58 1.02 M696.84 67.8 C719.23 44.2, 742.53 15, 754.57 1.38 M696.84 67.8 C710.5 51.09, 726.04 34.85, 754.57 1.38 M702.48 67.4 C721.55 44.71, 745.24 20.48, 760.21 0.99 M702.48 67.4 C719.28 49.27, 735.14 29.36, 760.21 0.99 M707.47 67.76 C725.88 45.64, 744.57 23.48, 765.2 1.35 M707.47 67.76 C728.02 43.6, 748.53 21.26, 765.2 1.35 M713.11 67.37 C725.63 55.44, 737.86 41.3, 770.84 0.95 M713.11 67.37 C729.69 49.71, 745.09 30.97, 770.84 0.95 M718.1 67.73 C732.1 49.3, 744.35 33.43, 775.83 1.31 M718.1 67.73 C739.91 43.99, 759.05 20.2, 775.83 1.31 M723.08 68.09 C745.22 42.86, 768.43 15.95, 781.47 0.92 M723.08 68.09 C735.92 52.56, 748.68 38.58, 781.47 0.92 M728.73 67.69 C751.67 41.19, 775.01 16, 786.46 1.28 M728.73 67.69 C748.11 44.85, 768.83 23.16, 786.46 1.28 M733.71 68.05 C753.04 45.8, 770.14 26.56, 791.45 1.64 M733.71 68.05 C746.89 53.01, 762.53 35.14, 791.45 1.64 M739.36 67.66 C748.87 53.34, 760.95 42.51, 797.09 1.24 M739.36 67.66 C757.16 47.44, 774.92 27.63, 797.09 1.24 M744.34 68.02 C764.67 46.73, 779.38 26.35, 802.08 1.6 M744.34 68.02 C764.91 44.59, 786.93 20.97, 802.08 1.6 M749.99 67.62 C767.28 46.42, 786.03 26.12, 807.72 1.21 M749.99 67.62 C771.07 43.54, 792.6 17.72, 807.72 1.21 M754.97 67.98 C769.82 50.36, 783.73 38.13, 812.71 1.57 M754.97 67.98 C776.86 42.82, 799.62 16.98, 812.71 1.57 M760.62 67.59 C772.58 52, 785.84 35.58, 818.35 1.17 M760.62 67.59 C773.37 52.68, 784.79 39.21, 818.35 1.17 M765.6 67.95 C776.49 52.09, 789.52 40.11, 823.34 1.53 M765.6 67.95 C787.34 43, 810.73 17.19, 823.34 1.53 M771.25 67.55 C781.32 52.83, 795.93 38.65, 828.98 1.14 M771.25 67.55 C784.37 51.1, 796.57 36.79, 828.98 1.14 M776.23 67.91 C796.92 44.27, 816.42 23.08, 833.97 1.5 M776.23 67.91 C789.46 52.2, 804.32 35.37, 833.97 1.5 M781.88 67.52 C804.52 42.99, 825.66 16.68, 839.61 1.1 M781.88 67.52 C801.86 43.94, 822.65 20.01, 839.61 1.1 M786.86 67.88 C808.04 43.23, 830.44 18.7, 844.6 1.46 M786.86 67.88 C804.77 49.33, 820.99 29.28, 844.6 1.46 M792.51 67.48 C804.47 51.75, 819.78 35.18, 849.58 1.83 M792.51 67.48 C807.86 50.46, 823.42 31.38, 849.58 1.83 M797.49 67.84 C812.97 53.34, 824.05 37.35, 853.92 2.94 M797.49 67.84 C816.47 47.78, 832.93 26.18, 853.92 2.94 M803.14 67.45 C821.83 45.23, 838.04 27.07, 858.9 3.3 M803.14 67.45 C824.47 42.07, 846.75 17.81, 858.9 3.3 M808.12 67.81 C825.34 47.35, 847.73 25.93, 861.26 6.68 M808.12 67.81 C822.44 50.01, 837.85 33.5, 861.26 6.68 M813.77 67.42 C832.87 45.85, 854.99 21.41, 863.63 10.06 M813.77 67.42 C823.79 54.02, 835.7 42.31, 863.63 10.06 M818.75 67.78 C830.32 56.1, 840 44.34, 864.02 15.7 M818.75 67.78 C830.55 54.99, 842.14 42.21, 864.02 15.7 M824.4 67.38 C830.9 57.65, 842.51 47.65, 863.76 22.1 M824.4 67.38 C835.11 55.38, 843.8 44.65, 863.76 22.1 M829.38 67.74 C840.35 55.94, 853.06 40.3, 864.16 27.74 M829.38 67.74 C838.16 56.16, 848.69 46.43, 864.16 27.74 M834.37 68.1 C844.23 55.69, 858.01 42.21, 864.55 33.38 M834.37 68.1 C844.13 57.97, 854.44 47.12, 864.55 33.38 M840.01 67.71 C844.12 62.75, 850.37 55.96, 864.29 39.78 M840.01 67.71 C846.3 62.04, 852.19 54.29, 864.29 39.78 M845 68.07 C849.53 64.66, 852.12 57.75, 864.68 45.43 M845 68.07 C851.26 59.66, 858.31 52.46, 864.68 45.43 M849.99 68.43 C855.36 63.26, 860.89 55.17, 865.08 51.07 M849.99 68.43 C854.49 62.47, 859.84 58.15, 865.08 51.07" stroke="#eebefa" stroke-width="0.5" fill="none"></path><path d="M16.5 0 M16.5 0 C206.98 -2.68, 397.23 -2.05, 847.5 0 M16.5 0 C334.92 0.3, 654.12 -0.22, 847.5 0 M847.5 0 C856.74 -0.47, 865.74 5.52, 864 16.5 M847.5 0 C858.98 1.63, 862.28 3.96, 864 16.5 M864 16.5 C865.75 26.13, 863.18 35.75, 864 49.5 M864 16.5 C864.47 27.4, 864.04 38.22, 864 49.5 M864 49.5 C864.54 60.18, 857.9 65.72, 847.5 66 M864 49.5 C862.71 59, 856.24 67.91, 847.5 66 M847.5 66 C595.74 65.02, 342.11 65.84, 16.5 66 M847.5 66 C580.29 62.69, 312.83 62.41, 16.5 66 M16.5 66 C4.04 67.72, -1.64 59.95, 0 49.5 M16.5 66 C7.04 67.56, 2.03 60.74, 0 49.5 M0 49.5 C-1.65 42.74, 1.09 31.2, 0 16.5 M0 49.5 C-0.11 37.85, 1.02 25.46, 0 16.5 M0 16.5 C0.92 6.8, 5.67 -0.56, 16.5 0 M0 16.5 C-1.88 5.57, 7.09 1.46, 16.5 0" stroke="#1e1e1e" stroke-width="1" fill="none"></path></g><g transform="translate(603.4451215286274 419) rotate(0 47.33995056152344 12.5)"><text x="47.33995056152344" y="0" font-family="Virgil, Segoe UI Emoji" font-size="20px" fill="#1e1e1e" text-anchor="middle" style="white-space: pre;" direction="ltr" dominant-baseline="text-before-edge">Tietomalli</text></g><g transform="translate(507.78507209015083 217.5) rotate(0 58.78996276855469 25)"><text x="0" y="0" font-family="Virgil, Segoe UI Emoji" font-size="20px" fill="#1e1e1e" text-anchor="start" style="white-space: pre;" direction="ltr" dominant-baseline="text-before-edge">kutsuu</text><text x="0" y="25" font-family="Virgil, Segoe UI Emoji" font-size="20px" fill="#1e1e1e" text-anchor="start" style="white-space: pre;" direction="ltr" dominant-baseline="text-before-edge">(REST API)</text></g><g stroke-linecap="round"><g transform="translate(686.7850720901508 303.24126056440525) rotate(0 -127.92769191442517 -0.7096626766293639)"><path d="M1.1 -0.49 C-41.46 -0.6, -213.36 -0.74, -256.35 -0.84 M0.21 -1.8 C-42.36 -1.73, -214.01 0.11, -256.95 0.38" stroke="#1e1e1e" stroke-width="1" fill="none"></path></g><g transform="translate(686.7850720901508 303.24126056440525) rotate(0 -127.92769191442517 -0.7096626766293639)"><path d="M-229.67 -9.04 C-235.97 -7.27, -242.41 -7, -255.66 -0.61 M-227.97 -9.37 C-238.6 -6.55, -249.82 -1.62, -256.46 0.4" stroke="#1e1e1e" stroke-width="1" fill="none"></path></g><g transform="translate(686.7850720901508 303.24126056440525) rotate(0 -127.92769191442517 -0.7096626766293639)"><path d="M-229.49 11.48 C-235.79 8.82, -242.27 4.65, -255.66 -0.61 M-227.79 11.15 C-238.29 6.5, -249.58 3.94, -256.46 0.4" stroke="#1e1e1e" stroke-width="1" fill="none"></path></g></g><mask></mask><g transform="translate(520.7850720901508 312.5) rotate(0 51.21996307373047 25)"><text x="0" y="0" font-family="Virgil, Segoe UI Emoji" font-size="20px" fill="#1e1e1e" text-anchor="start" style="white-space: pre;" direction="ltr" dominant-baseline="text-before-edge">palauttaa</text><text x="0" y="25" font-family="Virgil, Segoe UI Emoji" font-size="20px" fill="#1e1e1e" text-anchor="start" style="white-space: pre;" direction="ltr" dominant-baseline="text-before-edge">(JSON)</text></g><g stroke-linecap="round"><g transform="translate(859.1818520456493 174.56027524887475) rotate(0 -39.040502699653985 32.77905871074489)"><path d="M0.2 0.5 C-12.48 11.22, -64.51 53.66, -77.16 64.23 M-1.15 -0.28 C-13.93 10.66, -65.83 54.94, -78.28 65.84" stroke="#1e1e1e" stroke-width="1" fill="none"></path></g><g transform="translate(859.1818520456493 174.56027524887475) rotate(0 -39.040502699653985 32.77905871074489)"><path d="M-14.2 25.78 C-11.58 22.75, -8.89 15.49, 1.34 -0.45 M-15.57 26.53 C-8.51 16.81, -3.39 6.63, 1.01 1.36" stroke="#1e1e1e" stroke-width="1" fill="none"></path></g><g transform="translate(859.1818520456493 174.56027524887475) rotate(0 -39.040502699653985 32.77905871074489)"><path d="M-27.25 9.94 C-21.9 10.22, -16.46 6.29, 1.34 -0.45 M-28.62 10.69 C-16.5 7.3, -6.26 3.34, 1.01 1.36" stroke="#1e1e1e" stroke-width="1" fill="none"></path></g><g transform="translate(859.1818520456493 174.56027524887475) rotate(0 -39.040502699653985 32.77905871074489)"><path d="M-62.8 39.09 C-66.51 47.06, -70.11 50.75, -77.15 64.9 M-64.17 39.85 C-69.02 50.24, -75.61 60.46, -77.48 66.7" stroke="#1e1e1e" stroke-width="1" fill="none"></path></g><g transform="translate(859.1818520456493 174.56027524887475) rotate(0 -39.040502699653985 32.77905871074489)"><path d="M-49.4 54.63 C-55.92 59.36, -62.33 59.78, -77.15 64.9 M-50.77 55.39 C-60.81 59.55, -72.66 63.69, -77.48 66.7" stroke="#1e1e1e" stroke-width="1" fill="none"></path></g></g><mask></mask><g transform="translate(737.7850720901508 174.5) rotate(0 34.879974365234375 12.5)"><text x="0" y="0" font-family="Virgil, Segoe UI Emoji" font-size="20px" fill="#1e1e1e" text-anchor="start" style="white-space: pre;" direction="ltr" dominant-baseline="text-before-edge">noutaa</text></g><g stroke-linecap="round"><g transform="translate(561.3618208313756 44.00000000000003) rotate(0 -29.83999261696829 44.586803365871305)"><path d="M0.79 -0.95 C-0.52 6.81, 2.77 31.83, -7.32 47.01 C-17.41 62.19, -51.01 82.94, -59.75 90.13 M-0.26 1.16 C-1.21 8.57, 5.12 30.88, -4.92 45.42 C-14.97 59.95, -51.43 81.26, -60.52 88.38" stroke="#e03131" stroke-width="1" fill="none"></path></g><g transform="translate(561.3618208313756 44.00000000000003) rotate(0 -29.83999261696829 44.586803365871305)"><path d="M-44.65 62.98 C-47.26 72.4, -53.04 80.73, -58.67 89.91 M-42.1 63.04 C-47.43 70.89, -53.47 77.96, -61.1 89.37" stroke="#e03131" stroke-width="1" fill="none"></path></g><g transform="translate(561.3618208313756 44.00000000000003) rotate(0 -29.83999261696829 44.586803365871305)"><path d="M-33.06 79.91 C-39.69 83.61, -49.43 86.16, -58.67 89.91 M-30.51 79.97 C-39.34 82.82, -48.79 84.91, -61.1 89.37" stroke="#e03131" stroke-width="1" fill="none"></path></g></g><mask></mask><g transform="translate(480.64253604507553 10) rotate(0 75.34992218017578 12.5)"><text x="0" y="0" font-family="Virgil, Segoe UI Emoji" font-size="20px" fill="#e03131" text-anchor="start" style="white-space: pre;" direction="ltr" dominant-baseline="text-before-edge">nettiselaimessa</text></g></svg>