<svg version="1.1" xmlns="http://www.w3.org/2000/svg" viewBox="0 0 1206.5056086948941 974.547553575385" width="1206.5056086948941" height="974.547553575385">
  <!-- svg-source:excalidraw -->
  
  <defs>
    <style class="style-fonts">
      @font-face {
        font-family: "Virgil";
        src: url("https://excalidraw.com/Virgil.woff2");
      }
      @font-face {
        font-family: "Cascadia";
        src: url("https://excalidraw.com/Cascadia.woff2");
      }
    </style>
    
  </defs>
  <rect x="0" y="0" width="1206.5056086948941" height="974.547553575385" fill="#ffffff"></rect><g stroke-linecap="round" transform="translate(514.2857142857144 289) rotate(0 112.5 30.5)"><path d="M4.06 3.53 C4.06 3.53, 4.06 3.53, 4.06 3.53 M4.06 3.53 C4.06 3.53, 4.06 3.53, 4.06 3.53 M1.17 12.95 C2.59 9.81, 6.18 7.44, 10.36 2.38 M1.17 12.95 C4.92 9.6, 7.32 5.82, 10.36 2.38 M1.57 18.59 C4.68 13.72, 10.15 9.04, 16.66 1.23 M1.57 18.59 C6.5 14.49, 10.59 9.51, 16.66 1.23 M1.31 24.99 C6.56 18.97, 14.47 9.25, 21.64 1.59 M1.31 24.99 C6.33 19.22, 9.61 15.56, 21.64 1.59 M1.7 30.63 C11.48 22.69, 19.34 10.35, 27.29 1.2 M1.7 30.63 C7.13 24.6, 12.78 17.4, 27.29 1.2 M1.44 37.03 C11.06 26.86, 23.24 14.43, 32.27 1.56 M1.44 37.03 C9.89 27.47, 18.8 17.98, 32.27 1.56 M1.18 43.42 C13.96 27.71, 28.13 13.14, 37.92 1.16 M1.18 43.42 C13.22 27.99, 25.66 15.14, 37.92 1.16 M0.92 49.82 C10.06 39.71, 21.13 28.23, 42.9 1.52 M0.92 49.82 C17 31.3, 34.17 11.3, 42.9 1.52 M2.62 53.96 C12.56 42.2, 22.02 31.78, 48.55 1.13 M2.62 53.96 C13.76 41.48, 23.11 30.7, 48.55 1.13 M4.99 57.34 C15.95 46.24, 25.61 33.99, 53.53 1.49 M4.99 57.34 C21.7 37.63, 39.87 17.84, 53.53 1.49 M8.01 59.96 C21.03 45.9, 31.06 31.83, 59.18 1.09 M8.01 59.96 C20.25 46.87, 29.64 34.9, 59.18 1.09 M11.02 62.58 C28.6 44.68, 47.02 23.3, 64.16 1.45 M11.02 62.58 C23.44 49.84, 35.4 34.48, 64.16 1.45 M16.67 62.19 C37.86 39.63, 56.1 16.32, 69.15 1.81 M16.67 62.19 C29.2 47.29, 40.62 33.96, 69.15 1.81 M21.65 62.55 C35.79 46.48, 48.14 31.59, 74.79 1.42 M21.65 62.55 C40.35 39.97, 59.51 17.6, 74.79 1.42 M27.3 62.15 C44.22 40.19, 63.51 19.74, 79.78 1.78 M27.3 62.15 C39.22 48.63, 51.35 35.25, 79.78 1.78 M32.28 62.51 C48.48 41.16, 69.09 20.84, 85.43 1.38 M32.28 62.51 C42.3 49.13, 53.87 36.33, 85.43 1.38 M37.93 62.12 C56.83 40.85, 78.06 17.77, 90.41 1.74 M37.93 62.12 C55.04 43.54, 70.2 24.43, 90.41 1.74 M42.91 62.48 C63.07 38.71, 83.35 14.05, 96.06 1.35 M42.91 62.48 C61.61 39.91, 82.23 19.13, 96.06 1.35 M47.9 62.84 C63.93 47.24, 78.46 27.62, 101.04 1.71 M47.9 62.84 C62.25 48.09, 74.1 32.1, 101.04 1.71 M53.54 62.45 C69.06 47.2, 82.34 31.06, 106.69 1.31 M53.54 62.45 C65.53 49.31, 77.65 33.29, 106.69 1.31 M58.53 62.81 C70.54 50.76, 80.18 37.61, 111.67 1.67 M58.53 62.81 C75.26 41.06, 94.71 20.97, 111.67 1.67 M64.17 62.41 C79.05 45.55, 90.5 33.04, 116.66 2.03 M64.17 62.41 C84.66 38.55, 105.57 14.59, 116.66 2.03 M69.16 62.77 C82.26 45.05, 95.5 30.29, 122.3 1.64 M69.16 62.77 C85.26 44.1, 102.12 23.75, 122.3 1.64 M74.8 62.38 C89.62 45.6, 108.25 24.77, 127.29 2 M74.8 62.38 C90.55 44.32, 105.63 27.72, 127.29 2 M79.79 62.74 C95.62 45.12, 112.29 26.97, 132.93 1.61 M79.79 62.74 C95.71 45.55, 110.55 26.77, 132.93 1.61 M85.43 62.34 C97.93 44.84, 110.46 32.05, 137.92 1.97 M85.43 62.34 C98.28 47.63, 112.66 30.97, 137.92 1.97 M90.42 62.7 C110.32 41.29, 127.73 20.88, 143.56 1.57 M90.42 62.7 C111.93 38.31, 132.93 14.15, 143.56 1.57 M95.41 63.06 C113.08 41.09, 134.12 19.18, 148.55 1.93 M95.41 63.06 C113.98 40.95, 134.05 18.98, 148.55 1.93 M101.05 62.67 C121.69 40.71, 138.1 18.97, 154.19 1.54 M101.05 62.67 C119.87 42.57, 138.39 20.94, 154.19 1.54 M106.04 63.03 C121.44 44.83, 142.09 22.97, 159.18 1.9 M106.04 63.03 C122.72 44.76, 138.45 24.51, 159.18 1.9 M111.68 62.63 C122.97 46.24, 136.99 32.96, 164.17 2.26 M111.68 62.63 C124.77 47.78, 137.29 34.33, 164.17 2.26 M116.67 62.99 C133.93 42.14, 152.31 21.57, 169.81 1.86 M116.67 62.99 C134.89 40.77, 153.76 19.63, 169.81 1.86 M122.31 62.6 C137.97 43.53, 153.75 25.22, 174.8 2.22 M122.31 62.6 C142.76 39.55, 162.71 16.26, 174.8 2.22 M127.3 62.96 C139.04 49.84, 151.68 35.31, 180.44 1.83 M127.3 62.96 C138.62 50.94, 149.73 38.57, 180.44 1.83 M132.94 62.56 C152.12 39.76, 169.18 21.45, 185.43 2.19 M132.94 62.56 C148.76 44.07, 164.73 27.46, 185.43 2.19 M137.93 62.92 C150.96 50.38, 162.9 36.42, 191.07 1.79 M137.93 62.92 C155.2 42.42, 171.23 23.21, 191.07 1.79 M142.92 63.28 C160.84 41.95, 180.6 23.44, 196.06 2.15 M142.92 63.28 C157.31 46.33, 172.25 29.86, 196.06 2.15 M148.56 62.89 C167.38 42.84, 183.72 24.96, 201.7 1.76 M148.56 62.89 C159.42 50.81, 171.74 38.04, 201.7 1.76 M153.55 63.25 C165.63 50.19, 178.17 35.72, 206.69 2.12 M153.55 63.25 C164.33 51.41, 174.86 37.5, 206.69 2.12 M159.19 62.86 C171.11 48.55, 187.06 30.43, 211.67 2.48 M159.19 62.86 C174.78 43.85, 189.81 26.11, 211.67 2.48 M164.18 63.22 C180.51 43.44, 198.07 25.28, 217.32 2.08 M164.18 63.22 C174.46 50.62, 186.84 39.02, 217.32 2.08 M169.82 62.82 C185.21 45.53, 200.23 25.21, 220.99 3.95 M169.82 62.82 C186.43 43.29, 201.55 26.24, 220.99 3.95 M174.81 63.18 C184.43 50.33, 195.96 39.57, 224.01 6.58 M174.81 63.18 C193.19 43.84, 210.56 24.63, 224.01 6.58 M180.45 62.79 C196.29 46.84, 208.29 29.5, 225.06 11.47 M180.45 62.79 C191.18 50.52, 202.56 36.77, 225.06 11.47 M185.44 63.15 C195.59 47.38, 207.84 34.94, 224.8 17.86 M185.44 63.15 C199.57 47.39, 212.4 31.6, 224.8 17.86 M190.42 63.51 C199.93 51.69, 209.17 44.91, 224.54 24.26 M190.42 63.51 C199.01 54.4, 206.96 45.25, 224.54 24.26 M196.07 63.11 C205.89 49.74, 218.06 40.43, 224.28 30.66 M196.07 63.11 C203.52 54.8, 209.76 46.55, 224.28 30.66 M201.05 63.47 C207.98 55.34, 216.72 47.93, 224.67 36.3 M201.05 63.47 C207.6 57, 213.25 48.65, 224.67 36.3 M206.7 63.08 C213.15 58.48, 215.53 50.51, 224.41 42.7 M206.7 63.08 C213.55 55.23, 219.51 46.82, 224.41 42.7 M212.34 62.68 C214.78 56.56, 218.86 53.06, 224.15 49.1 M212.34 62.68 C214.85 58.75, 219.67 55.15, 224.15 49.1" stroke="#b2f2bb" stroke-width="0.5" fill="none"></path><path d="M15.25 0 M15.25 0 C67.28 0.98, 118.36 3.15, 209.75 0 M15.25 0 C92.12 1.37, 168.16 1.27, 209.75 0 M209.75 0 C218.85 0.88, 226.98 6.87, 225 15.25 M209.75 0 C220.52 0.34, 223.75 4.03, 225 15.25 M225 15.25 C225.09 24.64, 225.48 33.22, 225 45.75 M225 15.25 C224.66 25.88, 225.93 38.84, 225 45.75 M225 45.75 C226.92 54.93, 221.85 61.67, 209.75 61 M225 45.75 C226.71 54.75, 221.54 62.52, 209.75 61 M209.75 61 C139.36 62.86, 71.53 60.05, 15.25 61 M209.75 61 C133.82 61.82, 59.23 61.93, 15.25 61 M15.25 61 C4.37 60.46, -1.74 57.08, 0 45.75 M15.25 61 C5.62 63.26, -2.19 57.16, 0 45.75 M0 45.75 C1.3 39.39, -1.13 33.65, 0 15.25 M0 45.75 C0.29 37.23, -0.1 27.64, 0 15.25 M0 15.25 C0.57 6.28, 3.96 -0.47, 15.25 0 M0 15.25 C-0.69 6.46, 5.73 0.41, 15.25 0" stroke="#1e1e1e" stroke-width="1" fill="none"></path></g><g transform="translate(546.975777762277 307) rotate(0 79.8099365234375 12.5)"><text x="79.8099365234375" y="0" font-family="Virgil, Segoe UI Emoji" font-size="20px" fill="#1e1e1e" text-anchor="middle" style="white-space: pre;" direction="ltr" dominant-baseline="text-before-edge">REST Controller</text></g><g stroke-linecap="round" transform="translate(511.78571428571445 453.5) rotate(0 112.5 30.5)"><path d="M4.06 3.53 C4.06 3.53, 4.06 3.53, 4.06 3.53 M4.06 3.53 C4.06 3.53, 4.06 3.53, 4.06 3.53 M1.17 12.95 C4.07 10.27, 7.19 6.63, 10.36 2.38 M1.17 12.95 C3.86 9.47, 6.62 6.69, 10.36 2.38 M1.57 18.59 C6.85 15.41, 9.47 9.75, 16.66 1.23 M1.57 18.59 C8 13.23, 12.58 6.06, 16.66 1.23 M1.31 24.99 C8.48 17.42, 11.33 11.05, 21.64 1.59 M1.31 24.99 C6.48 18, 13.19 11.1, 21.64 1.59 M1.7 30.63 C7.42 24.16, 15.85 14.92, 27.29 1.2 M1.7 30.63 C6.98 24.2, 12.39 18.9, 27.29 1.2 M1.44 37.03 C6.47 29, 13.08 22.87, 32.27 1.56 M1.44 37.03 C12.23 24.13, 23.4 12.16, 32.27 1.56 M1.18 43.42 C10.76 32.23, 20.12 19.3, 37.92 1.16 M1.18 43.42 C11.97 31.83, 21.98 17.78, 37.92 1.16 M0.92 49.82 C18.59 31.86, 36.01 12.7, 42.9 1.52 M0.92 49.82 C13.12 34.33, 27.71 18.65, 42.9 1.52 M2.62 53.96 C15.08 39.82, 31.12 20.69, 48.55 1.13 M2.62 53.96 C20.52 34.34, 37.79 14.42, 48.55 1.13 M4.99 57.34 C20.73 35.79, 39.1 18.55, 53.53 1.49 M4.99 57.34 C16.84 44.31, 29.9 30.03, 53.53 1.49 M8.01 59.96 C17.45 48.42, 27.94 36.34, 59.18 1.09 M8.01 59.96 C19.02 47.32, 30.83 33.63, 59.18 1.09 M11.02 62.58 C26.82 47.07, 41.68 28.97, 64.16 1.45 M11.02 62.58 C28.43 43.07, 45.29 23.21, 64.16 1.45 M16.67 62.19 C37.25 39.84, 53.54 18.19, 69.15 1.81 M16.67 62.19 C36.78 40.67, 54.98 18.39, 69.15 1.81 M21.65 62.55 C39.62 38.95, 59.83 18.63, 74.79 1.42 M21.65 62.55 C32.54 49.64, 44.48 35.55, 74.79 1.42 M27.3 62.15 C41.61 47.18, 58.23 28.2, 79.78 1.78 M27.3 62.15 C47.47 38.85, 66.35 15.74, 79.78 1.78 M32.28 62.51 C46.49 43.39, 65.33 21.91, 85.43 1.38 M32.28 62.51 C48.72 43.78, 65.98 24.47, 85.43 1.38 M37.93 62.12 C52.64 47.53, 67.97 29.84, 90.41 1.74 M37.93 62.12 C49.28 48.27, 60.11 35.28, 90.41 1.74 M42.91 62.48 C57.37 46.6, 68.97 31.58, 96.06 1.35 M42.91 62.48 C57.4 44.27, 73.63 27.68, 96.06 1.35 M47.9 62.84 C65.31 42.4, 82.54 20.01, 101.04 1.71 M47.9 62.84 C58.01 50.49, 70.67 36.91, 101.04 1.71 M53.54 62.45 C73.75 40.55, 93.93 16.94, 106.69 1.31 M53.54 62.45 C69.48 44.38, 87.18 23.99, 106.69 1.31 M58.53 62.81 C73.88 43.48, 89.39 27.44, 111.67 1.67 M58.53 62.81 C74.73 44.99, 91.25 26.22, 111.67 1.67 M64.17 62.41 C83.02 41.55, 98.02 23.3, 116.66 2.03 M64.17 62.41 C77.13 47.2, 88.4 33.75, 116.66 2.03 M69.16 62.77 C82.85 45.25, 95.48 31.53, 122.3 1.64 M69.16 62.77 C80.88 48.08, 93.92 34.69, 122.3 1.64 M74.8 62.38 C93.85 42.32, 113.63 17.77, 127.29 2 M74.8 62.38 C87.66 48.1, 101.4 33.92, 127.29 2 M79.79 62.74 C99.28 40.4, 117.63 18.91, 132.93 1.61 M79.79 62.74 C97.72 41.39, 115.19 19.76, 132.93 1.61 M85.43 62.34 C100.54 46.92, 115.22 30.75, 137.92 1.97 M85.43 62.34 C103.89 39.32, 124.81 18.26, 137.92 1.97 M90.42 62.7 C112.44 39.46, 131.8 15.17, 143.56 1.57 M90.42 62.7 C109.73 40.17, 129.72 18.4, 143.56 1.57 M95.41 63.06 C107.22 47.72, 121.32 35.16, 148.55 1.93 M95.41 63.06 C115.8 39.58, 137.95 15.77, 148.55 1.93 M101.05 62.67 C109.69 48.75, 123.51 38.55, 154.19 1.54 M101.05 62.67 C113.01 48.73, 125.23 35.59, 154.19 1.54 M106.04 63.03 C122.69 43.39, 136.98 25.55, 159.18 1.9 M106.04 63.03 C125.29 41.4, 143.83 19.26, 159.18 1.9 M111.68 62.63 C127.97 43.32, 145.7 24.23, 164.17 2.26 M111.68 62.63 C125.81 47.14, 139.55 30.98, 164.17 2.26 M116.67 62.99 C136.77 40.59, 154.93 14.89, 169.81 1.86 M116.67 62.99 C127.67 49.93, 139.24 36.53, 169.81 1.86 M122.31 62.6 C136.98 45.52, 151.1 27.89, 174.8 2.22 M122.31 62.6 C141.8 39.89, 161.92 15.83, 174.8 2.22 M127.3 62.96 C139.11 48.81, 149.75 34.16, 180.44 1.83 M127.3 62.96 C138.46 49.49, 149.69 35.68, 180.44 1.83 M132.94 62.56 C151.07 45.2, 166.34 25.58, 185.43 2.19 M132.94 62.56 C150.44 42.76, 165.33 24.36, 185.43 2.19 M137.93 62.92 C152.03 47.71, 165.42 30.6, 191.07 1.79 M137.93 62.92 C154.26 45.24, 168.66 27.16, 191.07 1.79 M142.92 63.28 C154.08 50.43, 166.36 36.19, 196.06 2.15 M142.92 63.28 C162.27 40.21, 182.61 17.94, 196.06 2.15 M148.56 62.89 C166.76 42.9, 183.72 20.81, 201.7 1.76 M148.56 62.89 C163.39 44.3, 180.9 26.72, 201.7 1.76 M153.55 63.25 C164.51 48.96, 176.85 35.55, 206.69 2.12 M153.55 63.25 C168.96 45.24, 184.25 28.86, 206.69 2.12 M159.19 62.86 C177.81 40.2, 198.34 16.67, 211.67 2.48 M159.19 62.86 C179.37 42.11, 196.86 19.53, 211.67 2.48 M164.18 63.22 C184.7 38.97, 203.49 18, 217.32 2.08 M164.18 63.22 C183.32 41.52, 201.14 21.9, 217.32 2.08 M169.82 62.82 C186.03 42.11, 206.4 21.11, 220.99 3.95 M169.82 62.82 C186.68 44.17, 203.17 24, 220.99 3.95 M174.81 63.18 C193.96 42.74, 213.4 17.38, 224.01 6.58 M174.81 63.18 C187.11 48.71, 200.83 31.21, 224.01 6.58 M180.45 62.79 C193.04 48.58, 205.43 34.66, 225.06 11.47 M180.45 62.79 C194.54 46.64, 208.39 29.89, 225.06 11.47 M185.44 63.15 C198.66 51.27, 207.77 38.03, 224.8 17.86 M185.44 63.15 C199.98 46.41, 214.68 30.26, 224.8 17.86 M190.42 63.51 C199.85 53.61, 206.96 44.6, 224.54 24.26 M190.42 63.51 C202.47 48.71, 215.88 34.15, 224.54 24.26 M196.07 63.11 C203.04 55.51, 208.42 48.23, 224.28 30.66 M196.07 63.11 C204.85 51.34, 213.83 41.13, 224.28 30.66 M201.05 63.47 C211.19 54.84, 218.83 41.43, 224.67 36.3 M201.05 63.47 C205.54 57.55, 211.53 51.91, 224.67 36.3 M206.7 63.08 C215.13 53.96, 221.27 48.92, 224.41 42.7 M206.7 63.08 C211.51 57.77, 215.98 52.94, 224.41 42.7 M212.34 62.68 C217.32 57.44, 218.32 53.72, 224.15 49.1 M212.34 62.68 C215.49 59.19, 218.07 56.18, 224.15 49.1" stroke="#b2f2bb" stroke-width="0.5" fill="none"></path><path d="M15.25 0 M15.25 0 C88.74 -0.66, 166.62 -0.63, 209.75 0 M15.25 0 C67.46 -0.02, 120.67 -0.04, 209.75 0 M209.75 0 C220.94 0.97, 223.16 5.14, 225 15.25 M209.75 0 C221.55 -0.61, 224.57 2.82, 225 15.25 M225 15.25 C225.24 24.75, 223.44 34.63, 225 45.75 M225 15.25 C225.56 25.19, 225.78 36.04, 225 45.75 M225 45.75 C226.54 54.06, 218.41 61.41, 209.75 61 M225 45.75 C225.11 54.13, 219.82 60.45, 209.75 61 M209.75 61 C162.09 61.16, 116.09 59.88, 15.25 61 M209.75 61 C143.58 61.63, 78.93 62.73, 15.25 61 M15.25 61 C3.13 61.28, 1.96 55.41, 0 45.75 M15.25 61 C4.47 59.34, -0.3 56.29, 0 45.75 M0 45.75 C1.7 35.93, 1.5 28.9, 0 15.25 M0 45.75 C0.72 35.05, 0.5 24.95, 0 15.25 M0 15.25 C0.12 3.26, 3.87 -0.86, 15.25 0 M0 15.25 C-2.27 4.01, 6.79 -0.56, 15.25 0" stroke="#1e1e1e" stroke-width="1" fill="none"></path></g><g transform="translate(590.5257502964566 471.5) rotate(0 33.75996398925781 12.5)"><text x="33.75996398925781" y="0" font-family="Virgil, Segoe UI Emoji" font-size="20px" fill="#1e1e1e" text-anchor="middle" style="white-space: pre;" direction="ltr" dominant-baseline="text-before-edge">Service</text></g><g transform="translate(509.78571428571445 424.5) rotate(0 43.26995849609375 12.5)"><text x="0" y="0" font-family="Virgil, Segoe UI Emoji" font-size="20px" fill="#1e1e1e" text-anchor="start" style="white-space: pre;" direction="ltr" dominant-baseline="text-before-edge">service/*</text></g><g stroke-linecap="round" transform="translate(208.28571428571445 199) rotate(0 425.5 262.5)"><path d="M32 0 M32 0 C226.42 0.14, 421.84 -0.08, 819 0 M819 0 C841.35 0.04, 850.88 10.49, 851 32 M851 32 C849.83 137.54, 849.58 243.62, 851 493 M851 493 C852.91 513.33, 840.04 525.73, 819 525 M819 525 C585.5 527.2, 351.23 527.39, 32 525 M32 525 C9.76 526.54, 0.78 513.61, 0 493 M0 493 C-0.46 351.34, 0.01 210.07, 0 32 M0 32 C-0.55 8.73, 9.34 1.66, 32 0" stroke="#e03131" stroke-width="1.5" fill="none" stroke-dasharray="1.5 7"></path></g><g transform="translate(217.28571428571445 170) rotate(0 28.889968872070312 12.5)"><text x="0" y="0" font-family="Virgil, Segoe UI Emoji" font-size="20px" fill="#e03131" text-anchor="start" style="white-space: pre;" direction="ltr" dominant-baseline="text-before-edge">app.py</text></g><g stroke-linecap="round" transform="translate(512.7857142857144 616.5) rotate(0 112.5 30.5)"><path d="M4.06 3.53 C4.06 3.53, 4.06 3.53, 4.06 3.53 M4.06 3.53 C4.06 3.53, 4.06 3.53, 4.06 3.53 M1.17 12.95 C5.31 8.71, 8.1 5.39, 10.36 2.38 M1.17 12.95 C3.78 9.08, 6.57 7.05, 10.36 2.38 M1.57 18.59 C5.96 15.16, 11.15 8.3, 16.66 1.23 M1.57 18.59 C7.74 11.41, 13.87 6.24, 16.66 1.23 M1.31 24.99 C9.37 17.06, 14.85 9.68, 21.64 1.59 M1.31 24.99 C8.3 15.4, 16.24 8.12, 21.64 1.59 M1.7 30.63 C7.99 23.27, 16 16.55, 27.29 1.2 M1.7 30.63 C7.84 23.74, 12.19 17.71, 27.29 1.2 M1.44 37.03 C11.59 25.63, 19.14 17.19, 32.27 1.56 M1.44 37.03 C12.79 24.2, 22.66 13.14, 32.27 1.56 M1.18 43.42 C12.06 31.74, 25.7 15.93, 37.92 1.16 M1.18 43.42 C15.58 27.33, 28.54 11.35, 37.92 1.16 M0.92 49.82 C14.58 32.39, 26.21 18.23, 42.9 1.52 M0.92 49.82 C17.55 31.2, 33.05 13.01, 42.9 1.52 M2.62 53.96 C16.61 40.31, 27.84 21.34, 48.55 1.13 M2.62 53.96 C17.19 39.03, 28.99 23.03, 48.55 1.13 M4.99 57.34 C24.26 34.63, 42.26 13.55, 53.53 1.49 M4.99 57.34 C15.98 46.41, 25.31 33.45, 53.53 1.49 M8.01 59.96 C19.79 45.44, 33.24 32.09, 59.18 1.09 M8.01 59.96 C22.07 44.37, 35.38 30.78, 59.18 1.09 M11.02 62.58 C28.6 42.3, 49.05 19.71, 64.16 1.45 M11.02 62.58 C28.97 39.42, 48.69 18.3, 64.16 1.45 M16.67 62.19 C36.26 37.69, 56.13 16.71, 69.15 1.81 M16.67 62.19 C26.47 49.25, 38.8 38.19, 69.15 1.81 M21.65 62.55 C42.95 37.26, 62.76 16.14, 74.79 1.42 M21.65 62.55 C34.75 48.56, 46.26 33.61, 74.79 1.42 M27.3 62.15 C47.24 37.16, 68.54 14.73, 79.78 1.78 M27.3 62.15 C44.92 41.01, 60.71 22.3, 79.78 1.78 M32.28 62.51 C51.24 40.27, 69.53 21.75, 85.43 1.38 M32.28 62.51 C44.81 46.58, 57.85 32.72, 85.43 1.38 M37.93 62.12 C52.83 43.96, 67.46 28.49, 90.41 1.74 M37.93 62.12 C53.38 44.16, 67.7 27.98, 90.41 1.74 M42.91 62.48 C62.35 38.53, 84.44 15.74, 96.06 1.35 M42.91 62.48 C60.72 41.81, 77.64 22.05, 96.06 1.35 M47.9 62.84 C61.59 46.45, 78.63 26.84, 101.04 1.71 M47.9 62.84 C65.43 41.18, 85.16 19.74, 101.04 1.71 M53.54 62.45 C72.15 40.78, 95.46 15.42, 106.69 1.31 M53.54 62.45 C74.54 38.57, 94.78 13.85, 106.69 1.31 M58.53 62.81 C69.25 47.16, 83.15 31.83, 111.67 1.67 M58.53 62.81 C74.24 45.97, 89.63 26.4, 111.67 1.67 M64.17 62.41 C79.86 46.96, 92.85 29.57, 116.66 2.03 M64.17 62.41 C80.21 44.57, 94.63 27.88, 116.66 2.03 M69.16 62.77 C90.89 41.53, 109.07 15.58, 122.3 1.64 M69.16 62.77 C86.52 43.99, 102.81 23.02, 122.3 1.64 M74.8 62.38 C91.72 42.32, 112.25 23.5, 127.29 2 M74.8 62.38 C87.25 48.49, 98.51 33.55, 127.29 2 M79.79 62.74 C94.5 45.78, 111.1 26.11, 132.93 1.61 M79.79 62.74 C94.88 46.27, 110.66 28.65, 132.93 1.61 M85.43 62.34 C97.94 46.16, 116.05 29.86, 137.92 1.97 M85.43 62.34 C105.31 40.15, 123.59 18.18, 137.92 1.97 M90.42 62.7 C102.02 48.15, 115.63 32.95, 143.56 1.57 M90.42 62.7 C104.7 45.13, 120.37 27.18, 143.56 1.57 M95.41 63.06 C115.43 41.05, 133.92 19.99, 148.55 1.93 M95.41 63.06 C107.2 50.88, 117.64 36.2, 148.55 1.93 M101.05 62.67 C114.28 46.59, 127.14 33.74, 154.19 1.54 M101.05 62.67 C118.23 42.56, 135.19 24.11, 154.19 1.54 M106.04 63.03 C124.24 42.4, 141.55 23.3, 159.18 1.9 M106.04 63.03 C119.5 46.9, 132.84 32.87, 159.18 1.9 M111.68 62.63 C125.1 46.06, 140.75 27.56, 164.17 2.26 M111.68 62.63 C130.82 40.45, 151.05 16.91, 164.17 2.26 M116.67 62.99 C128.27 49.22, 140.74 36.05, 169.81 1.86 M116.67 62.99 C131.46 47.71, 145.45 30.32, 169.81 1.86 M122.31 62.6 C143.2 39.62, 160.79 19.24, 174.8 2.22 M122.31 62.6 C138.55 42.42, 156.58 21.85, 174.8 2.22 M127.3 62.96 C144.83 39.51, 164.31 17.55, 180.44 1.83 M127.3 62.96 C140.66 48.11, 154.98 31.89, 180.44 1.83 M132.94 62.56 C150.29 42.47, 167.46 22.49, 185.43 2.19 M132.94 62.56 C148.79 43.47, 165.33 25.07, 185.43 2.19 M137.93 62.92 C147.2 49.76, 159.06 38.84, 191.07 1.79 M137.93 62.92 C155.81 40.77, 175.18 20.45, 191.07 1.79 M142.92 63.28 C162.01 38.58, 186.17 13.41, 196.06 2.15 M142.92 63.28 C159.51 44.35, 175.15 25.81, 196.06 2.15 M148.56 62.89 C163.26 48.18, 174.66 33.59, 201.7 1.76 M148.56 62.89 C158.85 51.19, 170.33 38.03, 201.7 1.76 M153.55 63.25 C171.38 41.56, 187.65 25, 206.69 2.12 M153.55 63.25 C170.63 43.96, 187.04 23.98, 206.69 2.12 M159.19 62.86 C175.25 43.09, 195.57 20.84, 211.67 2.48 M159.19 62.86 C173.78 46.99, 187.54 29.89, 211.67 2.48 M164.18 63.22 C182.06 43.56, 201.1 21.76, 217.32 2.08 M164.18 63.22 C178.3 49.39, 190.06 32.91, 217.32 2.08 M169.82 62.82 C190.65 38.96, 206.77 19.7, 220.99 3.95 M169.82 62.82 C186.84 42.72, 202.93 22.76, 220.99 3.95 M174.81 63.18 C183.7 50.26, 197.22 41.6, 224.01 6.58 M174.81 63.18 C186.65 50.5, 198.54 35.55, 224.01 6.58 M180.45 62.79 C191.22 52.4, 199.89 41.87, 225.06 11.47 M180.45 62.79 C195.76 47.16, 210 30.54, 225.06 11.47 M185.44 63.15 C200.22 48.21, 213.12 30.57, 224.8 17.86 M185.44 63.15 C194.72 51.05, 206.99 38.67, 224.8 17.86 M190.42 63.51 C200.55 49.52, 212.59 35.26, 224.54 24.26 M190.42 63.51 C200.61 50.82, 213.28 38.79, 224.54 24.26 M196.07 63.11 C207.05 51.94, 214.49 39.21, 224.28 30.66 M196.07 63.11 C207.33 50.29, 217.13 38.71, 224.28 30.66 M201.05 63.47 C211.34 54.88, 220.25 43.8, 224.67 36.3 M201.05 63.47 C209.78 53.65, 219.32 41.29, 224.67 36.3 M206.7 63.08 C213.24 55.9, 221.68 48.9, 224.41 42.7 M206.7 63.08 C210.96 57.81, 216.8 51.29, 224.41 42.7 M212.34 62.68 C213.49 60.05, 219.47 55.44, 224.15 49.1 M212.34 62.68 C215.53 58.83, 220.55 53.96, 224.15 49.1" stroke="#b2f2bb" stroke-width="0.5" fill="none"></path><path d="M15.25 0 M15.25 0 C62.98 -3.02, 110.46 -3.1, 209.75 0 M15.25 0 C71.61 0.69, 130.13 1.63, 209.75 0 M209.75 0 C220.48 0.39, 223.84 4.13, 225 15.25 M209.75 0 C218.66 2.15, 224.52 4.14, 225 15.25 M225 15.25 C225.4 22.34, 225.33 33.61, 225 45.75 M225 15.25 C225.73 21.81, 224.01 28.72, 225 45.75 M225 45.75 C226.39 56.06, 220.62 62.28, 209.75 61 M225 45.75 C223.93 56.99, 220.96 60.62, 209.75 61 M209.75 61 C150.62 62.18, 88.76 60.27, 15.25 61 M209.75 61 C139.8 59.8, 70.77 59.96, 15.25 61 M15.25 61 C3.34 60.21, -1.53 54.49, 0 45.75 M15.25 61 C5.12 63, 0.08 54.02, 0 45.75 M0 45.75 C-1.16 38.46, -0.51 30.2, 0 15.25 M0 45.75 C-0.18 38.3, -0.16 29.63, 0 15.25 M0 15.25 C1.82 6.46, 7.05 0.87, 15.25 0 M0 15.25 C1.35 5.06, 5.53 0.36, 15.25 0" stroke="#1e1e1e" stroke-width="1" fill="none"></path></g><g transform="translate(554.2257625034879 634.5) rotate(0 71.05995178222656 12.5)"><text x="71.05995178222656" y="0" font-family="Virgil, Segoe UI Emoji" font-size="20px" fill="#1e1e1e" text-anchor="middle" style="white-space: pre;" direction="ltr" dominant-baseline="text-before-edge">Data Adapter</text></g><g stroke-linecap="round" transform="translate(830.2857142857144 473) rotate(0 85 73)"><path d="M122.39 7.37 C132.89 10.56, 143.03 18.43, 150.36 25.78 C157.69 33.13, 163.22 42.01, 166.37 51.5 C169.52 60.99, 170.59 72.87, 169.28 82.71 C167.97 92.55, 164.35 102.17, 158.5 110.55 C152.65 118.92, 143.78 127.31, 134.17 132.98 C124.56 138.65, 112.4 142.72, 100.83 144.57 C89.27 146.43, 76.06 146.22, 64.78 144.1 C53.5 141.97, 42.12 137.77, 33.15 131.82 C24.18 125.87, 16.45 117.13, 10.93 108.4 C5.42 99.68, 1.09 89.57, 0.07 79.48 C-0.95 69.39, 0.91 57.17, 4.83 47.87 C8.75 38.57, 15.56 30.6, 23.58 23.67 C31.6 16.74, 42.47 10.14, 52.96 6.3 C63.45 2.46, 74.35 0.12, 86.53 0.62 C98.7 1.13, 119.06 7.28, 126.02 9.33 C132.98 11.39, 129.09 11.99, 128.29 12.97 M58.42 3.57 C68.66 -0.14, 82.87 0.88, 94.41 1.77 C105.94 2.66, 117.63 4.29, 127.64 8.91 C137.64 13.54, 147.62 21.13, 154.43 29.54 C161.24 37.94, 166.05 49.45, 168.51 59.34 C170.97 69.24, 171.58 79.37, 169.19 88.93 C166.8 98.48, 161.21 108.53, 154.18 116.68 C147.15 124.83, 137.37 133.05, 127.01 137.82 C116.65 142.58, 103.53 144.51, 92.01 145.28 C80.49 146.04, 68.36 145.73, 57.89 142.42 C47.41 139.12, 37.72 132.29, 29.15 125.42 C20.58 118.55, 11.46 110.09, 6.46 101.22 C1.45 92.34, -1.11 82.14, -0.87 72.18 C-0.63 62.21, 2.9 50.45, 7.91 41.44 C12.91 32.44, 20.56 24.29, 29.18 18.14 C37.79 12, 54.38 6.62, 59.59 4.59 C64.81 2.57, 60.18 4.81, 60.44 5.99" stroke="#1971c2" stroke-width="1" fill="none"></path></g><g transform="translate(861.2816745059516 508.38120497338195) rotate(0 53.89996337890625 37.5)"><text x="53.89996337890625" y="0" font-family="Virgil, Segoe UI Emoji" font-size="20px" fill="#1971c2" text-anchor="middle" style="white-space: pre;" direction="ltr" dominant-baseline="text-before-edge">Object </text><text x="53.89996337890625" y="25" font-family="Virgil, Segoe UI Emoji" font-size="20px" fill="#1971c2" text-anchor="middle" style="white-space: pre;" direction="ltr" dominant-baseline="text-before-edge">Relational </text><text x="53.89996337890625" y="50" font-family="Virgil, Segoe UI Emoji" font-size="20px" fill="#1971c2" text-anchor="middle" style="white-space: pre;" direction="ltr" dominant-baseline="text-before-edge">Mapper</text></g><g stroke-linecap="round" transform="translate(254.28571428571445 282) rotate(0 49.5 199.5)"><path d="M5.93 6.48 C5.93 6.48, 5.93 6.48, 5.93 6.48 M5.93 6.48 C5.93 6.48, 5.93 6.48, 5.93 6.48 M3.7 15.14 C8.83 9.16, 12.33 5.38, 14.86 2.31 M3.7 15.14 C6.71 11.39, 8.55 8.35, 14.86 2.31 M0.16 25.31 C4.82 16.81, 14.1 10.5, 21.15 1.16 M0.16 25.31 C6.14 16.94, 14.16 8.4, 21.15 1.16 M0.56 30.96 C9.31 19.17, 18.93 8.33, 26.14 1.52 M0.56 30.96 C8.76 21.42, 15.81 13.19, 26.14 1.52 M0.29 37.36 C11.72 24.69, 19.62 14.62, 31.78 1.13 M0.29 37.36 C11.6 23.53, 22.14 12.24, 31.78 1.13 M0.69 43 C11.79 33.32, 18.49 22.47, 36.77 1.49 M0.69 43 C9.05 33.62, 18.69 22.53, 36.77 1.49 M0.43 49.4 C12.56 32.53, 29.17 17.64, 42.41 1.1 M0.43 49.4 C14.92 33.23, 28.18 16.21, 42.41 1.1 M0.17 55.79 C19.04 35.23, 36.75 13.68, 47.4 1.46 M0.17 55.79 C13.02 41.08, 24.86 28.4, 47.4 1.46 M0.56 61.44 C11.99 48.01, 26.23 32.51, 53.04 1.06 M0.56 61.44 C17.69 41.43, 35.78 21.93, 53.04 1.06 M0.3 67.84 C12.4 54.02, 29.74 35.35, 58.03 1.42 M0.3 67.84 C15.86 49.81, 31.32 29.54, 58.03 1.42 M0.69 73.48 C24.93 45.1, 49.1 14.49, 63.67 1.03 M0.69 73.48 C14.88 56.46, 29.19 41.67, 63.67 1.03 M0.43 79.88 C25.7 50.9, 52.83 22.19, 68.66 1.39 M0.43 79.88 C14.72 64.98, 28.78 48.8, 68.66 1.39 M0.17 86.27 C26.12 58.28, 53.64 28.31, 74.96 0.24 M0.17 86.27 C26.94 55.87, 54.4 24.27, 74.96 0.24 M0.56 91.92 C21.79 66.68, 41.02 47.36, 79.29 1.35 M0.56 91.92 C21.14 67.17, 42.53 42.79, 79.29 1.35 M0.3 98.31 C17.02 74.84, 37.2 56.38, 84.28 1.71 M0.3 98.31 C29.05 65.87, 57.07 31.87, 84.28 1.71 M0.7 103.96 C18.98 81.21, 39.65 55.73, 87.95 3.58 M0.7 103.96 C25.36 75.42, 51.53 46.18, 87.95 3.58 M0.44 110.36 C31.79 72.08, 65.4 35.72, 90.97 6.21 M0.44 110.36 C18.87 88.94, 38.27 67.69, 90.97 6.21 M0.18 116.75 C34.3 75.33, 71.42 36.74, 94.65 8.08 M0.18 116.75 C21.36 92.86, 41.5 71.42, 94.65 8.08 M0.57 122.4 C23.99 91.89, 52.32 65.25, 97.01 11.45 M0.57 122.4 C29.25 90.92, 55.05 59.36, 97.01 11.45 M0.31 128.79 C20.47 102.22, 42.01 80.56, 98.72 15.59 M0.31 128.79 C33.4 89.03, 67.42 51.34, 98.72 15.59 M0.7 134.44 C29.31 102.08, 56.84 68.82, 99.77 20.48 M0.7 134.44 C31.25 99.66, 63.38 63.4, 99.77 20.48 M0.44 140.83 C22.22 116.65, 44.38 90.83, 100.16 26.12 M0.44 140.83 C34.62 102.14, 69.5 62.18, 100.16 26.12 M0.18 147.23 C32.94 112.39, 62.13 74.67, 99.9 32.52 M0.18 147.23 C29.7 110.84, 60.86 74.8, 99.9 32.52 M0.57 152.88 C28 116.93, 58.23 82.77, 100.3 38.16 M0.57 152.88 C23.01 126.37, 47.19 100.77, 100.3 38.16 M0.31 159.27 C28.75 126.78, 60.9 92.62, 100.03 44.56 M0.31 159.27 C34.1 120.02, 68.63 80.74, 100.03 44.56 M0.71 164.92 C34.53 126.31, 66.21 87.59, 99.77 50.96 M0.71 164.92 C37.03 123.83, 73.05 83.83, 99.77 50.96 M0.45 171.31 C35.48 133.97, 68.2 92.86, 100.17 56.6 M0.45 171.31 C34.22 133.05, 66.36 94.62, 100.17 56.6 M0.84 176.96 C23.64 152.36, 48.16 123.2, 99.91 63 M0.84 176.96 C28.19 146.43, 53.56 117.67, 99.91 63 M0.58 183.36 C33.7 146.43, 70.46 106.81, 100.3 68.64 M0.58 183.36 C24.29 158.13, 46.23 131.36, 100.3 68.64 M0.32 189.75 C23.29 160.2, 48.99 133.79, 100.04 75.04 M0.32 189.75 C20.53 166.25, 39.14 144.21, 100.04 75.04 M0.71 195.4 C22.8 172.11, 46.49 143.91, 99.78 81.44 M0.71 195.4 C28.89 161.67, 56.87 130.27, 99.78 81.44 M0.45 201.79 C28.75 169.4, 60.6 134.83, 100.17 87.08 M0.45 201.79 C20.82 176.56, 41.2 153.99, 100.17 87.08 M0.85 207.44 C30.05 175.97, 56.95 142.6, 99.91 93.48 M0.85 207.44 C35.81 166.24, 73.01 125.02, 99.91 93.48 M0.58 213.83 C20.74 187.19, 44.5 162.84, 100.31 99.12 M0.58 213.83 C24.22 184.73, 50.31 155.48, 100.31 99.12 M0.32 220.23 C22.83 193.99, 44.32 167.72, 100.04 105.52 M0.32 220.23 C37.46 176.32, 76.12 132.29, 100.04 105.52 M0.72 225.88 C35.9 185.16, 69.49 147.88, 100.44 111.16 M0.72 225.88 C28.83 193.94, 56.16 161.59, 100.44 111.16 M0.46 232.27 C35.61 191.04, 71.18 151.1, 100.18 117.56 M0.46 232.27 C34.69 191.78, 69.77 151.82, 100.18 117.56 M0.85 237.92 C29.34 205.76, 54.53 173.7, 99.92 123.96 M0.85 237.92 C36.65 197.11, 72.35 156.61, 99.92 123.96 M0.59 244.31 C36.69 205.68, 72.39 160.81, 100.31 129.6 M0.59 244.31 C29.18 210.78, 59.39 177.69, 100.31 129.6 M0.33 250.71 C34.45 211.37, 69.1 169.26, 100.05 136 M0.33 250.71 C34.49 212.13, 68.65 172.08, 100.05 136 M0.72 256.36 C35.41 217.42, 69.23 178.5, 100.44 141.64 M0.72 256.36 C28.74 223.92, 56.58 191.59, 100.44 141.64 M0.46 262.75 C37.8 221.05, 74.6 177.13, 100.18 148.04 M0.46 262.75 C22.15 237.68, 44.63 213.37, 100.18 148.04 M0.86 268.4 C38.76 227.32, 74.09 182.06, 99.92 154.43 M0.86 268.4 C30.49 235.85, 58.48 203.35, 99.92 154.43 M0.59 274.79 C28.24 242.16, 55.08 214.23, 100.31 160.08 M0.59 274.79 C32.16 238.13, 65.8 200.97, 100.31 160.08 M0.33 281.19 C34.8 240.4, 67.12 201.47, 100.05 166.48 M0.33 281.19 C30.84 246.03, 58.51 213.6, 100.05 166.48 M0.73 286.83 C24.33 259.39, 47.73 230.99, 100.45 172.12 M0.73 286.83 C38.45 244.55, 73.25 203.52, 100.45 172.12 M0.47 293.23 C36.2 253.44, 73.29 211.61, 100.19 178.52 M0.47 293.23 C33.87 251.85, 68.95 213.14, 100.19 178.52 M0.86 298.88 C35.96 257.54, 76.55 212.03, 99.92 184.91 M0.86 298.88 C40.42 254.81, 77.6 211.26, 99.92 184.91 M0.6 305.27 C28.52 274.66, 53.14 242.95, 100.32 190.56 M0.6 305.27 C37.12 263.95, 72.65 222.99, 100.32 190.56 M0.99 310.92 C32.37 276.2, 61.49 239.61, 100.06 196.96 M0.99 310.92 C38.76 266.27, 75.75 223.42, 100.06 196.96 M0.73 317.31 C37.79 275.22, 73.05 233.69, 100.45 202.6 M0.73 317.31 C28.02 287.33, 54.45 255.67, 100.45 202.6 M0.47 323.71 C33.44 288.47, 67.97 248.29, 100.19 209 M0.47 323.71 C34 286.03, 66.32 249.92, 100.19 209 M0.86 329.36 C35.27 292.72, 66.25 255.85, 99.93 215.39 M0.86 329.36 C30.64 297.17, 57.89 264.06, 99.93 215.39 M0.6 335.75 C22.78 309.19, 44.71 282.38, 100.32 221.04 M0.6 335.75 C33.16 298.91, 66.16 262.42, 100.32 221.04 M1 341.4 C23.27 317.34, 43.3 289.74, 100.06 227.43 M1 341.4 C30.03 308.83, 58.48 275.31, 100.06 227.43 M0.74 347.79 C33.44 311.76, 62.06 277.08, 100.46 233.08 M0.74 347.79 C23.12 320.46, 47.13 293.78, 100.46 233.08 M0.48 354.19 C30.79 317.25, 62.4 281.83, 100.2 239.48 M0.48 354.19 C38.46 308.77, 76.78 264.1, 100.2 239.48 M0.87 359.83 C34.67 320.71, 70.09 278.71, 100.59 245.12 M0.87 359.83 C27.83 328.26, 56.12 295.64, 100.59 245.12 M0.61 366.23 C25.7 336.49, 50.44 305.73, 100.33 251.52 M0.61 366.23 C33.89 326.42, 69.11 287.36, 100.33 251.52 M1 371.88 C25.93 341.68, 48.66 313.71, 100.07 257.91 M1 371.88 C22.52 348.3, 43.58 322.48, 100.07 257.91 M0.74 378.27 C35.36 339.47, 67.73 300.47, 100.46 263.56 M0.74 378.27 C39.4 335.86, 75.62 292.95, 100.46 263.56 M2.45 382.41 C38.18 337.85, 76.54 295.26, 100.2 269.96 M2.45 382.41 C40.44 340.81, 75.98 298.8, 100.2 269.96 M4.15 386.54 C43.05 344.91, 78.8 301.3, 100.6 275.6 M4.15 386.54 C38.72 346.97, 74.2 308.93, 100.6 275.6 M5.21 391.43 C30.32 364.43, 53.3 337.04, 100.33 282 M5.21 391.43 C28.69 366.54, 51.23 340.56, 100.33 282 M8.22 394.05 C36.02 364.33, 60.82 335.28, 100.07 288.39 M8.22 394.05 C29.22 370.1, 49.61 347.34, 100.07 288.39 M11.24 396.68 C29.19 375.14, 48.31 352.2, 100.47 294.04 M11.24 396.68 C30.81 373.76, 49.83 351.04, 100.47 294.04 M14.92 398.55 C36.94 374.24, 61.31 345.92, 100.21 300.43 M14.92 398.55 C43.86 364.67, 73.32 332.14, 100.21 300.43 M19.91 398.91 C48.31 365.99, 75.68 330.96, 100.6 306.08 M19.91 398.91 C43.86 368.51, 69.87 340, 100.6 306.08 M24.89 399.27 C52.23 367.9, 83.05 333.39, 100.34 312.48 M24.89 399.27 C52.33 367.03, 79.44 336.66, 100.34 312.48 M30.54 398.87 C48.75 380.23, 62.87 358.97, 100.08 318.87 M30.54 398.87 C48.73 380.43, 65.74 359.16, 100.08 318.87 M35.52 399.23 C52.07 377.42, 70.39 359.12, 100.47 324.52 M35.52 399.23 C59.44 372.66, 81.96 346.09, 100.47 324.52 M41.17 398.84 C61.85 376.46, 81.53 352.49, 100.21 330.91 M41.17 398.84 C59.8 376.37, 79.05 354.92, 100.21 330.91 M46.15 399.2 C56.58 385.79, 70.37 375.62, 100.61 336.56 M46.15 399.2 C60.2 382.31, 76.36 365.3, 100.61 336.56 M51.8 398.8 C63.07 384.1, 72.74 371.11, 100.34 342.96 M51.8 398.8 C68.87 378.62, 84.99 360.25, 100.34 342.96 M56.78 399.16 C74.72 379.03, 90.14 360.83, 100.08 349.35 M56.78 399.16 C69 385.05, 81.74 369.29, 100.08 349.35 M62.43 398.77 C73.78 384.25, 90.02 367.56, 100.48 355 M62.43 398.77 C76.02 381.95, 90.7 367.02, 100.48 355 M67.41 399.13 C75.54 389.31, 86.89 378.26, 100.22 361.39 M67.41 399.13 C77.09 386.99, 85.94 377.07, 100.22 361.39 M73.06 398.73 C79.22 388.75, 88.44 378.34, 100.61 367.04 M73.06 398.73 C80.06 390.5, 87.99 380.63, 100.61 367.04 M78.04 399.09 C85.12 392.89, 89.91 385.67, 99.04 374.94 M78.04 399.09 C84.87 390.96, 92.2 382.44, 99.04 374.94 M82.37 400.21 C88 395.62, 90.29 389.83, 97.46 382.85 M82.37 400.21 C86.37 396.95, 88.73 392.97, 97.46 382.85" stroke="#ffd8a8" stroke-width="0.5" fill="none"></path><path d="M24.75 0 M24.75 0 C38.28 1.76, 55.03 1.63, 74.25 0 M24.75 0 C43.06 -0.6, 63.46 -0.4, 74.25 0 M74.25 0 C90.91 -1.13, 99.23 8.54, 99 24.75 M74.25 0 C88.66 -1.27, 99.06 10.47, 99 24.75 M99 24.75 C96.4 161.92, 96.13 298.76, 99 374.25 M99 24.75 C101.45 148.76, 100.58 271.96, 99 374.25 M99 374.25 C98.06 391.66, 92.53 397.38, 74.25 399 M99 374.25 C97.93 392.33, 92.78 399.14, 74.25 399 M74.25 399 C61.1 397.15, 43.37 399.35, 24.75 399 M74.25 399 C57.54 399.62, 40.55 400.16, 24.75 399 M24.75 399 C7.31 399.08, 0.45 391.11, 0 374.25 M24.75 399 C10.37 400.9, -2.25 390.81, 0 374.25 M0 374.25 C1.78 258.17, 0.78 142.58, 0 24.75 M0 374.25 C1.7 273.02, 0.75 170.9, 0 24.75 M0 24.75 C-1.45 7.09, 7.27 1.57, 24.75 0 M0 24.75 C0.11 7.78, 7.87 1.99, 24.75 0" stroke="#1e1e1e" stroke-width="1" fill="none"></path></g><g transform="translate(271.36574663434726 456.5) rotate(0 32.41996765136719 25)"><text x="32.41996765136719" y="0" font-family="Virgil, Segoe UI Emoji" font-size="20px" fill="#1e1e1e" text-anchor="middle" style="white-space: pre;" direction="ltr" dominant-baseline="text-before-edge">Data </text><text x="32.41996765136719" y="25" font-family="Virgil, Segoe UI Emoji" font-size="20px" fill="#1e1e1e" text-anchor="middle" style="white-space: pre;" direction="ltr" dominant-baseline="text-before-edge">Models</text></g><g transform="translate(514.0157557896207 583.5) rotate(0 49.53996276855469 12.5)"><text x="0" y="0" font-family="Virgil, Segoe UI Emoji" font-size="20px" fill="#1e1e1e" text-anchor="start" style="white-space: pre;" direction="ltr" dominant-baseline="text-before-edge">adapter/*</text></g><g stroke-linecap="round"><g transform="translate(631.3252837795791 46.00000000000003) rotate(0 0.03625177935157353 115.52093167477287)"><path d="M-0.68 0.14 C-0.61 38.61, -0.18 192.26, -0.24 230.91 M1.17 -0.84 C1.15 37.73, -0.54 192.84, -1.1 231.88" stroke="#1e1e1e" stroke-width="1" fill="none"></path></g><g transform="translate(631.3252837795791 46.00000000000003) rotate(0 0.03625177935157353 115.52093167477287)"><path d="M9.88 28.6 C5.25 20.15, 4.55 16.19, 1.17 -1.78 M9.11 28.1 C6.3 18.24, 1.28 7.55, -0.32 -0.23" stroke="#1e1e1e" stroke-width="1" fill="none"></path></g><g transform="translate(631.3252837795791 46.00000000000003) rotate(0 0.03625177935157353 115.52093167477287)"><path d="M-10.64 28.64 C-10.18 20.3, -5.78 16.33, 1.17 -1.78 M-11.41 28.14 C-6.31 18.26, -3.41 7.56, -0.32 -0.23" stroke="#1e1e1e" stroke-width="1" fill="none"></path></g><g transform="translate(631.3252837795791 46.00000000000003) rotate(0 0.03625177935157353 115.52093167477287)"><path d="M-10.79 203.86 C-10.35 209.55, -6.02 219.61, 0.75 229.96 M-11.55 203.35 C-6.74 215.28, -3.95 226.38, -0.74 231.51" stroke="#1e1e1e" stroke-width="1" fill="none"></path></g><g transform="translate(631.3252837795791 46.00000000000003) rotate(0 0.03625177935157353 115.52093167477287)"><path d="M9.73 204.11 C5.08 209.62, 4.31 219.62, 0.75 229.96 M8.97 203.6 C5.86 215.44, 0.74 226.44, -0.74 231.51" stroke="#1e1e1e" stroke-width="1" fill="none"></path></g></g><mask></mask><g transform="translate(799.2857142857144 618) rotate(0 126.31989288330078 50)"><text x="0" y="0" font-family="Virgil, Segoe UI Emoji" font-size="20px" fill="#1971c2" text-anchor="start" style="white-space: pre;" direction="ltr" dominant-baseline="text-before-edge">ORM ei ole pakollinen, </text><text x="0" y="25" font-family="Virgil, Segoe UI Emoji" font-size="20px" fill="#1971c2" text-anchor="start" style="white-space: pre;" direction="ltr" dominant-baseline="text-before-edge">mutta on usein käytössä.</text><text x="0" y="50" font-family="Virgil, Segoe UI Emoji" font-size="20px" fill="#1971c2" text-anchor="start" style="white-space: pre;" direction="ltr" dominant-baseline="text-before-edge"></text><text x="0" y="75" font-family="Virgil, Segoe UI Emoji" font-size="20px" fill="#1971c2" text-anchor="start" style="white-space: pre;" direction="ltr" dominant-baseline="text-before-edge">Esim. SQL Alchemy.</text></g><g stroke-linecap="round"><g transform="translate(1061.2857142857144 276) rotate(0 28.006767752021574 -15.913842167705297)"><path d="M1.2 -0.81 C10.49 -6.02, 45.51 -26.29, 54.82 -31.02" stroke="#e03131" stroke-width="1.5" fill="none" stroke-dasharray="8 9"></path></g></g><mask></mask><g transform="translate(1081.2857142857144 160) rotate(0 57.609947204589844 37.5)"><text x="0" y="0" font-family="Virgil, Segoe UI Emoji" font-size="20px" fill="#e03131" text-anchor="start" style="white-space: pre;" direction="ltr" dominant-baseline="text-before-edge">FastAPI </text><text x="0" y="25" font-family="Virgil, Segoe UI Emoji" font-size="20px" fill="#e03131" text-anchor="start" style="white-space: pre;" direction="ltr" dominant-baseline="text-before-edge">applikaation</text><text x="0" y="50" font-family="Virgil, Segoe UI Emoji" font-size="20px" fill="#e03131" text-anchor="start" style="white-space: pre;" direction="ltr" dominant-baseline="text-before-edge">realm</text></g><g transform="translate(507.0157557896207 261.5) rotate(0 55.909950256347656 12.5)"><text x="0" y="0" font-family="Virgil, Segoe UI Emoji" font-size="20px" fill="#1e1e1e" text-anchor="start" style="white-space: pre;" direction="ltr" dominant-baseline="text-before-edge">controller/*</text></g><g transform="translate(789.3757640293668 443.5) rotate(0 126.369873046875 12.5)"><text x="0" y="0" font-family="Virgil, Segoe UI Emoji" font-size="20px" fill="#1971c2" text-anchor="start" style="white-space: pre;" direction="ltr" dominant-baseline="text-before-edge">from something import orm</text></g><g stroke-linecap="round"><g transform="translate(747.2857142857144 637.2853307374216) rotate(0 40.58900957452994 -34.18629635367063)"><path d="M-0.53 -0.78 C13.28 -12, 68.06 -56.24, 81.7 -67.59" stroke="#1971c2" stroke-width="1.5" fill="none" stroke-dasharray="8 9"></path></g></g><mask></mask><g stroke-linecap="round"><g transform="translate(361.28571428571445 485.79329931490963) rotate(0 70.1765805700316 -0.012531939556509997)"><path d="M-0.87 0.19 C22.66 0.01, 117.65 0.07, 141.22 -0.21" stroke="#f08c00" stroke-width="1.5" fill="none" stroke-dasharray="8 9"></path></g></g><mask></mask><g stroke-linecap="round"><g transform="translate(633.4330715862774 359) rotate(0 -0.23498998768121737 44.6522189194942)"><path d="M-1.06 -0.61 C-1.11 14.33, 0.22 74.01, 0.48 88.93 M0.59 1.69 C0.29 16.79, -0.41 75.24, -0.55 89.91" stroke="#1e1e1e" stroke-width="1" fill="none"></path></g><g transform="translate(633.4330715862774 359) rotate(0 -0.23498998768121737 44.6522189194942)"><path d="M8.65 27.14 C4.09 16.8, 0.16 6.39, -0.15 -0.49 M8.75 28.12 C6.85 21.03, 4.62 16.03, -0.39 -0.43" stroke="#1e1e1e" stroke-width="1" fill="none"></path></g><g transform="translate(633.4330715862774 359) rotate(0 -0.23498998768121737 44.6522189194942)"><path d="M-11.87 27.47 C-8.86 17.19, -5.22 6.66, -0.15 -0.49 M-11.77 28.46 C-9.45 21.11, -7.47 16.05, -0.39 -0.43" stroke="#1e1e1e" stroke-width="1" fill="none"></path></g><g transform="translate(633.4330715862774 359) rotate(0 -0.23498998768121737 44.6522189194942)"><path d="M-11.51 61.33 C-8.77 71.95, -5.08 82.32, 0.35 90.03 M-11.41 62.32 C-8.78 66.62, -6.76 73.2, 0.12 90.09" stroke="#1e1e1e" stroke-width="1" fill="none"></path></g><g transform="translate(633.4330715862774 359) rotate(0 -0.23498998768121737 44.6522189194942)"><path d="M9.01 61.56 C4.19 71.91, 0.31 82.2, 0.35 90.03 M9.11 62.55 C7.53 66.98, 5.32 73.51, 0.12 90.09" stroke="#1e1e1e" stroke-width="1" fill="none"></path></g></g><mask></mask><g stroke-linecap="round"><g transform="translate(638.2857142857144 520) rotate(0 -2.2674582510115897 46.40020942621862)"><path d="M-0.57 -0.41 C-1.49 15.08, -4.96 77.34, -5.86 92.96 M1.33 -1.67 C0.81 14.02, -2.78 78.41, -3.6 94.47" stroke="#1e1e1e" stroke-width="1" fill="none"></path></g><g transform="translate(638.2857142857144 520) rotate(0 -2.2674582510115897 46.40020942621862)"><path d="M7.39 26.88 C5.66 18.87, 3.84 12.61, -0.63 -0.9 M8.38 28.83 C5.74 23.08, 4.16 16.42, -0.05 0.17" stroke="#1e1e1e" stroke-width="1" fill="none"></path></g><g transform="translate(638.2857142857144 520) rotate(0 -2.2674582510115897 46.40020942621862)"><path d="M-13.1 25.72 C-9.29 18.12, -5.56 12.18, -0.63 -0.9 M-12.11 27.67 C-10.55 22.22, -7.91 15.81, -0.05 0.17" stroke="#1e1e1e" stroke-width="1" fill="none"></path></g><g transform="translate(638.2857142857144 520) rotate(0 -2.2674582510115897 46.40020942621862)"><path d="M-13.03 64.34 C-10.04 71.95, -7.15 81.23, -3.65 93.98 M-12.04 66.29 C-11.55 72.39, -9.55 77.53, -3.08 95.05" stroke="#1e1e1e" stroke-width="1" fill="none"></path></g><g transform="translate(638.2857142857144 520) rotate(0 -2.2674582510115897 46.40020942621862)"><path d="M7.47 65.44 C4.91 72.65, 2.25 81.63, -3.65 93.98 M8.45 67.38 C4.74 73.2, 2.53 78.11, -3.08 95.05" stroke="#1e1e1e" stroke-width="1" fill="none"></path></g></g><mask></mask><g stroke-linecap="round"><g transform="translate(364.6091337156828 322.96546177869686) rotate(0 69.74323761998554 -0.6102135205846082)"><path d="M0.46 -0.64 C23.67 -0.8, 115.89 -0.71, 139.03 -0.5" stroke="#f08c00" stroke-width="1.5" fill="none" stroke-dasharray="8 9"></path></g></g><mask></mask><g transform="translate(592.5257655552457 10) rotate(0 41.72996520996094 12.5)"><text x="0" y="0" font-family="Virgil, Segoe UI Emoji" font-size="20px" fill="#1e1e1e" text-anchor="start" style="white-space: pre;" direction="ltr" dominant-baseline="text-before-edge">Frontend</text></g><g stroke-linecap="round"><g transform="translate(636 153.28571428571456) rotate(0 49.3095035172999 -16.355716416984805)"><path d="M0.61 1.17 C16.78 -4.53, 81.8 -27.9, 98.01 -33.88" stroke="#1e1e1e" stroke-width="1.5" fill="none" stroke-dasharray="8 9"></path></g></g><mask></mask><g transform="translate(752 91.28571428571456) rotate(0 89.38993835449219 25)"><text x="0" y="0" font-family="Virgil, Segoe UI Emoji" font-size="20px" fill="#1e1e1e" text-anchor="start" style="white-space: pre;" direction="ltr" dominant-baseline="text-before-edge">Rajapinta frontin </text><text x="0" y="25" font-family="Virgil, Segoe UI Emoji" font-size="20px" fill="#1e1e1e" text-anchor="start" style="white-space: pre;" direction="ltr" dominant-baseline="text-before-edge">ja bäckin välissä</text></g><g stroke-linecap="round"><g transform="translate(598.8504963515835 847.0325109920439) rotate(0 38.7346267797148 41.5300288152398)" fill-rule="evenodd"><path d="M0.55 -1.06 L-0.85 84.38 L1.53 86.58 L19.04 91.32 L41.09 90.09 L62.67 90.24 L75.39 83.65 L75.27 -1.62 L67.02 -6.72 L38.15 -8.13 L11.6 -3.22 L2.8 -3.84 L0.49 0.51" stroke="none" stroke-width="0" fill="#ced4da" fill-rule="evenodd"></path><path d="M0.79 -0.33 C0.7 12.04, 0.22 60.93, 0.19 74.77 C0.17 88.6, 0.13 80.41, 0.61 82.69 C1.1 84.97, 0.19 87.09, 3.08 88.45 C5.98 89.8, 11.59 90.24, 17.97 90.81 C24.34 91.39, 33.87 91.87, 41.36 91.88 C48.84 91.89, 57.31 91.65, 62.86 90.86 C68.42 90.08, 72.19 88.45, 74.67 87.16 C77.14 85.87, 77.13 85.03, 77.72 83.11 C78.31 81.19, 78.45 88.31, 78.2 75.67 C77.95 63.02, 76.32 19.8, 76.22 7.22 C76.11 -5.35, 78.45 2.2, 77.58 0.22 C76.71 -1.76, 73.93 -3.58, 71.01 -4.66 C68.08 -5.75, 65.47 -5.72, 60.04 -6.29 C54.62 -6.86, 45.42 -8.12, 38.47 -8.07 C31.53 -8.03, 24.39 -6.73, 18.4 -6.02 C12.41 -5.32, 5.74 -4.9, 2.54 -3.84 C-0.67 -2.77, -0.5 -0.11, -0.81 0.37 C-1.12 0.84, 0.66 -1.06, 0.67 -0.97 M-0.26 -1.54 C-0.57 10.94, -0.86 61.91, -0.79 76.08 C-0.71 90.24, -0.44 81.72, 0.16 83.45 C0.77 85.17, 0.12 85.1, 2.86 86.41 C5.6 87.72, 10.54 90.56, 16.6 91.32 C22.67 92.09, 31.49 91.23, 39.27 91.01 C47.05 90.78, 57.58 90.59, 63.27 89.97 C68.96 89.34, 71.18 88.65, 73.39 87.27 C75.6 85.9, 76.1 83.77, 76.53 81.71 C76.95 79.64, 75.97 87.68, 75.91 74.9 C75.86 62.12, 76.06 17.5, 76.2 5.03 C76.34 -7.44, 77.63 1.27, 76.76 0.07 C75.89 -1.13, 73.36 -1.07, 70.98 -2.18 C68.59 -3.28, 68.33 -5.48, 62.46 -6.57 C56.59 -7.65, 42.91 -8.47, 35.75 -8.7 C28.59 -8.94, 24.7 -8.88, 19.5 -7.99 C14.3 -7.11, 7.6 -4.9, 4.54 -3.41 C1.49 -1.92, 1.97 0.58, 1.16 0.95 C0.34 1.31, -0.06 -1, -0.36 -1.22" stroke="#000000" stroke-width="1" fill="none"></path></g></g><mask></mask><g stroke-linecap="round"><g transform="translate(599.3744257898585 904.1587946497738) rotate(0 38.26342467358768 3.993845189431454)"><path d="M-0.06 -0.43 C0.25 0.01, 0.97 1.06, 2.64 2.34 C4.3 3.62, 6.57 6.28, 9.91 7.26 C13.25 8.24, 17.49 8.03, 22.68 8.23 C27.87 8.44, 34.56 8.54, 41.05 8.48 C47.54 8.43, 56.12 8.68, 61.62 7.92 C67.12 7.16, 71.31 5.31, 74.06 3.92 C76.8 2.53, 77.37 0.38, 78.08 -0.43 M-1.55 -1.71 C-1.42 -1.12, -0.31 2.13, 2 3.32 C4.32 4.51, 8.84 4.41, 12.34 5.44 C15.85 6.46, 18.47 8.85, 23.04 9.45 C27.6 10.05, 33.11 9.39, 39.74 9.04 C46.36 8.68, 57.01 8.33, 62.8 7.33 C68.58 6.32, 71.99 4.38, 74.45 3.03 C76.9 1.68, 77.06 -0.45, 77.53 -0.8" stroke="#000000" stroke-width="1" fill="none"></path></g></g><mask></mask><g stroke-linecap="round"><g transform="translate(598.3425684673547 875.1947393145507) rotate(0 38.890492243975984 4.196077843440264)"><path d="M0.6 -1.07 C0.8 -0.27, -0.59 3.14, 1.15 4.4 C2.88 5.66, 7.41 5.84, 11.01 6.5 C14.61 7.15, 17.89 7.9, 22.77 8.33 C27.65 8.75, 33.82 9.09, 40.29 9.02 C46.76 8.96, 55.74 8.94, 61.6 7.93 C67.46 6.93, 72.65 4.49, 75.44 3.01 C78.23 1.52, 78.14 -0.57, 78.32 -0.99 M-0.54 0.98 C0.04 1.51, 1.58 1.63, 3.39 2.79 C5.21 3.95, 7.06 6.8, 10.36 7.93 C13.65 9.07, 17.86 9.27, 23.17 9.59 C28.49 9.92, 35.64 10.23, 42.24 9.86 C48.84 9.49, 57.65 8.72, 62.76 7.35 C67.87 5.98, 70.37 3.14, 72.9 1.64 C75.42 0.14, 77.02 -1.3, 77.9 -1.64" stroke="#000000" stroke-width="1" fill="none"></path></g></g><mask></mask><g stroke-linecap="round" transform="translate(597.2846194852726 839.9002423663622) rotate(0 38.29876800932749 7.745637696424012)"><path d="M43.75 -0.62 C51.55 -0.47, 61.2 1.95, 66.56 3.21 C71.93 4.48, 75.61 5.44, 75.95 6.95 C76.29 8.46, 73.38 10.79, 68.59 12.27 C63.79 13.75, 54.99 15.46, 47.18 15.85 C39.38 16.24, 28.99 15.53, 21.75 14.61 C14.5 13.69, 7.13 11.84, 3.69 10.35 C0.25 8.86, -1.24 7.2, 1.11 5.69 C3.46 4.18, 10.05 2.1, 17.78 1.3 C25.51 0.5, 42.17 1.14, 47.49 0.9 C52.82 0.66, 50.02 -0.24, 49.72 -0.14 M28.4 -0.94 C35.52 -1.7, 46.75 -0.67, 54.08 0.42 C61.41 1.52, 69.08 4.05, 72.36 5.62 C75.64 7.2, 75.94 8.33, 73.77 9.88 C71.61 11.43, 65.78 13.81, 59.37 14.89 C52.96 15.98, 43.61 16.79, 35.31 16.39 C27.01 15.99, 15.19 13.83, 9.56 12.49 C3.93 11.16, 1.97 10.09, 1.51 8.38 C1.06 6.68, 2.38 3.54, 6.83 2.25 C11.28 0.96, 24.33 0.95, 28.21 0.62 C32.08 0.3, 29.88 0.01, 30.08 0.29" stroke="none" stroke-width="0" fill="#fff"></path><path d="M41.9 -0.35 C49.8 -0.42, 60.21 0.51, 66.09 1.87 C71.97 3.23, 76.59 5.95, 77.18 7.83 C77.77 9.71, 74.55 12, 69.64 13.15 C64.73 14.29, 55.51 14.26, 47.72 14.69 C39.92 15.11, 30.16 16.39, 22.87 15.71 C15.59 15.03, 7.71 12.41, 4.02 10.61 C0.33 8.8, -1.28 6.25, 0.75 4.88 C2.78 3.5, 8.43 3.12, 16.2 2.36 C23.97 1.6, 41.16 0.7, 47.38 0.33 C53.6 -0.05, 53.75 0.11, 53.53 0.11 M43.91 1.25 C51.61 1.49, 62.6 0.77, 67.97 1.95 C73.34 3.14, 76.11 6.49, 76.12 8.36 C76.13 10.23, 73.05 11.92, 68.03 13.18 C63.02 14.44, 54.17 15.88, 46.04 15.91 C37.92 15.94, 26.65 14.24, 19.29 13.36 C11.93 12.47, 4.87 12.12, 1.87 10.59 C-1.13 9.06, -1.38 5.82, 1.27 4.17 C3.92 2.52, 10.57 1.56, 17.77 0.69 C24.97 -0.18, 39.89 -0.94, 44.48 -1.04 C49.07 -1.13, 45.13 -0.44, 45.31 0.12" stroke="#000000" stroke-width="1" fill="none"></path></g><g stroke-linecap="round" transform="translate(633.7766065904951 864.3769100462658) rotate(0 5.613051577080853 6.091879242227776)"><path d="M7.12 0.9 C8.02 1.15, 8.86 1.14, 9.5 2.03 C10.13 2.93, 10.84 4.8, 10.92 6.26 C11 7.72, 10.62 9.83, 9.99 10.8 C9.36 11.77, 8.27 12.1, 7.14 12.1 C6.01 12.1, 4.45 11.45, 3.21 10.78 C1.97 10.11, 0.09 9.26, -0.31 8.09 C-0.72 6.92, 0.08 4.88, 0.78 3.77 C1.48 2.65, 2.76 2.04, 3.88 1.38 C5.01 0.72, 6.73 -0.23, 7.51 -0.18 C8.28 -0.13, 8.58 1.37, 8.52 1.69 M7.26 0.22 C8.25 1.05, 9.51 3.32, 9.9 4.57 C10.29 5.81, 9.88 6.48, 9.6 7.69 C9.32 8.9, 8.86 10.92, 8.23 11.82 C7.6 12.73, 7.15 13.45, 5.82 13.1 C4.49 12.76, 0.97 10.81, 0.24 9.75 C-0.5 8.68, 1.34 8.05, 1.42 6.69 C1.5 5.34, 0.35 2.65, 0.72 1.64 C1.09 0.62, 2.24 0.79, 3.64 0.59 C5.05 0.4, 8.48 0.21, 9.15 0.45 C9.82 0.68, 7.92 1.9, 7.65 1.99" stroke="none" stroke-width="0" fill="#868e96"></path><path d="M7.03 -0.35 C8.25 -0.08, 9.76 1.52, 10.46 2.71 C11.15 3.89, 11.33 5.66, 11.19 6.75 C11.04 7.84, 10.19 8.2, 9.59 9.23 C9 10.27, 8.64 12.66, 7.62 12.97 C6.6 13.28, 4.77 12, 3.48 11.1 C2.19 10.2, 0.44 8.57, -0.12 7.59 C-0.68 6.62, -0.31 6.34, 0.12 5.25 C0.55 4.16, 1.15 2.01, 2.45 1.07 C3.76 0.14, 7.09 -0.21, 7.94 -0.37 C8.8 -0.53, 7.65 -0.18, 7.57 0.11 M3.83 -0.31 C4.92 -0.95, 5.63 0.31, 6.77 0.9 C7.9 1.49, 9.73 2.16, 10.63 3.24 C11.52 4.31, 12.34 6.33, 12.15 7.37 C11.96 8.4, 10.59 8.6, 9.47 9.43 C8.36 10.26, 6.8 12.25, 5.43 12.34 C4.06 12.44, 2.34 10.89, 1.25 10.02 C0.16 9.14, -0.96 8.41, -1.12 7.11 C-1.28 5.8, -0.59 3.31, 0.27 2.18 C1.13 1.06, 3.27 0.36, 4.03 0.34 C4.78 0.32, 4.93 2.02, 4.8 2.06" stroke="#000000" stroke-width="1" fill="none"></path></g><g stroke-linecap="round" transform="translate(634.1277483744287 890.593524333331) rotate(0 5.613051577080853 6.091879242227776)"><path d="M3.16 -0.04 C4.12 -0.67, 6.02 -0.37, 7.29 0.25 C8.56 0.87, 10 2.51, 10.77 3.66 C11.55 4.82, 12.12 6.06, 11.96 7.18 C11.8 8.3, 10.98 9.51, 9.82 10.38 C8.66 11.25, 6.24 12.33, 4.99 12.39 C3.73 12.46, 2.98 11.53, 2.3 10.76 C1.61 10, 1.21 9.2, 0.9 7.8 C0.59 6.39, -0.24 3.51, 0.45 2.31 C1.14 1.11, 4.09 0.8, 5.04 0.58 C5.99 0.35, 5.97 0.98, 6.15 0.96 M2.67 1.57 C3.57 1.08, 4.67 0.01, 5.84 0.34 C7.01 0.68, 8.69 2.32, 9.69 3.57 C10.69 4.81, 12.12 6.75, 11.83 7.8 C11.55 8.85, 8.74 9.15, 7.98 9.88 C7.22 10.61, 8.28 12.19, 7.27 12.2 C6.27 12.21, 3.21 10.67, 1.94 9.94 C0.67 9.21, -0.32 8.93, -0.34 7.81 C-0.36 6.69, 1.24 4.2, 1.83 3.2 C2.41 2.2, 2.95 2.26, 3.19 1.8 C3.43 1.35, 3.08 0.83, 3.28 0.45" stroke="none" stroke-width="0" fill="#868e96"></path><path d="M5.28 0.86 C6.26 0.78, 7.46 1.31, 8.31 1.73 C9.16 2.15, 9.8 2.16, 10.36 3.38 C10.93 4.6, 11.92 7.78, 11.68 9.03 C11.44 10.29, 10.18 10.54, 8.93 10.91 C7.67 11.28, 5.45 11.22, 4.17 11.24 C2.88 11.27, 1.95 11.86, 1.24 11.04 C0.52 10.21, -0.24 7.86, -0.12 6.29 C0 4.71, 1.09 2.77, 1.96 1.61 C2.82 0.46, 4.24 -0.5, 5.07 -0.64 C5.9 -0.78, 6.98 0.67, 6.93 0.78 M7.21 1.07 C8.28 1.67, 10.06 2.54, 10.87 3.68 C11.68 4.81, 12.36 6.85, 12.07 7.87 C11.78 8.88, 10.3 9.02, 9.12 9.76 C7.93 10.51, 6.34 12.36, 4.96 12.35 C3.59 12.34, 1.92 10.65, 0.89 9.69 C-0.14 8.74, -1.14 7.93, -1.21 6.61 C-1.27 5.28, -0.45 2.81, 0.5 1.74 C1.45 0.67, 3.05 0.14, 4.47 0.16 C5.89 0.19, 8.57 1.91, 9.03 1.89 C9.5 1.88, 7.47 0.16, 7.27 0.08" stroke="#000000" stroke-width="1" fill="none"></path></g><g stroke-linecap="round" transform="translate(634.7766065904951 919.3622509046373) rotate(357.5021844865888 5.613051577080853 6.091879242227776)"><path d="M7.37 0.28 C8.6 0.82, 10.05 2.58, 10.81 3.74 C11.58 4.91, 12.12 6.15, 11.95 7.27 C11.77 8.38, 10.93 9.58, 9.76 10.44 C8.58 11.29, 6.16 12.35, 4.91 12.39 C3.65 12.43, 2.9 11.48, 2.23 10.7 C1.56 9.92, 1.18 9.12, 0.89 7.71 C0.6 6.29, 0.03 3.37, 0.49 2.23 C0.96 1.09, 2.46 1, 3.67 0.88 C4.89 0.75, 6.78 1.44, 7.78 1.46 C8.78 1.49, 9.75 1.15, 9.66 1.04 M3.56 0.11 C4.71 -0.16, 6.74 0.92, 8.09 1.79 C9.43 2.66, 11.45 4.31, 11.65 5.32 C11.86 6.33, 9.67 6.81, 9.31 7.85 C8.95 8.9, 10.38 11.05, 9.49 11.58 C8.61 12.1, 5.49 11.26, 4.01 11.01 C2.53 10.76, 1.08 10.97, 0.61 10.07 C0.15 9.17, 1.1 6.74, 1.21 5.59 C1.33 4.45, 0.71 4.16, 1.3 3.21 C1.9 2.26, 4.05 0.66, 4.79 -0.1 C5.53 -0.85, 5.73 -1.53, 5.73 -1.31" stroke="none" stroke-width="0" fill="#868e96"></path><path d="M4.47 1.08 C5.37 0.54, 6.61 -0.42, 7.8 0.2 C8.99 0.82, 11.01 3.57, 11.6 4.81 C12.19 6.04, 11.97 6.68, 11.37 7.62 C10.77 8.55, 9.11 9.52, 7.98 10.43 C6.86 11.34, 5.76 13.11, 4.65 13.08 C3.53 13.04, 1.95 11.47, 1.29 10.23 C0.63 8.98, 0.79 7.04, 0.7 5.61 C0.6 4.18, -0.15 2.49, 0.71 1.65 C1.57 0.81, 5.02 0.91, 5.84 0.56 C6.67 0.22, 5.61 -0.46, 5.69 -0.41 M4.45 0.69 C5.78 0.27, 7.89 0.82, 8.93 1.1 C9.97 1.39, 10.45 1.27, 10.72 2.39 C10.99 3.51, 11.03 6.53, 10.56 7.82 C10.08 9.11, 8.97 9.46, 7.86 10.12 C6.74 10.79, 4.97 11.94, 3.88 11.8 C2.79 11.65, 1.86 10.15, 1.32 9.26 C0.78 8.38, 0.47 7.36, 0.64 6.5 C0.81 5.63, 1.83 5.2, 2.35 4.08 C2.87 2.95, 3.41 0.31, 3.77 -0.25 C4.13 -0.81, 4.34 0.34, 4.54 0.71" stroke="#000000" stroke-width="1" fill="none"></path></g><g transform="translate(588.5906677246094 940.9523925034802) rotate(0 48.409332275390625 11.79758053595242)"><text x="48.409332275390625" y="0" font-family="Virgil, Segoe UI Emoji" font-size="17.4778970902999px" fill="#000000" text-anchor="middle" style="white-space: pre;" direction="ltr" dominant-baseline="text-before-edge">Tietokanta</text></g><g stroke-linecap="round"><g transform="translate(634.553508455646 683.2857142857146) rotate(0 0.932774599670438 75.59603698825441)"><path d="M-0.43 -0.08 C-0.16 24.95, 1.74 125.59, 2.3 150.88 M1.54 -1.17 C1.61 24, 1.3 127.22, 1.47 152.37" stroke="#1e1e1e" stroke-width="1" fill="none"></path></g><g transform="translate(634.553508455646 683.2857142857146) rotate(0 0.932774599670438 75.59603698825441)"><path d="M10.18 28.3 C6.15 19.28, 3.62 5.97, -1.8 -1.22 M11.02 28.4 C8.48 21.85, 6.96 17.35, 0.35 -0.9" stroke="#1e1e1e" stroke-width="1" fill="none"></path></g><g transform="translate(634.553508455646 683.2857142857146) rotate(0 0.932774599670438 75.59603698825441)"><path d="M-10.34 28.66 C-7.05 19.58, -2.27 6.15, -1.8 -1.22 M-9.5 28.76 C-7.83 22.11, -5.15 17.54, 0.35 -0.9" stroke="#1e1e1e" stroke-width="1" fill="none"></path></g><g transform="translate(634.553508455646 683.2857142857146) rotate(0 0.932774599670438 75.59603698825441)"><path d="M-8.96 124.56 C-5.17 135.65, -0.2 142.37, 0.11 151.23 M-8.12 124.66 C-6.68 129.6, -3.88 136.62, 2.25 151.55" stroke="#1e1e1e" stroke-width="1" fill="none"></path></g><g transform="translate(634.553508455646 683.2857142857146) rotate(0 0.932774599670438 75.59603698825441)"><path d="M11.56 124.54 C8.03 135.56, 5.69 142.29, 0.11 151.23 M12.4 124.64 C9.64 129.61, 8.23 136.63, 2.25 151.55" stroke="#1e1e1e" stroke-width="1" fill="none"></path></g></g><mask></mask><g transform="translate(723.6100616455078 787.2857142857146) rotate(0 110.919921875 25)"><text x="0" y="0" font-family="Virgil, Segoe UI Emoji" font-size="20px" fill="#1e1e1e" text-anchor="start" style="white-space: pre;" direction="ltr" dominant-baseline="text-before-edge">Rajapinta bäckin</text><text x="0" y="25" font-family="Virgil, Segoe UI Emoji" font-size="20px" fill="#1e1e1e" text-anchor="start" style="white-space: pre;" direction="ltr" dominant-baseline="text-before-edge">ja tietokannan välissä</text></g><g stroke-linecap="round"><g transform="translate(641.6904964827002 767.6414307026994) rotate(0 34.67678392156955 14.236678085476171)"><path d="M0.6 0.58 C12.17 5.22, 57.41 23.35, 68.75 27.9" stroke="#1e1e1e" stroke-width="1.5" fill="none" stroke-dasharray="8 9"></path></g></g><mask></mask><g transform="translate(262.09004974365234 257.78571428571456) rotate(0 41.249961853027344 12.5)"><text x="0" y="0" font-family="Virgil, Segoe UI Emoji" font-size="20px" fill="#1e1e1e" text-anchor="start" style="white-space: pre;" direction="ltr" dominant-baseline="text-before-edge">models/*</text></g><g transform="translate(10 404.28571428571456) rotate(0 88.45991516113281 37.5)"><text x="0" y="0" font-family="Virgil, Segoe UI Emoji" font-size="20px" fill="#6741d9" text-anchor="start" style="white-space: pre;" direction="ltr" dominant-baseline="text-before-edge">Looginen business </text><text x="0" y="25" font-family="Virgil, Segoe UI Emoji" font-size="20px" fill="#6741d9" text-anchor="start" style="white-space: pre;" direction="ltr" dominant-baseline="text-before-edge">domain tietomalli</text><text x="0" y="50" font-family="Virgil, Segoe UI Emoji" font-size="20px" fill="#6741d9" text-anchor="start" style="white-space: pre;" direction="ltr" dominant-baseline="text-before-edge">määrittelee</text></g><g stroke-linecap="round"><g transform="translate(135.6904964827001 466.6414307026994) rotate(0 57.92407709136606 32.82527733072638)"><path d="M-0.16 -1.04 C19.32 9.94, 96.73 55.49, 116.01 66.69" stroke="#6741d9" stroke-width="1.5" fill="none" stroke-dasharray="8 9"></path></g></g><mask></mask><g stroke-linecap="round"><g transform="translate(367.33107147907253 647.6642186689874) rotate(0 67.52252239583251 0.5122818246393877)"><path d="M0.12 -0.6 C22.44 -0.4, 112.75 1.09, 134.92 1.63" stroke="#f08c00" stroke-width="1.5" fill="none" stroke-dasharray="8 9"></path></g></g><mask></mask></svg>