<?xml version="1.0" encoding="UTF-8" standalone="no"?>
<!DOCTYPE svg PUBLIC "-//W3C//DTD SVG 1.1//EN" "http://www.w3.org/Graphics/SVG/1.1/DTD/svg11.dtd">
<svg width="100%" height="100%" viewBox="0 0 800 600" version="1.1" xmlns="http://www.w3.org/2000/svg" xmlns:xlink="http://www.w3.org/1999/xlink" xml:space="preserve" xmlns:serif="http://www.serif.com/" style="fill-rule:evenodd;clip-rule:evenodd;stroke-linejoin:round;stroke-miterlimit:1.5;">
    <rect x="0" y="0" width="800" height="600" style="fill:rgb(243,243,243);"/>
    <rect x="69" y="81" width="121.7" height="308" style="fill:white;stroke:black;stroke-width:1px;"/>
    <g transform="matrix(1,0,0,1,-1,0)">
        <rect x="253" y="205" width="117" height="184" style="fill:white;stroke:black;stroke-width:1px;"/>
    </g>
    <g transform="matrix(1,0,0,1,178.5,0)">
        <rect x="253" y="205" width="117" height="184" style="fill:white;stroke:black;stroke-width:1px;"/>
    </g>
    <g transform="matrix(1,0,0,1,540.15,0)">
        <rect x="69" y="81" width="121.7" height="308" style="fill:white;stroke:black;stroke-width:1px;"/>
    </g>
    <g id="Kaapeli">
        <path d="M275.494,270.25L281.119,259L286.744,270.25L275.494,270.25Z" style="fill:rgb(255,125,36);"/>
        <path d="M100.281,139L100.281,418L281.119,418L281.119,268" style="fill:none;stroke:rgb(255,125,36);stroke-width:5px;"/>
        <path d="M460.375,270.25L466,259L471.625,270.25L460.375,270.25Z" style="fill:rgb(255,125,36);"/>
        <path d="M340,259L340,534L466,534L466,268" style="fill:none;stroke:rgb(255,125,36);stroke-width:5px;"/>
        <path d="M692.254,150.25L697.879,139L703.504,150.25L692.254,150.25Z" style="fill:rgb(255,125,36);"/>
        <path d="M516,259L516,418L697.879,418L697.879,148" style="fill:none;stroke:rgb(255,125,36);stroke-width:5px;"/>
    </g>
    <g id="LeftComp">
        <g transform="matrix(1.06383,0,0,1.02273,39.5745,-11.3409)">
            <rect x="38" y="103" width="94" height="44" style="fill:rgb(255,221,157);stroke:black;stroke-width:0.96px;"/>
        </g>
        <g transform="matrix(1,0,0,1,49.6797,-8)">
            <text x="54px" y="127px" style="font-family:'ArialMT', 'Arial', sans-serif;font-size:12px;">Application</text>
        </g>
        <g transform="matrix(1.06383,0,0,1.02273,39.5745,48.6591)">
            <rect x="38" y="103" width="94" height="44" style="fill:rgb(255,207,157);stroke:black;stroke-width:0.96px;"/>
        </g>
        <g transform="matrix(1,0,0,1,49.3809,52.6025)">
            <text x="54px" y="127px" style="font-family:'ArialMT', 'Arial', sans-serif;font-size:12px;">T<tspan x="60.885px 64.881px " y="127px 127px ">ra</tspan>nsport</text>
        </g>
        <g transform="matrix(1.06383,0,0,1.02273,39.5745,108.659)">
            <rect x="38" y="103" width="94" height="44" style="fill:rgb(255,181,157);stroke:black;stroke-width:0.96px;"/>
        </g>
        <g transform="matrix(1,0,0,1,54.0684,112)">
            <text x="54px" y="127px" style="font-family:'ArialMT', 'Arial', sans-serif;font-size:12px;">Internet</text>
        </g>
        <g transform="matrix(1.06383,0,0,1.02273,39.5745,168.659)">
            <rect x="38" y="103" width="94" height="44" style="fill:rgb(255,160,157);stroke:black;stroke-width:0.96px;"/>
        </g>
        <g transform="matrix(1,0,0,1,54.2734,172)">
            <text x="54px" y="127px" style="font-family:'ArialMT', 'Arial', sans-serif;font-size:12px;">Network</text>
        </g>
        <g transform="matrix(1.06383,0,0,1.02273,39.5745,228.659)">
            <rect x="38" y="103" width="94" height="44" style="fill:rgb(198,168,174);stroke:black;stroke-width:0.96px;"/>
        </g>
        <g transform="matrix(1,0,0,1,54.3965,232)">
            <text x="54px" y="127px" style="font-family:'ArialMT', 'Arial', sans-serif;font-size:12px;">Physical</text>
        </g>
    </g>
    <g id="LeftRouter">
        <g transform="matrix(1.06383,0,0,1.02273,219.574,228.659)">
            <rect x="38" y="103" width="94" height="44" style="fill:rgb(198,168,174);stroke:black;stroke-width:0.96px;"/>
        </g>
        <g transform="matrix(1,0,0,1,233.617,232.532)">
            <text x="54px" y="127px" style="font-family:'ArialMT', 'Arial', sans-serif;font-size:12px;">Physical</text>
        </g>
        <g transform="matrix(1.06383,0,0,1.02273,219.574,168.659)">
            <rect x="38" y="103" width="94" height="44" style="fill:rgb(255,160,157);stroke:black;stroke-width:0.96px;"/>
        </g>
        <g transform="matrix(1,0,0,1,233.494,172)">
            <text x="54px" y="127px" style="font-family:'ArialMT', 'Arial', sans-serif;font-size:12px;">Network</text>
        </g>
        <g transform="matrix(1.06383,0,0,1.02273,219.574,108.659)">
            <rect x="38" y="103" width="94" height="44" style="fill:rgb(255,181,157);stroke:black;stroke-width:0.96px;"/>
        </g>
        <g transform="matrix(1,0,0,1,235.138,112)">
            <text x="54px" y="127px" style="font-family:'ArialMT', 'Arial', sans-serif;font-size:12px;">Internet</text>
        </g>
    </g>
    <g id="RightRouter">
        <g transform="matrix(1.06383,0,0,1.02273,399.574,228.659)">
            <rect x="38" y="103" width="94" height="44" style="fill:rgb(198,168,174);stroke:black;stroke-width:0.96px;"/>
        </g>
        <g transform="matrix(1,0,0,1,413.617,232.532)">
            <text x="54px" y="127px" style="font-family:'ArialMT', 'Arial', sans-serif;font-size:12px;">Physical</text>
        </g>
        <g transform="matrix(1.06383,0,0,1.02273,399.574,168.659)">
            <rect x="38" y="103" width="94" height="44" style="fill:rgb(255,160,157);stroke:black;stroke-width:0.96px;"/>
        </g>
        <g transform="matrix(1,0,0,1,413.562,172)">
            <text x="54px" y="127px" style="font-family:'ArialMT', 'Arial', sans-serif;font-size:12px;">Network</text>
        </g>
        <g transform="matrix(1.06383,0,0,1.02273,399.574,108.659)">
            <rect x="38" y="103" width="94" height="44" style="fill:rgb(255,181,157);stroke:black;stroke-width:0.96px;"/>
        </g>
        <g transform="matrix(1,0,0,1,413.424,112)">
            <text x="54px" y="127px" style="font-family:'ArialMT', 'Arial', sans-serif;font-size:12px;">Internet</text>
        </g>
    </g>
    <g id="RightComp">
        <g transform="matrix(1.06383,0,0,1.02273,579.574,228.659)">
            <rect x="38" y="103" width="94" height="44" style="fill:rgb(198,168,174);stroke:black;stroke-width:0.96px;"/>
        </g>
        <g transform="matrix(1,0,0,1,593.617,232)">
            <text x="54px" y="127px" style="font-family:'ArialMT', 'Arial', sans-serif;font-size:12px;">Physical</text>
        </g>
        <g transform="matrix(1.06383,0,0,1.02273,579.574,168.659)">
            <rect x="38" y="103" width="94" height="44" style="fill:rgb(255,160,157);stroke:black;stroke-width:0.96px;"/>
        </g>
        <g transform="matrix(1,0,0,1,593.916,172)">
            <text x="54px" y="127px" style="font-family:'ArialMT', 'Arial', sans-serif;font-size:12px;">Network</text>
        </g>
        <g transform="matrix(1.06383,0,0,1.02273,579.574,108.659)">
            <rect x="38" y="103" width="94" height="44" style="fill:rgb(255,181,157);stroke:black;stroke-width:0.96px;"/>
        </g>
        <g transform="matrix(1,0,0,1,596.711,112)">
            <text x="54px" y="127px" style="font-family:'ArialMT', 'Arial', sans-serif;font-size:12px;">Internet</text>
        </g>
        <g transform="matrix(1.06383,0,0,1.02273,579.574,48.6591)">
            <rect x="38" y="103" width="94" height="44" style="fill:rgb(255,207,157);stroke:black;stroke-width:0.96px;"/>
        </g>
        <g transform="matrix(1,0,0,1,593.061,52.6025)">
            <text x="54px" y="127px" style="font-family:'ArialMT', 'Arial', sans-serif;font-size:12px;">T<tspan x="60.885px 64.881px " y="127px 127px ">ra</tspan>nsport</text>
        </g>
        <g transform="matrix(1.06383,0,0,1.02273,579.574,-11.3409)">
            <rect x="38" y="103" width="94" height="44" style="fill:rgb(255,221,157);stroke:black;stroke-width:0.96px;"/>
        </g>
        <g transform="matrix(1,0,0,1,588.68,-8)">
            <text x="54px" y="127px" style="font-family:'ArialMT', 'Arial', sans-serif;font-size:12px;">Application</text>
        </g>
    </g>
    <g transform="matrix(1,0,0,1,-1.33594,-41.5771)">
        <text x="360px" y="568px" style="font-family:'ArialMT', 'Arial', sans-serif;font-size:18px;">Merikaapeli</text>
    </g>
    <g transform="matrix(1,0,0,1,-213.909,-159.053)">
        <text x="360px" y="568px" style="font-family:'ArialMT', 'Arial', sans-serif;font-size:18px;">Parikaapeli</text>
    </g>
    <g transform="matrix(1,0,0,1,204.541,-159.053)">
        <text x="360px" y="568px" style="font-family:'ArialMT', 'Arial', sans-serif;font-size:18px;">Parikaapeli</text>
    </g>
    <g transform="matrix(1,0,0,1,-6.13477,-42.3906)">
        <g transform="matrix(12,0,0,12,294.029,131)">
            <path d="M0.457,-0.464C0.467,-0.464 0.473,-0.462 0.477,-0.458C0.481,-0.453 0.482,-0.447 0.482,-0.438L0.482,-0.012C0.482,-0.01 0.482,-0.007 0.48,-0.006C0.479,-0.004 0.477,-0.002 0.474,-0.001C0.471,0 0.467,0.001 0.461,0.002C0.456,0.003 0.45,0.003 0.442,0.003C0.434,0.003 0.428,0.003 0.422,0.002C0.417,0.001 0.413,0 0.41,-0.001C0.407,-0.002 0.405,-0.004 0.403,-0.006C0.402,-0.007 0.401,-0.01 0.401,-0.012L0.401,-0.397L0.174,-0.397L0.174,-0.152C0.174,-0.122 0.179,-0.099 0.188,-0.084C0.197,-0.068 0.213,-0.061 0.236,-0.061C0.243,-0.061 0.25,-0.061 0.256,-0.063C0.262,-0.064 0.267,-0.066 0.271,-0.067C0.276,-0.069 0.28,-0.071 0.283,-0.072C0.286,-0.073 0.289,-0.074 0.292,-0.074C0.294,-0.074 0.295,-0.074 0.297,-0.073C0.298,-0.072 0.299,-0.071 0.3,-0.068C0.301,-0.066 0.302,-0.063 0.302,-0.059C0.303,-0.055 0.303,-0.05 0.303,-0.044C0.303,-0.035 0.303,-0.028 0.301,-0.022C0.3,-0.017 0.298,-0.013 0.295,-0.01C0.293,-0.007 0.289,-0.005 0.284,-0.002C0.278,-0 0.273,0.002 0.266,0.003C0.259,0.005 0.252,0.006 0.245,0.007C0.237,0.008 0.23,0.008 0.222,0.008C0.199,0.008 0.18,0.005 0.164,-0.001C0.147,-0.007 0.134,-0.016 0.124,-0.028C0.113,-0.04 0.106,-0.056 0.101,-0.074C0.096,-0.093 0.094,-0.115 0.094,-0.141L0.094,-0.397L0.032,-0.397C0.027,-0.397 0.023,-0.4 0.021,-0.405C0.018,-0.41 0.016,-0.419 0.016,-0.431C0.016,-0.437 0.017,-0.442 0.017,-0.446C0.018,-0.451 0.019,-0.454 0.021,-0.457C0.022,-0.46 0.024,-0.462 0.026,-0.463C0.028,-0.464 0.03,-0.464 0.033,-0.464L0.094,-0.464L0.094,-0.569C0.094,-0.571 0.094,-0.573 0.095,-0.575C0.097,-0.577 0.099,-0.579 0.102,-0.58C0.105,-0.582 0.109,-0.583 0.114,-0.583C0.119,-0.584 0.126,-0.584 0.134,-0.584C0.142,-0.584 0.149,-0.584 0.154,-0.583C0.159,-0.583 0.163,-0.582 0.166,-0.58C0.169,-0.579 0.171,-0.577 0.172,-0.575C0.174,-0.573 0.174,-0.571 0.174,-0.569L0.174,-0.464L0.457,-0.464ZM0.492,-0.6C0.492,-0.581 0.488,-0.568 0.481,-0.562C0.474,-0.555 0.461,-0.551 0.441,-0.551C0.423,-0.551 0.41,-0.555 0.403,-0.561C0.396,-0.568 0.392,-0.581 0.392,-0.599C0.392,-0.618 0.396,-0.631 0.403,-0.638C0.41,-0.645 0.423,-0.648 0.442,-0.648C0.461,-0.648 0.474,-0.645 0.481,-0.638C0.488,-0.631 0.492,-0.619 0.492,-0.6Z" style="fill-rule:nonzero;"/>
        </g>
        <g transform="matrix(12,0,0,12,300.715,131)">
            <path d="M0.457,-0.464C0.467,-0.464 0.473,-0.462 0.477,-0.458C0.481,-0.453 0.482,-0.447 0.482,-0.438L0.482,-0.012C0.482,-0.01 0.482,-0.007 0.48,-0.006C0.479,-0.004 0.477,-0.002 0.474,-0.001C0.471,0 0.467,0.001 0.461,0.002C0.456,0.003 0.45,0.003 0.442,0.003C0.434,0.003 0.428,0.003 0.422,0.002C0.417,0.001 0.413,0 0.41,-0.001C0.407,-0.002 0.405,-0.004 0.403,-0.006C0.402,-0.007 0.401,-0.01 0.401,-0.012L0.401,-0.397L0.174,-0.397L0.174,-0.152C0.174,-0.122 0.179,-0.099 0.188,-0.084C0.197,-0.068 0.213,-0.061 0.236,-0.061C0.243,-0.061 0.25,-0.061 0.256,-0.063C0.262,-0.064 0.267,-0.066 0.271,-0.067C0.276,-0.069 0.28,-0.071 0.283,-0.072C0.286,-0.073 0.289,-0.074 0.292,-0.074C0.294,-0.074 0.295,-0.074 0.297,-0.073C0.298,-0.072 0.299,-0.071 0.3,-0.068C0.301,-0.066 0.302,-0.063 0.302,-0.059C0.303,-0.055 0.303,-0.05 0.303,-0.044C0.303,-0.035 0.303,-0.028 0.301,-0.022C0.3,-0.017 0.298,-0.013 0.295,-0.01C0.293,-0.007 0.289,-0.005 0.284,-0.002C0.278,-0 0.273,0.002 0.266,0.003C0.259,0.005 0.252,0.006 0.245,0.007C0.237,0.008 0.23,0.008 0.222,0.008C0.199,0.008 0.18,0.005 0.164,-0.001C0.147,-0.007 0.134,-0.016 0.124,-0.028C0.113,-0.04 0.106,-0.056 0.101,-0.074C0.096,-0.093 0.094,-0.115 0.094,-0.141L0.094,-0.397L0.032,-0.397C0.027,-0.397 0.023,-0.4 0.021,-0.405C0.018,-0.41 0.016,-0.419 0.016,-0.431C0.016,-0.437 0.017,-0.442 0.017,-0.446C0.018,-0.451 0.019,-0.454 0.021,-0.457C0.022,-0.46 0.024,-0.462 0.026,-0.463C0.028,-0.464 0.03,-0.464 0.033,-0.464L0.094,-0.464L0.094,-0.569C0.094,-0.571 0.094,-0.573 0.095,-0.575C0.097,-0.577 0.099,-0.579 0.102,-0.58C0.105,-0.582 0.109,-0.583 0.114,-0.583C0.119,-0.584 0.126,-0.584 0.134,-0.584C0.142,-0.584 0.149,-0.584 0.154,-0.583C0.159,-0.583 0.163,-0.582 0.166,-0.58C0.169,-0.579 0.171,-0.577 0.172,-0.575C0.174,-0.573 0.174,-0.571 0.174,-0.569L0.174,-0.464L0.457,-0.464ZM0.492,-0.6C0.492,-0.581 0.488,-0.568 0.481,-0.562C0.474,-0.555 0.461,-0.551 0.441,-0.551C0.423,-0.551 0.41,-0.555 0.403,-0.561C0.396,-0.568 0.392,-0.581 0.392,-0.599C0.392,-0.618 0.396,-0.631 0.403,-0.638C0.41,-0.645 0.423,-0.648 0.442,-0.648C0.461,-0.648 0.474,-0.645 0.481,-0.638C0.488,-0.631 0.492,-0.619 0.492,-0.6Z" style="fill-rule:nonzero;"/>
        </g>
        <text x="279px" y="131px" style="font-family:'Calibri', sans-serif;font-size:12px;">R<tspan x="285.305px 291.275px 307.4px " y="131px 131px 131px ">ein</tspan></text>
        <text x="279px" y="145.648px" style="font-family:'Calibri', sans-serif;font-size:12px;">ethLan</text>
        <text x="279px" y="160.297px" style="font-family:'Calibri', sans-serif;font-size:12px;">IP: 10.0.1.1</text>
        <text x="279px" y="174.945px" style="font-family:'Calibri', sans-serif;font-size:12px;">MAC: AA-AA-AA</text>
        <text x="279px" y="204.242px" style="font-family:'Calibri', sans-serif;font-size:12px;">ethW<tspan x="305.49px 311.238px " y="204.242px 204.242px ">an</tspan></text>
        <text x="279px" y="218.891px" style="font-family:'Calibri', sans-serif;font-size:12px;">IP 1.2.3.4</text>
        <text x="279px" y="233.539px" style="font-family:'Calibri', sans-serif;font-size:12px;">MAC: BB-BB-BB</text>
    </g>
    <g transform="matrix(1,0,0,1,172.012,-42.3906)">
        <g transform="matrix(12,0,0,12,294.029,131)">
            <path d="M0.457,-0.464C0.467,-0.464 0.473,-0.462 0.477,-0.458C0.481,-0.453 0.482,-0.447 0.482,-0.438L0.482,-0.012C0.482,-0.01 0.482,-0.007 0.48,-0.006C0.479,-0.004 0.477,-0.002 0.474,-0.001C0.471,0 0.467,0.001 0.461,0.002C0.456,0.003 0.45,0.003 0.442,0.003C0.434,0.003 0.428,0.003 0.422,0.002C0.417,0.001 0.413,0 0.41,-0.001C0.407,-0.002 0.405,-0.004 0.403,-0.006C0.402,-0.007 0.401,-0.01 0.401,-0.012L0.401,-0.397L0.174,-0.397L0.174,-0.152C0.174,-0.122 0.179,-0.099 0.188,-0.084C0.197,-0.068 0.213,-0.061 0.236,-0.061C0.243,-0.061 0.25,-0.061 0.256,-0.063C0.262,-0.064 0.267,-0.066 0.271,-0.067C0.276,-0.069 0.28,-0.071 0.283,-0.072C0.286,-0.073 0.289,-0.074 0.292,-0.074C0.294,-0.074 0.295,-0.074 0.297,-0.073C0.298,-0.072 0.299,-0.071 0.3,-0.068C0.301,-0.066 0.302,-0.063 0.302,-0.059C0.303,-0.055 0.303,-0.05 0.303,-0.044C0.303,-0.035 0.303,-0.028 0.301,-0.022C0.3,-0.017 0.298,-0.013 0.295,-0.01C0.293,-0.007 0.289,-0.005 0.284,-0.002C0.278,-0 0.273,0.002 0.266,0.003C0.259,0.005 0.252,0.006 0.245,0.007C0.237,0.008 0.23,0.008 0.222,0.008C0.199,0.008 0.18,0.005 0.164,-0.001C0.147,-0.007 0.134,-0.016 0.124,-0.028C0.113,-0.04 0.106,-0.056 0.101,-0.074C0.096,-0.093 0.094,-0.115 0.094,-0.141L0.094,-0.397L0.032,-0.397C0.027,-0.397 0.023,-0.4 0.021,-0.405C0.018,-0.41 0.016,-0.419 0.016,-0.431C0.016,-0.437 0.017,-0.442 0.017,-0.446C0.018,-0.451 0.019,-0.454 0.021,-0.457C0.022,-0.46 0.024,-0.462 0.026,-0.463C0.028,-0.464 0.03,-0.464 0.033,-0.464L0.094,-0.464L0.094,-0.569C0.094,-0.571 0.094,-0.573 0.095,-0.575C0.097,-0.577 0.099,-0.579 0.102,-0.58C0.105,-0.582 0.109,-0.583 0.114,-0.583C0.119,-0.584 0.126,-0.584 0.134,-0.584C0.142,-0.584 0.149,-0.584 0.154,-0.583C0.159,-0.583 0.163,-0.582 0.166,-0.58C0.169,-0.579 0.171,-0.577 0.172,-0.575C0.174,-0.573 0.174,-0.571 0.174,-0.569L0.174,-0.464L0.457,-0.464ZM0.492,-0.6C0.492,-0.581 0.488,-0.568 0.481,-0.562C0.474,-0.555 0.461,-0.551 0.441,-0.551C0.423,-0.551 0.41,-0.555 0.403,-0.561C0.396,-0.568 0.392,-0.581 0.392,-0.599C0.392,-0.618 0.396,-0.631 0.403,-0.638C0.41,-0.645 0.423,-0.648 0.442,-0.648C0.461,-0.648 0.474,-0.645 0.481,-0.638C0.488,-0.631 0.492,-0.619 0.492,-0.6Z" style="fill-rule:nonzero;"/>
        </g>
        <g transform="matrix(12,0,0,12,300.715,131)">
            <path d="M0.457,-0.464C0.467,-0.464 0.473,-0.462 0.477,-0.458C0.481,-0.453 0.482,-0.447 0.482,-0.438L0.482,-0.012C0.482,-0.01 0.482,-0.007 0.48,-0.006C0.479,-0.004 0.477,-0.002 0.474,-0.001C0.471,0 0.467,0.001 0.461,0.002C0.456,0.003 0.45,0.003 0.442,0.003C0.434,0.003 0.428,0.003 0.422,0.002C0.417,0.001 0.413,0 0.41,-0.001C0.407,-0.002 0.405,-0.004 0.403,-0.006C0.402,-0.007 0.401,-0.01 0.401,-0.012L0.401,-0.397L0.174,-0.397L0.174,-0.152C0.174,-0.122 0.179,-0.099 0.188,-0.084C0.197,-0.068 0.213,-0.061 0.236,-0.061C0.243,-0.061 0.25,-0.061 0.256,-0.063C0.262,-0.064 0.267,-0.066 0.271,-0.067C0.276,-0.069 0.28,-0.071 0.283,-0.072C0.286,-0.073 0.289,-0.074 0.292,-0.074C0.294,-0.074 0.295,-0.074 0.297,-0.073C0.298,-0.072 0.299,-0.071 0.3,-0.068C0.301,-0.066 0.302,-0.063 0.302,-0.059C0.303,-0.055 0.303,-0.05 0.303,-0.044C0.303,-0.035 0.303,-0.028 0.301,-0.022C0.3,-0.017 0.298,-0.013 0.295,-0.01C0.293,-0.007 0.289,-0.005 0.284,-0.002C0.278,-0 0.273,0.002 0.266,0.003C0.259,0.005 0.252,0.006 0.245,0.007C0.237,0.008 0.23,0.008 0.222,0.008C0.199,0.008 0.18,0.005 0.164,-0.001C0.147,-0.007 0.134,-0.016 0.124,-0.028C0.113,-0.04 0.106,-0.056 0.101,-0.074C0.096,-0.093 0.094,-0.115 0.094,-0.141L0.094,-0.397L0.032,-0.397C0.027,-0.397 0.023,-0.4 0.021,-0.405C0.018,-0.41 0.016,-0.419 0.016,-0.431C0.016,-0.437 0.017,-0.442 0.017,-0.446C0.018,-0.451 0.019,-0.454 0.021,-0.457C0.022,-0.46 0.024,-0.462 0.026,-0.463C0.028,-0.464 0.03,-0.464 0.033,-0.464L0.094,-0.464L0.094,-0.569C0.094,-0.571 0.094,-0.573 0.095,-0.575C0.097,-0.577 0.099,-0.579 0.102,-0.58C0.105,-0.582 0.109,-0.583 0.114,-0.583C0.119,-0.584 0.126,-0.584 0.134,-0.584C0.142,-0.584 0.149,-0.584 0.154,-0.583C0.159,-0.583 0.163,-0.582 0.166,-0.58C0.169,-0.579 0.171,-0.577 0.172,-0.575C0.174,-0.573 0.174,-0.571 0.174,-0.569L0.174,-0.464L0.457,-0.464ZM0.492,-0.6C0.492,-0.581 0.488,-0.568 0.481,-0.562C0.474,-0.555 0.461,-0.551 0.441,-0.551C0.423,-0.551 0.41,-0.555 0.403,-0.561C0.396,-0.568 0.392,-0.581 0.392,-0.599C0.392,-0.618 0.396,-0.631 0.403,-0.638C0.41,-0.645 0.423,-0.648 0.442,-0.648C0.461,-0.648 0.474,-0.645 0.481,-0.638C0.488,-0.631 0.492,-0.619 0.492,-0.6Z" style="fill-rule:nonzero;"/>
        </g>
        <text x="279px" y="131px" style="font-family:'Calibri', sans-serif;font-size:12px;">R<tspan x="285.305px 291.275px 307.4px " y="131px 131px 131px ">ein</tspan></text>
        <text x="279px" y="145.648px" style="font-family:'Calibri', sans-serif;font-size:12px;">ethLan</text>
        <text x="279px" y="160.297px" style="font-family:'Calibri', sans-serif;font-size:12px;">IP: 10.0.3.1</text>
        <text x="279px" y="174.945px" style="font-family:'Calibri', sans-serif;font-size:12px;">MAC: CC-CC-CC</text>
        <text x="279px" y="204.242px" style="font-family:'Calibri', sans-serif;font-size:12px;">ethW<tspan x="305.49px 311.238px " y="204.242px 204.242px ">an</tspan></text>
        <text x="279px" y="218.891px" style="font-family:'Calibri', sans-serif;font-size:12px;">IP 1.2.3.5</text>
        <text x="279px" y="233.539px" style="font-family:'Calibri', sans-serif;font-size:12px;">MAC: DD-DD-DD</text>
    </g>
    <g transform="matrix(1,0,0,1,-185.567,-101.102)">
        <text x="279px" y="131px" style="font-family:'Calibri', sans-serif;font-size:12px;">Asiak<tspan x="304.389px 310.137px " y="131px 131px ">as</tspan></text>
        <text x="279px" y="145.648px" style="font-family:'Calibri', sans-serif;font-size:12px;">eth0</text>
        <text x="279px" y="160.297px" style="font-family:'Calibri', sans-serif;font-size:12px;">IP: 10.0.1.11</text>
        <text x="279px" y="174.945px" style="font-family:'Calibri', sans-serif;font-size:12px;">MAC: 11-11-11</text>
    </g>
    <g transform="matrix(1,0,0,1,353.613,-102.648)">
        <text x="279px" y="131px" style="font-family:'Calibri', sans-serif;font-size:12px;">Asiak<tspan x="304.389px 310.137px " y="131px 131px ">as</tspan></text>
        <text x="279px" y="145.648px" style="font-family:'Calibri', sans-serif;font-size:12px;">eth0</text>
        <text x="279px" y="160.297px" style="font-family:'Calibri', sans-serif;font-size:12px;">IP:10.0.3.22</text>
        <text x="279px" y="174.945px" style="font-family:'Calibri', sans-serif;font-size:12px;">MAC: 22-22-22</text>
    </g>
</svg>
