<svg version="1.1" xmlns="http://www.w3.org/2000/svg" viewBox="0 0 886 648" width="886" height="648">
  <!-- svg-source:excalidraw -->
  
  <defs>
    <style class="style-fonts">
      @font-face {
        font-family: "Virgil";
        src: url("https://excalidraw.com/Virgil.woff2");
      }
      @font-face {
        font-family: "Cascadia";
        src: url("https://excalidraw.com/Cascadia.woff2");
      }
    </style>
    
  </defs>
  <rect x="0" y="0" width="886" height="648" fill="#ffffff"></rect><g stroke-linecap="round" transform="translate(10 386) rotate(0 162 63.5)"><path d="M31.75 0 M31.75 0 C110.08 -0.05, 188.89 -0.2, 292.25 0 M292.25 0 C313.61 0.97, 324.02 9.61, 324 31.75 M324 31.75 C325.39 51.57, 322.04 67.59, 324 95.25 M324 95.25 C325.48 114.43, 312.18 128.6, 292.25 127 M292.25 127 C211.14 126.34, 129.13 126.25, 31.75 127 M31.75 127 C11.25 127.18, -0.31 115.8, 0 95.25 M0 95.25 C1.45 68.79, 0.27 46.15, 0 31.75 M0 31.75 C-1.61 11.87, 12.52 -0.38, 31.75 0" stroke="#1e1e1e" stroke-width="1.5" fill="none" stroke-dasharray="8 9"></path></g><g transform="translate(23 345) rotate(0 50.53997802734375 17.5)"><text x="0" y="0" font-family="Virgil, Segoe UI Emoji" font-size="28px" fill="#1e1e1e" text-anchor="start" style="white-space: pre;" direction="ltr" dominant-baseline="text-before-edge">Palvelin</text></g><g stroke-linecap="round" transform="translate(12 155) rotate(0 162 71)"><path d="M32 0 M32 0 C95.21 -0.92, 157.1 1.26, 292 0 M292 0 C313.24 0.67, 324.44 9.01, 324 32 M324 32 C325.65 50.08, 324.38 62.52, 324 110 M324 110 C324.91 130.16, 311.6 141.91, 292 142 M292 142 C208.46 140, 125.76 140.54, 32 142 M32 142 C10.55 140.64, 1.16 131, 0 110 M0 110 C1.97 91.57, 0.66 77.61, 0 32 M0 32 C1.83 11.83, 10.09 1.53, 32 0" stroke="#1e1e1e" stroke-width="1.5" fill="none" stroke-dasharray="8 9"></path></g><g transform="translate(26.46002197265625 112.5) rotate(0 52.947975158691406 17.5)"><text x="0" y="0" font-family="Virgil, Segoe UI Emoji" font-size="28px" fill="#1e1e1e" text-anchor="start" style="white-space: pre;" direction="ltr" dominant-baseline="text-before-edge">Asiakas</text></g><g stroke-linecap="round" transform="translate(73 186) rotate(0 99.5 37)"><path d="M4.92 4.28 C4.92 4.28, 4.92 4.28, 4.92 4.28 M4.92 4.28 C4.92 4.28, 4.92 4.28, 4.92 4.28 M0.73 15.21 C4.91 12.95, 5.44 9.3, 11.88 2.38 M0.73 15.21 C3.44 11.17, 6.6 8.01, 11.88 2.38 M1.12 20.85 C7.46 15.68, 11.36 8.73, 18.83 0.47 M1.12 20.85 C6.44 16.1, 10.42 9.58, 18.83 0.47 M0.86 27.25 C9.3 19.97, 15.03 10.04, 24.48 0.08 M0.86 27.25 C6.61 21.79, 11.95 14.41, 24.48 0.08 M1.25 32.89 C7.13 25.41, 14.73 19.93, 29.46 0.44 M1.25 32.89 C10.81 23.52, 18.67 13.11, 29.46 0.44 M0.99 39.29 C11.7 28.14, 21.66 19.6, 35.11 0.04 M0.99 39.29 C14.87 24.53, 28.41 10, 35.11 0.04 M0.73 45.69 C8.82 36.28, 17.17 27.58, 40.09 0.4 M0.73 45.69 C12.05 31.4, 23.23 18.23, 40.09 0.4 M1.13 51.33 C17.42 34.89, 32.49 13.37, 45.74 0.01 M1.13 51.33 C11.92 37.63, 24.3 23.75, 45.74 0.01 M0.86 57.73 C17.89 36.74, 35.92 16.74, 50.72 0.37 M0.86 57.73 C15.98 39.98, 32.85 21.45, 50.72 0.37 M2.57 61.86 C16.43 45.14, 32.3 28.94, 55.71 0.73 M2.57 61.86 C16.77 45.97, 28.86 29.92, 55.71 0.73 M2.97 67.5 C21.43 46.68, 39.77 25.69, 61.36 0.33 M2.97 67.5 C17.42 48.61, 34.2 32.07, 61.36 0.33 M6.64 69.37 C28.7 44.83, 50.7 21.8, 66.34 0.69 M6.64 69.37 C25.95 49.51, 43.77 28.42, 66.34 0.69 M9.66 72 C26.07 54.45, 41.83 37, 71.99 0.3 M9.66 72 C24.09 56.28, 37.52 39.56, 71.99 0.3 M12.68 74.62 C34.24 49.81, 54.97 23.93, 76.97 0.66 M12.68 74.62 C27.55 59.24, 41.72 42.8, 76.97 0.66 M18.32 74.23 C32.28 56.48, 49.33 40.71, 82.62 0.27 M18.32 74.23 C40.56 48.18, 63.09 20.85, 82.62 0.27 M23.96 73.83 C37.74 56.12, 53.66 37.34, 87.6 0.63 M23.96 73.83 C49.69 45.16, 75.27 16.2, 87.6 0.63 M28.95 74.19 C50 51.65, 72.11 24.84, 93.25 0.23 M28.95 74.19 C49.56 48.73, 72.4 23.85, 93.25 0.23 M34.59 73.8 C53.09 55.08, 69.41 35.64, 98.23 0.59 M34.59 73.8 C50.89 56.05, 66.78 38.16, 98.23 0.59 M39.58 74.16 C58.84 51.31, 78.67 27.52, 103.88 0.2 M39.58 74.16 C64.62 46.02, 88.06 18.79, 103.88 0.2 M45.22 73.76 C62.65 50.43, 81.76 28.2, 108.86 0.56 M45.22 73.76 C58.1 59.5, 72.89 43.67, 108.86 0.56 M50.21 74.12 C66.59 55.99, 84.66 33.87, 114.51 0.16 M50.21 74.12 C74.33 44.51, 100.06 16.79, 114.51 0.16 M55.85 73.73 C68.92 58.26, 86.79 40.01, 119.49 0.52 M55.85 73.73 C77.88 49.43, 98.54 23.04, 119.49 0.52 M60.84 74.09 C76.02 57.66, 90.54 39.32, 125.14 0.13 M60.84 74.09 C75.17 57.2, 87.8 42.8, 125.14 0.13 M66.48 73.69 C93.53 45.42, 117.37 16.99, 130.12 0.49 M66.48 73.69 C85.95 50.93, 104.37 30.92, 130.12 0.49 M71.47 74.05 C83.91 58.19, 100.52 40.04, 135.77 0.09 M71.47 74.05 C96.51 45.24, 122.62 17.95, 135.77 0.09 M77.11 73.66 C99.38 46.46, 120.89 22.85, 140.75 0.45 M77.11 73.66 C99.76 47.66, 122.91 20.41, 140.75 0.45 M82.1 74.02 C102.3 52, 120.72 28.8, 146.4 0.06 M82.1 74.02 C107.8 46.47, 131.2 17.29, 146.4 0.06 M87.09 74.38 C109.13 51.29, 127.14 27.96, 151.38 0.42 M87.09 74.38 C102.16 55.3, 118.09 38.28, 151.38 0.42 M92.73 73.99 C111.92 50.29, 134.88 24.83, 157.03 0.02 M92.73 73.99 C115.85 45.43, 140.59 18.61, 157.03 0.02 M97.72 74.35 C118.27 50.77, 137.49 30.47, 162.01 0.38 M97.72 74.35 C113.79 56.73, 129.28 38.96, 162.01 0.38 M103.36 73.95 C123.07 51.64, 142.76 30.99, 167 0.74 M103.36 73.95 C119.33 54.22, 136.27 35.51, 167 0.74 M108.35 74.31 C123.26 59.9, 134.37 46.16, 172.64 0.35 M108.35 74.31 C126.41 54.06, 144.09 34.64, 172.64 0.35 M113.99 73.92 C133.09 51.87, 150.38 30.78, 177.63 0.71 M113.99 73.92 C130.11 55.47, 146.68 37.2, 177.63 0.71 M118.98 74.28 C137.43 50.8, 158.35 30.54, 181.96 1.82 M118.98 74.28 C137.95 51.09, 157.59 29.82, 181.96 1.82 M124.62 73.88 C147.49 46.02, 172.55 19.11, 186.95 2.18 M124.62 73.88 C140.64 55.53, 158.73 35.63, 186.95 2.18 M129.61 74.24 C153.93 48.31, 176.11 22.88, 191.28 3.3 M129.61 74.24 C148.18 53.3, 165.6 33.51, 191.28 3.3 M135.25 73.85 C156.11 49.96, 174.45 28.06, 194.95 5.17 M135.25 73.85 C158.29 49.23, 180.76 23.55, 194.95 5.17 M140.24 74.21 C159.27 53.13, 175.55 32.42, 196.66 9.3 M140.24 74.21 C162.4 47.92, 185.81 22.42, 196.66 9.3 M145.88 73.81 C157.2 55.96, 172.24 40.5, 198.37 13.44 M145.88 73.81 C160.78 56.69, 176.75 38.38, 198.37 13.44 M150.87 74.17 C162.21 62.47, 174.25 48.64, 201.39 16.06 M150.87 74.17 C161.39 61.47, 173.34 47.28, 201.39 16.06 M156.51 73.78 C167.13 62.33, 175.64 50.21, 201.12 22.46 M156.51 73.78 C171.08 56.53, 185.49 39.63, 201.12 22.46 M161.5 74.14 C172.97 59.45, 185.52 47.4, 201.52 28.1 M161.5 74.14 C175.51 56.94, 190.36 39.89, 201.52 28.1 M167.14 73.74 C178.77 56.57, 193.85 41.11, 201.26 34.5 M167.14 73.74 C175.27 65.09, 184.12 53.41, 201.26 34.5 M172.13 74.1 C185.19 60.03, 193.67 48.62, 201.65 40.14 M172.13 74.1 C180.5 65.17, 187.44 57.35, 201.65 40.14 M177.77 73.71 C185.09 66.34, 191.48 57.3, 201.39 46.54 M177.77 73.71 C186.58 63.01, 195.93 53.84, 201.39 46.54 M182.1 74.82 C186.67 68.49, 191.72 65.9, 201.13 52.94 M182.1 74.82 C187.22 67.34, 195.06 60, 201.13 52.94 M188.4 73.68 C194.7 66.75, 198.91 59.47, 202.18 57.83 M188.4 73.68 C192.85 69.61, 197.46 64.45, 202.18 57.83" stroke="#a5d8ff" stroke-width="0.5" fill="none"></path><path d="M18.5 0 M18.5 0 C50.7 0.07, 85.5 -0.4, 180.5 0 M18.5 0 C53.72 -0.44, 90.64 -0.91, 180.5 0 M180.5 0 C191.83 1.1, 200.52 5.38, 199 18.5 M180.5 0 C194.72 0.58, 200.64 8.44, 199 18.5 M199 18.5 C198.35 27.33, 200.7 35.7, 199 55.5 M199 18.5 C199.26 28.12, 199.89 38.73, 199 55.5 M199 55.5 C199.75 67.44, 192.04 73.45, 180.5 74 M199 55.5 C200.55 68.21, 190.61 74.54, 180.5 74 M180.5 74 C121.39 70.69, 63.95 72.48, 18.5 74 M180.5 74 C138.69 74.77, 96.07 75.23, 18.5 74 M18.5 74 C6.75 73.16, 0.8 69.48, 0 55.5 M18.5 74 C6.43 72, 0.26 68.78, 0 55.5 M0 55.5 C0.08 44.54, 0.15 32.77, 0 18.5 M0 55.5 C0.72 46.2, 0.66 34.86, 0 18.5 M0 18.5 C-1.63 7.9, 5.65 0.01, 18.5 0 M0 18.5 C-1.54 7.17, 7.73 -2.17, 18.5 0" stroke="#1e1e1e" stroke-width="1" fill="none"></path></g><g transform="translate(133.70602416992188 205.5) rotate(0 38.793975830078125 17.5)"><text x="38.793975830078125" y="0" font-family="Virgil, Segoe UI Emoji" font-size="28px" fill="#1e1e1e" text-anchor="middle" style="white-space: pre;" direction="ltr" dominant-baseline="text-before-edge">Selain</text></g><g stroke-linecap="round" transform="translate(51 427) rotate(0 118.5 22.5)"><path d="M2.99 2.6 C2.99 2.6, 2.99 2.6, 2.99 2.6 M2.99 2.6 C2.99 2.6, 2.99 2.6, 2.99 2.6 M0.76 11.27 C5.29 8.27, 8.54 2.93, 9.95 0.7 M0.76 11.27 C2.87 8.87, 6.05 4.86, 9.95 0.7 M0.5 17.66 C6.18 10.35, 11.96 5.97, 13.62 2.57 M0.5 17.66 C5.14 11.2, 11.35 5.61, 13.62 2.57 M0.9 23.31 C6.42 13.22, 17.08 7.04, 19.27 2.17 M0.9 23.31 C6.21 18.1, 9.92 14.42, 19.27 2.17 M0.64 29.7 C8.86 18.87, 18.22 10.81, 24.25 2.53 M0.64 29.7 C5.11 24.45, 12.07 17, 24.25 2.53 M1.03 35.35 C12.5 22.36, 19.61 11.64, 29.9 2.14 M1.03 35.35 C8.28 27.01, 13.87 18.86, 29.9 2.14 M2.08 40.24 C10.94 30.9, 17.29 21.68, 34.88 2.5 M2.08 40.24 C14.97 26.5, 27.97 11.99, 34.88 2.5 M5.1 42.86 C18.61 28.48, 28.27 17.29, 40.53 2.11 M5.1 42.86 C17.58 28.32, 28.67 15.51, 40.53 2.11 M8.12 45.48 C17.69 32.2, 31.27 19.7, 45.51 2.47 M8.12 45.48 C17 36.6, 25.99 25.23, 45.51 2.47 M13.11 45.84 C29.61 30.05, 44.98 10.58, 51.16 2.07 M13.11 45.84 C23.72 32.44, 34.24 21.12, 51.16 2.07 M18.75 45.45 C27.38 32.04, 40.11 23.22, 56.14 2.43 M18.75 45.45 C30.45 31, 42.74 17.95, 56.14 2.43 M23.74 45.81 C33.13 33.97, 46.03 20.57, 61.13 2.79 M23.74 45.81 C34.05 32.08, 45.63 20.61, 61.13 2.79 M29.38 45.41 C41.16 29.63, 52.04 16.81, 66.78 2.4 M29.38 45.41 C39.3 34.84, 49.76 23.06, 66.78 2.4 M34.37 45.77 C44.79 33.99, 58.86 20.74, 71.76 2.76 M34.37 45.77 C47.9 28.56, 61.97 12.73, 71.76 2.76 M39.35 46.13 C49.34 35.83, 59.97 23.37, 77.41 2.36 M39.35 46.13 C49.51 35.29, 58.94 23.88, 77.41 2.36 M45 45.74 C55.37 34.15, 64.98 18.85, 82.39 2.72 M45 45.74 C59.83 28.08, 74.09 13.33, 82.39 2.72 M49.98 46.1 C60.65 34.04, 72.96 22.22, 88.04 2.33 M49.98 46.1 C61.41 32.71, 72.23 20.33, 88.04 2.33 M55.63 45.71 C65.76 34.94, 71.31 27.04, 93.02 2.69 M55.63 45.71 C68.1 31.96, 79.99 17.23, 93.02 2.69 M60.61 46.07 C74.17 33.32, 83.22 19.55, 98.67 2.29 M60.61 46.07 C69.17 36.44, 79.85 23.88, 98.67 2.29 M66.26 45.67 C74.41 37.66, 81.34 26.46, 103.65 2.65 M66.26 45.67 C78.52 29.67, 92.57 15.4, 103.65 2.65 M71.24 46.03 C83.52 29.65, 100.18 12.47, 109.3 2.26 M71.24 46.03 C83.32 32.06, 97.05 17.21, 109.3 2.26 M76.89 45.64 C88.41 32.96, 98.75 20.47, 114.28 2.62 M76.89 45.64 C86.29 34.75, 96.46 24.13, 114.28 2.62 M81.87 46 C91.59 35.39, 98.46 24.64, 119.27 2.98 M81.87 46 C92.3 35.37, 101.59 23.99, 119.27 2.98 M87.52 45.6 C95.18 34.25, 103.61 24.58, 124.91 2.58 M87.52 45.6 C103.38 28.9, 117.38 12.69, 124.91 2.58 M92.5 45.96 C101.59 34.78, 111.62 25.34, 129.9 2.94 M92.5 45.96 C101.68 35.17, 111.26 24.4, 129.9 2.94 M97.49 46.32 C111.92 30.25, 123.98 16.37, 135.54 2.55 M97.49 46.32 C105.97 35.55, 115.3 24.93, 135.54 2.55 M103.13 45.93 C112.95 34.99, 121.49 21.98, 140.53 2.91 M103.13 45.93 C112.84 34.84, 121.55 25.56, 140.53 2.91 M108.12 46.29 C118.43 36.94, 126.93 24.16, 146.17 2.51 M108.12 46.29 C121 28.91, 135.33 12.95, 146.17 2.51 M113.76 45.89 C121.34 33.73, 133.16 24.17, 151.16 2.87 M113.76 45.89 C125.78 31.7, 139.87 15.99, 151.16 2.87 M118.75 46.25 C135.16 28.22, 146.49 11.56, 156.8 2.48 M118.75 46.25 C128.86 33.52, 140.59 20.62, 156.8 2.48 M124.39 45.86 C134.68 33.2, 147.25 18.5, 161.79 2.84 M124.39 45.86 C133.32 34.31, 145.07 23.04, 161.79 2.84 M129.38 46.22 C137.22 37.68, 144.33 29.92, 167.43 2.45 M129.38 46.22 C144.01 29.98, 157.9 13.13, 167.43 2.45 M135.02 45.82 C145.65 31.38, 160.93 16.5, 172.42 2.81 M135.02 45.82 C149.36 29.76, 163.1 13.02, 172.42 2.81 M140.01 46.18 C155.16 31.52, 166.4 11.85, 177.41 3.17 M140.01 46.18 C153.92 29.98, 169.73 11.96, 177.41 3.17 M145.65 45.79 C156.33 34.73, 168.09 22.67, 183.05 2.77 M145.65 45.79 C153.95 37.32, 161.72 27.23, 183.05 2.77 M150.64 46.15 C161.01 34.27, 170.83 20.76, 188.04 3.13 M150.64 46.15 C163.94 29.86, 176.29 15.56, 188.04 3.13 M155.63 46.51 C168.63 33.05, 177.39 20.56, 193.68 2.74 M155.63 46.51 C169.32 30.79, 184.12 14.52, 193.68 2.74 M161.27 46.12 C169.13 36.64, 178.72 28.37, 198.67 3.1 M161.27 46.12 C170.73 34.83, 180.11 24.81, 198.67 3.1 M166.26 46.48 C177.08 36.84, 185.78 24.91, 204.31 2.7 M166.26 46.48 C174.32 38.06, 181.98 28.69, 204.31 2.7 M171.9 46.08 C180.02 34.17, 193.5 24.49, 209.3 3.06 M171.9 46.08 C183.02 32.12, 194.84 19.69, 209.3 3.06 M176.89 46.44 C187.62 33.91, 200.68 22.12, 214.94 2.67 M176.89 46.44 C190.21 29.43, 204.96 13.41, 214.94 2.67 M182.53 46.05 C198 30.27, 213.98 11.66, 219.93 3.03 M182.53 46.05 C195.79 30.63, 209.27 15.76, 219.93 3.03 M187.52 46.41 C203.19 32.46, 214.38 13.25, 225.57 2.63 M187.52 46.41 C198 36.43, 206.27 24.56, 225.57 2.63 M193.16 46.01 C204.1 32.14, 216.16 17.11, 231.87 1.48 M193.16 46.01 C204.76 31.92, 216.64 18.79, 231.87 1.48 M198.15 46.37 C211.38 30.18, 222.74 17.83, 234.89 4.11 M198.15 46.37 C208.18 34.01, 219.86 22.45, 234.89 4.11 M203.79 45.98 C213.84 35.47, 221.71 22.85, 237.25 7.49 M203.79 45.98 C215 33.59, 225.51 21.23, 237.25 7.49 M208.78 46.34 C220.42 31.87, 231.35 20.29, 237.65 13.13 M208.78 46.34 C218.26 34.05, 229.73 22.85, 237.65 13.13 M213.77 46.7 C222.29 36.79, 226.83 29.73, 237.38 19.53 M213.77 46.7 C222.04 34.94, 233.25 24.26, 237.38 19.53 M219.41 46.3 C224.18 39.32, 229.44 33.26, 237.12 25.93 M219.41 46.3 C224.25 40.05, 230.53 34.29, 237.12 25.93 M225.71 45.15 C228.52 40.57, 232.42 37.92, 237.52 31.57 M225.71 45.15 C229.32 39.55, 234.41 35.76, 237.52 31.57 M233.32 42.5 C234.22 41.2, 234.65 40.45, 236.6 38.72 M233.32 42.5 C234.27 41.54, 235.05 40.53, 236.6 38.72" stroke="#ffc9c9" stroke-width="0.5" fill="none"></path><path d="M11.25 0 M11.25 0 C64.12 0.98, 118.18 0.09, 225.75 0 M11.25 0 C91.82 -1.2, 171.59 -1.23, 225.75 0 M225.75 0 C232.78 -1.58, 238.11 2.92, 237 11.25 M225.75 0 C232.03 -2.01, 236.94 1.87, 237 11.25 M237 11.25 C237.95 18.69, 236.82 21.05, 237 33.75 M237 11.25 C237.68 16.05, 236.28 22.95, 237 33.75 M237 33.75 C236.82 39.93, 231.31 44.12, 225.75 45 M237 33.75 C238.63 40.28, 233.58 42.77, 225.75 45 M225.75 45 C141.32 47.2, 58.69 47.39, 11.25 45 M225.75 45 C166.29 45.91, 106.62 46.4, 11.25 45 M11.25 45 C4.57 46.18, 0.64 42.44, 0 33.75 M11.25 45 C4.62 43.17, 0.79 42.49, 0 33.75 M0 33.75 C-0.28 24.31, -1.74 14.68, 0 11.25 M0 33.75 C0.64 28.97, 0.39 24.54, 0 11.25 M0 11.25 C0.6 2.1, 5.61 -1.58, 11.25 0 M0 11.25 C-1.37 5.83, 5.68 -2.19, 11.25 0" stroke="#1e1e1e" stroke-width="1" fill="none"></path></g><g transform="translate(90.12003326416016 432) rotate(0 79.37996673583984 17.5)"><text x="79.37996673583984" y="0" font-family="Virgil, Segoe UI Emoji" font-size="28px" fill="#1e1e1e" text-anchor="middle" style="white-space: pre;" direction="ltr" dominant-baseline="text-before-edge">Datakerros</text></g><g stroke-linecap="round" transform="translate(552 156.5) rotate(0 162 68.5)"><path d="M32 0 M32 0 C97.22 0.49, 160.27 2.52, 292 0 M292 0 C312.63 -0.35, 322.19 10.82, 324 32 M324 32 C324.91 62.27, 324.35 87.77, 324 105 M324 105 C322.09 124.88, 312 135.89, 292 137 M292 137 C213.24 136.21, 136.8 136.03, 32 137 M32 137 C12.12 136.93, -1 127.43, 0 105 M0 105 C0.79 78.98, 2.26 49.08, 0 32 M0 32 C-1.22 9.69, 10.24 -0.35, 32 0" stroke="#1e1e1e" stroke-width="1.5" fill="none" stroke-dasharray="8 9"></path></g><g stroke-linecap="round" transform="translate(610.5 188) rotate(0 99.5 37)"><path d="M4.92 4.28 C4.92 4.28, 4.92 4.28, 4.92 4.28 M4.92 4.28 C4.92 4.28, 4.92 4.28, 4.92 4.28 M0.73 15.21 C3.38 9.77, 7.12 7.47, 11.88 2.38 M0.73 15.21 C3.78 11.54, 7.86 8.22, 11.88 2.38 M1.12 20.85 C5.87 11.64, 14.07 4.1, 18.83 0.47 M1.12 20.85 C8.47 13.42, 16.06 4.56, 18.83 0.47 M0.86 27.25 C8.38 17.78, 16.84 9.34, 24.48 0.08 M0.86 27.25 C10.35 18.36, 17.59 6.87, 24.48 0.08 M1.25 32.89 C10.08 26.16, 14.84 15.97, 29.46 0.44 M1.25 32.89 C9.6 22.73, 18.47 11.95, 29.46 0.44 M0.99 39.29 C11.4 25.96, 22.47 14.28, 35.11 0.04 M0.99 39.29 C12.86 24.9, 23.9 12.57, 35.11 0.04 M0.73 45.69 C11.17 32.13, 24.57 20.46, 40.09 0.4 M0.73 45.69 C12.57 32.96, 23.11 19.05, 40.09 0.4 M1.13 51.33 C16.35 34.7, 30.09 18.36, 45.74 0.01 M1.13 51.33 C18.83 30.75, 36 11.5, 45.74 0.01 M0.86 57.73 C17.1 36.41, 37.24 17.24, 50.72 0.37 M0.86 57.73 C16.97 39.98, 30.66 23.32, 50.72 0.37 M2.57 61.86 C21.42 35.62, 46.19 11.57, 55.71 0.73 M2.57 61.86 C16.84 43.86, 31.78 26.67, 55.71 0.73 M2.97 67.5 C19.45 47.1, 39.03 27.51, 61.36 0.33 M2.97 67.5 C17.75 49.14, 33.73 31.78, 61.36 0.33 M6.64 69.37 C26.85 43.28, 50.09 21.12, 66.34 0.69 M6.64 69.37 C20.1 53.56, 32.92 38.29, 66.34 0.69 M9.66 72 C25.87 54.89, 40.26 37.43, 71.99 0.3 M9.66 72 C25.65 54.66, 41.68 36.47, 71.99 0.3 M12.68 74.62 C38.4 45.14, 61.75 17.47, 76.97 0.66 M12.68 74.62 C30.62 53.29, 47.93 33.35, 76.97 0.66 M18.32 74.23 C34.15 59.71, 48.61 42.44, 82.62 0.27 M18.32 74.23 C33.55 57.67, 47.37 39.23, 82.62 0.27 M23.96 73.83 C42.98 49.35, 67.22 25.36, 87.6 0.63 M23.96 73.83 C44.92 50.63, 64.63 28.08, 87.6 0.63 M28.95 74.19 C51.74 45.96, 79.8 15.96, 93.25 0.23 M28.95 74.19 C51.06 48.95, 73.05 23.72, 93.25 0.23 M34.59 73.8 C49.96 57.28, 63.33 40.9, 98.23 0.59 M34.59 73.8 C50.54 55.64, 66.7 37.7, 98.23 0.59 M39.58 74.16 C58.58 50.94, 78.51 29.54, 103.88 0.2 M39.58 74.16 C53.41 55.46, 70.07 38.77, 103.88 0.2 M45.22 73.76 C68.64 45.7, 90.5 21.26, 108.86 0.56 M45.22 73.76 C62.19 55.2, 77.34 35.97, 108.86 0.56 M50.21 74.12 C68.04 57.45, 84.78 38.42, 114.51 0.16 M50.21 74.12 C70.12 50.5, 89.75 26.83, 114.51 0.16 M55.85 73.73 C78.99 47.06, 106.55 15.1, 119.49 0.52 M55.85 73.73 C74.35 53.25, 92.11 32.59, 119.49 0.52 M60.84 74.09 C73.73 56.27, 92.23 40.28, 125.14 0.13 M60.84 74.09 C80.39 51.76, 99.32 28.92, 125.14 0.13 M66.48 73.69 C81.85 56.73, 96.22 36.91, 130.12 0.49 M66.48 73.69 C90.43 45.6, 114.77 17.64, 130.12 0.49 M71.47 74.05 C88.09 56.59, 100.26 40.03, 135.77 0.09 M71.47 74.05 C89.01 54.71, 104.11 36.16, 135.77 0.09 M77.11 73.66 C101.48 45.29, 122.51 20.62, 140.75 0.45 M77.11 73.66 C101.19 44.22, 124.8 16.49, 140.75 0.45 M82.1 74.02 C95.6 59.19, 111.37 43, 146.4 0.06 M82.1 74.02 C106.91 45.19, 131.19 17.07, 146.4 0.06 M87.09 74.38 C112.1 46.74, 136.33 18.05, 151.38 0.42 M87.09 74.38 C112.13 46.45, 136.64 17.39, 151.38 0.42 M92.73 73.99 C104.61 56.8, 118.91 43.35, 157.03 0.02 M92.73 73.99 C117.67 44, 143.38 14.58, 157.03 0.02 M97.72 74.35 C117.68 51.44, 140.39 26.52, 162.01 0.38 M97.72 74.35 C117.17 51.31, 138.79 26.37, 162.01 0.38 M103.36 73.95 C117.29 56.46, 132.9 42.54, 167 0.74 M103.36 73.95 C127.6 46.63, 150.47 18.86, 167 0.74 M108.35 74.31 C124.31 56.95, 140.94 37.84, 172.64 0.35 M108.35 74.31 C129.87 49.95, 150.21 24.37, 172.64 0.35 M113.99 73.92 C134.59 51.34, 157.52 24.56, 177.63 0.71 M113.99 73.92 C133.12 50.92, 153.92 29.38, 177.63 0.71 M118.98 74.28 C132.74 55.69, 147.73 36.76, 181.96 1.82 M118.98 74.28 C132.16 58.47, 147.2 41.95, 181.96 1.82 M124.62 73.88 C146.89 47.22, 167.82 22.5, 186.95 2.18 M124.62 73.88 C145.56 50.16, 166.39 25.66, 186.95 2.18 M129.61 74.24 C151.3 47.97, 174.99 19.82, 191.28 3.3 M129.61 74.24 C141.89 58.34, 155.48 45.17, 191.28 3.3 M135.25 73.85 C159.06 46.35, 181.53 23.6, 194.95 5.17 M135.25 73.85 C155.99 50.68, 175.15 27.86, 194.95 5.17 M140.24 74.21 C162.27 48.21, 181.59 25.88, 196.66 9.3 M140.24 74.21 C160.07 50.75, 180 27.8, 196.66 9.3 M145.88 73.81 C163.53 54.96, 178.13 38.63, 198.37 13.44 M145.88 73.81 C161.48 57.17, 178.31 38.47, 198.37 13.44 M150.87 74.17 C169.23 55.52, 184.77 33.97, 201.39 16.06 M150.87 74.17 C168.48 54.92, 186.1 34.86, 201.39 16.06 M156.51 73.78 C173.86 52.78, 193.1 33.26, 201.12 22.46 M156.51 73.78 C172.65 55.77, 187.32 36.28, 201.12 22.46 M161.5 74.14 C169.4 64.71, 178.6 52.6, 201.52 28.1 M161.5 74.14 C174.48 58.45, 188.15 42.65, 201.52 28.1 M167.14 73.74 C172.98 65.89, 181.3 55.54, 201.26 34.5 M167.14 73.74 C179.93 59.65, 194.24 42.78, 201.26 34.5 M172.13 74.1 C183.91 63.33, 192.3 49.84, 201.65 40.14 M172.13 74.1 C180.66 65.21, 186.85 57.52, 201.65 40.14 M177.77 73.71 C185.03 66.87, 189.79 58.22, 201.39 46.54 M177.77 73.71 C187.31 62.45, 197.36 51.79, 201.39 46.54 M182.1 74.82 C190.32 67.33, 194.09 59.7, 201.13 52.94 M182.1 74.82 C189.09 66.62, 193.77 59.31, 201.13 52.94 M188.4 73.68 C191.3 68.98, 195.56 62.99, 202.18 57.83 M188.4 73.68 C192.47 67.97, 198.02 62.19, 202.18 57.83" stroke="#a5d8ff" stroke-width="0.5" fill="none"></path><path d="M18.5 0 M18.5 0 C67.21 -2.04, 118.99 -1.06, 180.5 0 M18.5 0 C79.89 -0.67, 139.95 -1.07, 180.5 0 M180.5 0 C193.41 -1.16, 200.8 7.11, 199 18.5 M180.5 0 C193.69 -1.4, 196.76 5.08, 199 18.5 M199 18.5 C199.15 29.14, 199.78 40.99, 199 55.5 M199 18.5 C198.79 31.54, 198.43 42.88, 199 55.5 M199 55.5 C199.84 67.79, 194.33 74.91, 180.5 74 M199 55.5 C197.02 66.37, 192.31 73.23, 180.5 74 M180.5 74 C127.85 72.2, 77.83 73.02, 18.5 74 M180.5 74 C125.1 76.18, 70.17 74.41, 18.5 74 M18.5 74 C5.62 72.86, -0.03 68.51, 0 55.5 M18.5 74 C8.18 74.05, 1.44 67.55, 0 55.5 M0 55.5 C-1.41 47.83, -1.73 38.29, 0 18.5 M0 55.5 C-0.59 42.53, -0.34 29.92, 0 18.5 M0 18.5 C1.55 4.48, 7.25 -0.32, 18.5 0 M0 18.5 C2.19 7.04, 7.21 -1.39, 18.5 0" stroke="#1e1e1e" stroke-width="1" fill="none"></path></g><g transform="translate(671.2060241699219 207.5) rotate(0 38.793975830078125 17.5)"><text x="38.793975830078125" y="0" font-family="Virgil, Segoe UI Emoji" font-size="28px" fill="#1e1e1e" text-anchor="middle" style="white-space: pre;" direction="ltr" dominant-baseline="text-before-edge">Selain</text></g><g stroke-linecap="round" transform="translate(589.5 427) rotate(0 118.5 37)"><path d="M4.92 4.28 C4.92 4.28, 4.92 4.28, 4.92 4.28 M4.92 4.28 C4.92 4.28, 4.92 4.28, 4.92 4.28 M0.73 15.21 C1.69 11.35, 4.84 10.25, 11.88 2.38 M0.73 15.21 C4.32 10.98, 9.23 5.01, 11.88 2.38 M1.12 20.85 C7 16.35, 12.13 10.06, 18.83 0.47 M1.12 20.85 C7.74 11.99, 14.7 5.24, 18.83 0.47 M0.86 27.25 C3.76 22.74, 8.52 14.53, 24.48 0.08 M0.86 27.25 C7.43 20.27, 13.33 11.94, 24.48 0.08 M1.25 32.89 C8.1 21.77, 16.32 14.58, 29.46 0.44 M1.25 32.89 C10.64 21.81, 17.92 12.95, 29.46 0.44 M0.99 39.29 C12.08 26.91, 22.04 14.2, 35.11 0.04 M0.99 39.29 C12.28 26.76, 23.73 13.82, 35.11 0.04 M0.73 45.69 C14.67 29.79, 26.55 17.37, 40.09 0.4 M0.73 45.69 C17.12 27.79, 32.49 10.28, 40.09 0.4 M1.13 51.33 C9.61 40.06, 19.68 30.57, 45.74 0.01 M1.13 51.33 C18.51 31.61, 34.73 12.03, 45.74 0.01 M0.86 57.73 C19.83 39.42, 34.83 16.98, 50.72 0.37 M0.86 57.73 C12.06 45.69, 22.44 33.08, 50.72 0.37 M2.57 61.86 C20.98 43.2, 36.49 22.5, 55.71 0.73 M2.57 61.86 C18.82 43.55, 34 26.35, 55.71 0.73 M2.97 67.5 C18.28 49.76, 30.5 33.86, 61.36 0.33 M2.97 67.5 C20.46 48.72, 37.26 27.53, 61.36 0.33 M6.64 69.37 C26.72 46.49, 45.92 23.6, 66.34 0.69 M6.64 69.37 C27.71 44.52, 50.84 18.42, 66.34 0.69 M9.66 72 C25.75 55.04, 40.13 36.03, 71.99 0.3 M9.66 72 C24.26 54.47, 40.26 35.32, 71.99 0.3 M12.68 74.62 C28.61 54.91, 49.45 33.58, 76.97 0.66 M12.68 74.62 C33.83 48.26, 56.47 24.34, 76.97 0.66 M18.32 74.23 C42.32 45.16, 70.57 16.12, 82.62 0.27 M18.32 74.23 C36.37 53.17, 53.59 34.58, 82.62 0.27 M23.96 73.83 C45.3 51.27, 63.56 26.69, 87.6 0.63 M23.96 73.83 C47.51 46.78, 71.86 18.94, 87.6 0.63 M28.95 74.19 C43.92 61.34, 54.86 45.8, 93.25 0.23 M28.95 74.19 C45.38 55.55, 61.76 35.72, 93.25 0.23 M34.59 73.8 C53.94 49.78, 73.93 28.14, 98.23 0.59 M34.59 73.8 C52.23 52.7, 69.02 34.65, 98.23 0.59 M39.58 74.16 C63.02 46.94, 87.14 22.44, 103.88 0.2 M39.58 74.16 C56.14 54.66, 73.43 36.23, 103.88 0.2 M45.22 73.76 C60.02 54.76, 77.97 37.05, 108.86 0.56 M45.22 73.76 C61.74 53.53, 78.5 34.71, 108.86 0.56 M50.21 74.12 C71.9 47.93, 98.73 20.16, 114.51 0.16 M50.21 74.12 C66.33 56.58, 82.38 37.06, 114.51 0.16 M55.85 73.73 C69.89 57.94, 83.49 41.26, 119.49 0.52 M55.85 73.73 C69.81 58.78, 82.8 41.88, 119.49 0.52 M60.84 74.09 C86.29 49.74, 106 21.03, 125.14 0.13 M60.84 74.09 C81.3 49.15, 103.72 23.97, 125.14 0.13 M66.48 73.69 C80.87 58.14, 97.91 39.91, 130.12 0.49 M66.48 73.69 C82.41 56.32, 98.58 39.11, 130.12 0.49 M71.47 74.05 C89.57 52.28, 107.13 33.23, 135.77 0.09 M71.47 74.05 C95.86 46.95, 119.91 20.14, 135.77 0.09 M77.11 73.66 C90.52 58.58, 105.5 40.69, 140.75 0.45 M77.11 73.66 C94.83 53.62, 112.25 34.08, 140.75 0.45 M82.1 74.02 C97.87 52.38, 116.86 31.9, 146.4 0.06 M82.1 74.02 C103.53 49.21, 123.77 24.4, 146.4 0.06 M87.09 74.38 C98.91 59.56, 114.55 45.78, 151.38 0.42 M87.09 74.38 C105.77 52.74, 125.03 31.34, 151.38 0.42 M92.73 73.99 C116.38 48.09, 137.19 21.03, 157.03 0.02 M92.73 73.99 C113.96 50.17, 135.88 23.72, 157.03 0.02 M97.72 74.35 C122.84 47.77, 143.14 21.58, 162.01 0.38 M97.72 74.35 C117.39 52.01, 136.18 30.81, 162.01 0.38 M103.36 73.95 C123.24 53.41, 141 32.44, 167 0.74 M103.36 73.95 C117.65 55.19, 133.44 38.96, 167 0.74 M108.35 74.31 C133.05 49.71, 154.56 19.71, 172.64 0.35 M108.35 74.31 C129.39 50.73, 150.32 27.22, 172.64 0.35 M113.99 73.92 C131.76 53.26, 145.66 35.46, 177.63 0.71 M113.99 73.92 C127.56 56.57, 141.13 41.68, 177.63 0.71 M118.98 74.28 C144.18 47.53, 170.99 15.44, 183.27 0.32 M118.98 74.28 C136.64 53.5, 153.38 34.06, 183.27 0.32 M124.62 73.88 C146.71 51.78, 165.47 27, 188.26 0.68 M124.62 73.88 C147.95 44.76, 173.04 16.13, 188.26 0.68 M129.61 74.24 C149.76 46.47, 173.23 22.15, 193.9 0.28 M129.61 74.24 C143.3 58.23, 158.67 41.78, 193.9 0.28 M135.25 73.85 C152.82 49.91, 173.23 28, 198.89 0.64 M135.25 73.85 C147.85 58.55, 160.88 42.37, 198.89 0.64 M140.24 74.21 C158.86 54.72, 175.07 33.65, 204.53 0.25 M140.24 74.21 C161.6 49.19, 182.75 23.65, 204.53 0.25 M145.88 73.81 C160.88 56.18, 179.49 37.22, 209.52 0.61 M145.88 73.81 C163.1 54.6, 178.42 36.32, 209.52 0.61 M150.87 74.17 C168.75 52.99, 187.89 33.69, 215.16 0.21 M150.87 74.17 C175.01 45.03, 200.95 17.36, 215.16 0.21 M156.51 73.78 C171.05 53.96, 187.04 37.26, 219.49 1.33 M156.51 73.78 C173.35 55.73, 188.91 36.61, 219.49 1.33 M161.5 74.14 C175.26 54.74, 193.06 38.17, 224.48 1.69 M161.5 74.14 C173.23 59.06, 185.75 46.04, 224.48 1.69 M167.14 73.74 C191.26 46.19, 213.34 23.25, 228.81 2.8 M167.14 73.74 C183.63 54.53, 201.46 33.98, 228.81 2.8 M172.13 74.1 C191.77 54.91, 207.9 31.05, 232.49 4.67 M172.13 74.1 C184.77 59.52, 198.45 43.55, 232.49 4.67 M177.77 73.71 C196.26 53.34, 211.94 34.36, 234.19 8.8 M177.77 73.71 C194.74 53.41, 210.76 35.95, 234.19 8.8 M182.76 74.07 C202.86 51.65, 219.47 31.79, 235.9 12.94 M182.76 74.07 C198.83 54.36, 216.02 36.22, 235.9 12.94 M188.4 73.68 C205.4 53.87, 226.23 28.5, 238.92 15.56 M188.4 73.68 C201.11 59.15, 212.8 44.94, 238.92 15.56 M193.39 74.04 C213.1 54.32, 230.7 33.8, 238.66 21.96 M193.39 74.04 C203.35 63.15, 212.4 52.48, 238.66 21.96 M199.03 73.64 C212.87 59.34, 225.07 43.45, 239.05 27.6 M199.03 73.64 C212.93 56.47, 226.7 39.78, 239.05 27.6 M204.02 74 C214.92 58.62, 229.71 48.11, 238.79 34 M204.02 74 C212.63 63.49, 220.31 53.66, 238.79 34 M209.01 74.36 C218.98 64.81, 227 53.07, 238.53 40.4 M209.01 74.36 C217.26 65.69, 225.62 55.89, 238.53 40.4 M214.65 73.97 C220.85 68.72, 227.12 62.62, 238.92 46.04 M214.65 73.97 C219.69 68.33, 225.64 61.96, 238.92 46.04 M219.64 74.33 C222.71 70.84, 228.13 63.46, 238.66 52.44 M219.64 74.33 C224.51 68.82, 230.81 63.24, 238.66 52.44 M225.94 73.18 C231.74 67.9, 238 59.84, 239.71 57.33 M225.94 73.18 C230.78 66.74, 236.73 62.36, 239.71 57.33" stroke="#ffec99" stroke-width="0.5" fill="none"></path><path d="M18.5 0 M18.5 0 C87.61 -0.98, 155.23 -0.89, 218.5 0 M18.5 0 C66.53 0.96, 116.57 0.67, 218.5 0 M218.5 0 C230.62 0.42, 235.94 8.06, 237 18.5 M218.5 0 C232.11 -1.64, 235.9 6.45, 237 18.5 M237 18.5 C236.31 30.46, 238.25 41.68, 237 55.5 M237 18.5 C236.41 26.61, 237.02 37.01, 237 55.5 M237 55.5 C237.43 67.79, 229.08 72.89, 218.5 74 M237 55.5 C238.19 67.46, 230.97 72.22, 218.5 74 M218.5 74 C176.28 74.61, 134.61 74.79, 18.5 74 M218.5 74 C148.8 74.32, 77.35 75.4, 18.5 74 M18.5 74 C6.05 75.52, 1.81 68.41, 0 55.5 M18.5 74 C7.33 71.82, -0.25 65.76, 0 55.5 M0 55.5 C0.76 43.26, 1.27 31.53, 0 18.5 M0 55.5 C-0.64 40.25, -0.04 26, 0 18.5 M0 18.5 C1.78 8.1, 6.04 -1.38, 18.5 0 M0 18.5 C-2.27 4.1, 8.33 -1.86, 18.5 0" stroke="#1e1e1e" stroke-width="1" fill="none"></path></g><g transform="translate(623.6220474243164 446.5) rotate(0 84.3779525756836 17.5)"><text x="84.3779525756836" y="0" font-family="Virgil, Segoe UI Emoji" font-size="28px" fill="#1e1e1e" text-anchor="middle" style="white-space: pre;" direction="ltr" dominant-baseline="text-before-edge">Http-palvelin</text></g><g stroke-linecap="round" transform="translate(550 395) rotate(0 162 121.5)"><path d="M32 0 M32 0 C94.9 -2.07, 158.31 -3, 292 0 M292 0 C311.77 -0.56, 324.61 8.72, 324 32 M324 32 C325.24 95.54, 324.75 156.2, 324 211 M324 211 C322.82 232.22, 312.74 243.84, 292 243 M292 243 C204.32 242.02, 115.48 244.03, 32 243 M32 243 C12.05 242.26, -0.8 232.28, 0 211 M0 211 C1.01 159.21, 0.24 103.68, 0 32 M0 32 C0.36 11.71, 12.26 1.45, 32 0" stroke="#1e1e1e" stroke-width="1.5" fill="none" stroke-dasharray="8 9"></path></g><g stroke-linecap="round" transform="translate(591.5 536) rotate(0 118.5 37)"><path d="M4.92 4.28 C4.92 4.28, 4.92 4.28, 4.92 4.28 M4.92 4.28 C4.92 4.28, 4.92 4.28, 4.92 4.28 M0.73 15.21 C5.29 13.24, 7.29 7.3, 11.88 2.38 M0.73 15.21 C5.15 11.1, 8.44 6.46, 11.88 2.38 M1.12 20.85 C7.04 17.09, 11.02 11.58, 18.83 0.47 M1.12 20.85 C6.82 14.59, 10.23 9.51, 18.83 0.47 M0.86 27.25 C7.98 17.87, 20.44 5.68, 24.48 0.08 M0.86 27.25 C5.36 21.36, 10.85 15.75, 24.48 0.08 M1.25 32.89 C11.48 22.07, 20.33 7.56, 29.46 0.44 M1.25 32.89 C10.15 23.52, 16.08 14.4, 29.46 0.44 M0.99 39.29 C10.49 26.39, 24.49 15.37, 35.11 0.04 M0.99 39.29 C9.55 31.01, 15.76 21.91, 35.11 0.04 M0.73 45.69 C8.19 36.81, 19.38 24.9, 40.09 0.4 M0.73 45.69 C11.91 31.27, 22.8 18.32, 40.09 0.4 M1.13 51.33 C11.25 38.13, 18.43 27.98, 45.74 0.01 M1.13 51.33 C16.94 33.45, 32.06 17.41, 45.74 0.01 M0.86 57.73 C17.6 37.83, 31.32 20.55, 50.72 0.37 M0.86 57.73 C13.93 43.7, 25.25 30.05, 50.72 0.37 M2.57 61.86 C12.15 50.18, 25.2 35.96, 55.71 0.73 M2.57 61.86 C17.78 44.69, 31.98 27.4, 55.71 0.73 M2.97 67.5 C17.52 48.76, 34.47 33.62, 61.36 0.33 M2.97 67.5 C21.96 46.94, 40.05 24.56, 61.36 0.33 M6.64 69.37 C26.21 47.13, 44.66 26.17, 66.34 0.69 M6.64 69.37 C28.85 41.5, 52.31 15.31, 66.34 0.69 M9.66 72 C34.99 43.43, 56.42 16.27, 71.99 0.3 M9.66 72 C26.43 52.97, 44.35 32.64, 71.99 0.3 M12.68 74.62 C38.52 46.23, 58.72 21.92, 76.97 0.66 M12.68 74.62 C28.76 55.13, 44.75 36.36, 76.97 0.66 M18.32 74.23 C41.84 48.79, 63.42 21.34, 82.62 0.27 M18.32 74.23 C39.52 48.34, 62.35 23.75, 82.62 0.27 M23.96 73.83 C38.8 58.89, 54.44 40.42, 87.6 0.63 M23.96 73.83 C39.77 56.48, 54.8 40.14, 87.6 0.63 M28.95 74.19 C44.19 59.58, 56.52 42.16, 93.25 0.23 M28.95 74.19 C48.5 52.64, 66.14 30.14, 93.25 0.23 M34.59 73.8 C58.63 46.29, 83.33 15.3, 98.23 0.59 M34.59 73.8 C56.18 48.75, 76.77 24.81, 98.23 0.59 M39.58 74.16 C54.97 51.36, 76.56 32.44, 103.88 0.2 M39.58 74.16 C54.08 59.22, 66.77 43.24, 103.88 0.2 M45.22 73.76 C59.18 60.45, 72.13 44.93, 108.86 0.56 M45.22 73.76 C69.46 47.08, 93.25 19.47, 108.86 0.56 M50.21 74.12 C64.16 58, 79.88 40.33, 114.51 0.16 M50.21 74.12 C67.66 52.17, 85.91 30.23, 114.51 0.16 M55.85 73.73 C68.72 55.33, 83.44 40.99, 119.49 0.52 M55.85 73.73 C81.05 46.1, 103.64 17.76, 119.49 0.52 M60.84 74.09 C79.32 55.03, 96.76 34.08, 125.14 0.13 M60.84 74.09 C76.81 57.72, 91.22 41.29, 125.14 0.13 M66.48 73.69 C86.24 53.9, 103.87 34.17, 130.12 0.49 M66.48 73.69 C90.85 45.24, 115.83 17.95, 130.12 0.49 M71.47 74.05 C94.61 45.37, 120.99 19.01, 135.77 0.09 M71.47 74.05 C89.14 53.89, 106.57 35.24, 135.77 0.09 M77.11 73.66 C99.65 45.94, 125.9 18.87, 140.75 0.45 M77.11 73.66 C93.19 55.58, 107.4 38.5, 140.75 0.45 M82.1 74.02 C108.7 47.29, 132.65 18.6, 146.4 0.06 M82.1 74.02 C103.76 47.95, 126.06 24.17, 146.4 0.06 M87.09 74.38 C99.89 60.28, 115.84 41.11, 151.38 0.42 M87.09 74.38 C103.84 55.77, 118.98 37.77, 151.38 0.42 M92.73 73.99 C114.04 47.54, 136.26 20.92, 157.03 0.02 M92.73 73.99 C112.24 49.85, 131.8 28.12, 157.03 0.02 M97.72 74.35 C114.15 54.66, 135.05 33.16, 162.01 0.38 M97.72 74.35 C116.32 52.84, 135 32.22, 162.01 0.38 M103.36 73.95 C116.92 60.4, 131.82 44.54, 167 0.74 M103.36 73.95 C125.46 48.84, 148.29 22.33, 167 0.74 M108.35 74.31 C131.16 51.28, 151.96 25.49, 172.64 0.35 M108.35 74.31 C125.08 55.89, 143.24 35.74, 172.64 0.35 M113.99 73.92 C131.3 55.95, 142.86 40.69, 177.63 0.71 M113.99 73.92 C134.7 48.17, 157.84 23.27, 177.63 0.71 M118.98 74.28 C138.54 47.54, 162.76 24.66, 183.27 0.32 M118.98 74.28 C137.56 52.19, 157.19 31.66, 183.27 0.32 M124.62 73.88 C139.46 57.81, 156.96 38.95, 188.26 0.68 M124.62 73.88 C143.65 52.91, 162.92 30.48, 188.26 0.68 M129.61 74.24 C147.09 52.83, 166.99 28.69, 193.9 0.28 M129.61 74.24 C148.9 52.08, 169.15 29, 193.9 0.28 M135.25 73.85 C149.16 56.48, 161.95 39.73, 198.89 0.64 M135.25 73.85 C157.06 49.94, 177.63 25.58, 198.89 0.64 M140.24 74.21 C157.27 52.5, 174.08 35.08, 204.53 0.25 M140.24 74.21 C158.86 54.15, 176.06 32.87, 204.53 0.25 M145.88 73.81 C160.42 57.65, 172.46 42.77, 209.52 0.61 M145.88 73.81 C163.32 52.04, 182.61 29.9, 209.52 0.61 M150.87 74.17 C171.19 49.09, 195.33 21.89, 215.16 0.21 M150.87 74.17 C174.12 47.01, 198.65 19.46, 215.16 0.21 M156.51 73.78 C175.06 53.4, 190.6 37.17, 219.49 1.33 M156.51 73.78 C176.08 51.23, 196.64 28.19, 219.49 1.33 M161.5 74.14 C175.11 61.56, 188.37 45, 224.48 1.69 M161.5 74.14 C182.8 48.96, 204.89 22.61, 224.48 1.69 M167.14 73.74 C186.1 50.83, 207.53 25.84, 228.81 2.8 M167.14 73.74 C184.52 53.47, 201.24 34.6, 228.81 2.8 M172.13 74.1 C183.31 58.98, 197.89 45.24, 232.49 4.67 M172.13 74.1 C186.79 58.12, 202.33 39.99, 232.49 4.67 M177.77 73.71 C192.34 56.91, 209.49 38.96, 234.19 8.8 M177.77 73.71 C196.62 49.72, 218.13 26.02, 234.19 8.8 M182.76 74.07 C201.61 51.7, 220.35 28.35, 235.9 12.94 M182.76 74.07 C195.77 58.76, 209.4 44.44, 235.9 12.94 M188.4 73.68 C208.22 52.19, 225.91 33.52, 238.92 15.56 M188.4 73.68 C201.32 59.15, 212.76 44.86, 238.92 15.56 M193.39 74.04 C205.4 59.64, 219.54 46.29, 238.66 21.96 M193.39 74.04 C210.74 52.93, 228.62 31.72, 238.66 21.96 M199.03 73.64 C210.32 58.21, 226.21 41.82, 239.05 27.6 M199.03 73.64 C214.64 55.78, 229.01 39.48, 239.05 27.6 M204.02 74 C214.75 57.77, 227.61 44.15, 238.79 34 M204.02 74 C216.39 61.19, 227.48 47.47, 238.79 34 M209.01 74.36 C217.1 67.03, 225.72 55.44, 238.53 40.4 M209.01 74.36 C217.74 65.25, 225.21 56.53, 238.53 40.4 M214.65 73.97 C222.61 64.04, 232.68 56.15, 238.92 46.04 M214.65 73.97 C222.16 64.02, 232.11 54.67, 238.92 46.04 M219.64 74.33 C224.18 70.17, 228.44 66.78, 238.66 52.44 M219.64 74.33 C225.75 67.16, 232.24 58.71, 238.66 52.44 M225.94 73.18 C230.94 67.64, 236.08 64.84, 239.71 57.33 M225.94 73.18 C229.63 69.57, 232.88 64.47, 239.71 57.33" stroke="#ffc9c9" stroke-width="0.5" fill="none"></path><path d="M18.5 0 M18.5 0 C81.14 0.89, 142.58 2.88, 218.5 0 M18.5 0 C60.53 -0.55, 103.17 -1.52, 218.5 0 M218.5 0 C230.2 1.85, 235.79 6.87, 237 18.5 M218.5 0 C229.58 1.96, 236.16 4.64, 237 18.5 M237 18.5 C235.28 28.43, 237.7 39.63, 237 55.5 M237 18.5 C237.17 31.82, 236.68 46.84, 237 55.5 M237 55.5 C235.2 67.73, 230.08 72.56, 218.5 74 M237 55.5 C237.07 67.47, 232.15 74.19, 218.5 74 M218.5 74 C154.13 71.91, 92.6 72.43, 18.5 74 M218.5 74 C156.03 74.21, 93.92 75.16, 18.5 74 M18.5 74 C7.17 75.61, -0.67 66.82, 0 55.5 M18.5 74 C5.37 72.82, 0.07 70.08, 0 55.5 M0 55.5 C0.2 44.83, -0.47 37.53, 0 18.5 M0 55.5 C-0.36 42.44, 0.71 30.23, 0 18.5 M0 18.5 C-0.57 7.28, 5.29 -0.8, 18.5 0 M0 18.5 C-1.08 6.23, 4.55 -0.12, 18.5 0" stroke="#1e1e1e" stroke-width="1" fill="none"></path></g><g transform="translate(632.4120407104492 555.5) rotate(0 77.58795928955078 17.5)"><text x="77.58795928955078" y="0" font-family="Virgil, Segoe UI Emoji" font-size="28px" fill="#1e1e1e" text-anchor="middle" style="white-space: pre;" direction="ltr" dominant-baseline="text-before-edge">Tietokanta</text></g><g transform="translate(559.0520248413086 357.5) rotate(0 50.53997802734375 17.5)"><text x="0" y="0" font-family="Virgil, Segoe UI Emoji" font-size="28px" fill="#1e1e1e" text-anchor="start" style="white-space: pre;" direction="ltr" dominant-baseline="text-before-edge">Palvelin</text></g><g stroke-linecap="round"><g transform="translate(173 267) rotate(0 -2.5985156886279697 74.99409857338759)"><path d="M0.83 -0.5 C-0.28 24.78, -5.01 126.53, -6.02 151.8 M-0.2 -1.81 C-1 23.13, -2.85 124.38, -3.85 150.1" stroke="#1e1e1e" stroke-width="1" fill="none"></path></g><g transform="translate(173 267) rotate(0 -2.5985156886279697 74.99409857338759)"><path d="M8.96 26.42 C7.97 17.69, 3.72 9.46, 2.05 -1.48 M10.66 28.88 C6.62 19.41, 2.65 9.58, -0.17 -0.7" stroke="#1e1e1e" stroke-width="1" fill="none"></path></g><g transform="translate(173 267) rotate(0 -2.5985156886279697 74.99409857338759)"><path d="M-11.54 25.49 C-5.33 16.94, -2.38 9.04, 2.05 -1.48 M-9.84 27.95 C-6.93 18.59, -3.95 9.09, -0.17 -0.7" stroke="#1e1e1e" stroke-width="1" fill="none"></path></g><g transform="translate(173 267) rotate(0 -2.5985156886279697 74.99409857338759)"><path d="M-14.18 119.93 C-8.65 131.13, -6.41 142.95, -2.62 149.12 M-12.48 122.4 C-9.87 132.09, -7.58 141.61, -4.84 149.91" stroke="#1e1e1e" stroke-width="1" fill="none"></path></g><g transform="translate(173 267) rotate(0 -2.5985156886279697 74.99409857338759)"><path d="M6.34 120.49 C4.66 131.63, -0.31 143.26, -2.62 149.12 M8.03 122.96 C3.69 132.66, -0.97 141.99, -4.84 149.91" stroke="#1e1e1e" stroke-width="1" fill="none"></path></g></g><mask></mask><g stroke-linecap="round"><g transform="translate(704 269) rotate(0 0.15724548986781883 72.50303601474502)"><path d="M0.86 0.32 C0.9 24.38, 0.24 120.13, -0.08 144.02 M-0.14 -0.56 C-0.15 23.74, -0.26 121.34, -0.55 145.56" stroke="#1e1e1e" stroke-width="1" fill="none"></path></g><g transform="translate(704 269) rotate(0 0.15724548986781883 72.50303601474502)"><path d="M11.5 30.1 C8.31 20.79, 4.96 11.81, 1.94 1.62 M10.94 29.43 C8.71 21.57, 6.32 14.51, 1.35 1.08" stroke="#1e1e1e" stroke-width="1" fill="none"></path></g><g transform="translate(704 269) rotate(0 0.15724548986781883 72.50303601474502)"><path d="M-9.02 29.98 C-6.6 20.56, -4.34 11.61, 1.94 1.62 M-9.58 29.31 C-6.97 21.47, -4.54 14.44, 1.35 1.08" stroke="#1e1e1e" stroke-width="1" fill="none"></path></g><g transform="translate(704 269) rotate(0 0.15724548986781883 72.50303601474502)"><path d="M-10.11 118.84 C-7.94 124.83, -5.77 131.3, 0.53 146.86 M-10.68 118.17 C-8.07 123.61, -5.71 129.86, -0.06 146.32" stroke="#1e1e1e" stroke-width="1" fill="none"></path></g><g transform="translate(704 269) rotate(0 0.15724548986781883 72.50303601474502)"><path d="M10.41 118.96 C6.97 125.06, 3.53 131.5, 0.53 146.86 M9.84 118.29 C7.61 123.71, 5.14 129.94, -0.06 146.32" stroke="#1e1e1e" stroke-width="1" fill="none"></path></g></g><mask></mask><g transform="translate(564.0520248413086 114.5) rotate(0 52.947975158691406 17.5)"><text x="0" y="0" font-family="Virgil, Segoe UI Emoji" font-size="28px" fill="#1e1e1e" text-anchor="start" style="white-space: pre;" direction="ltr" dominant-baseline="text-before-edge">Asiakas</text></g><g transform="translate(97 10) rotate(0 74.05197143554688 22.5)"><text x="0" y="0" font-family="Virgil, Segoe UI Emoji" font-size="36px" fill="#1e1e1e" text-anchor="start" style="white-space: pre;" direction="ltr" dominant-baseline="text-before-edge">2-kerros</text></g><g transform="translate(627.9480285644531 15.5) rotate(0 73.49397277832031 22.5)"><text x="0" y="0" font-family="Virgil, Segoe UI Emoji" font-size="36px" fill="#1e1e1e" text-anchor="start" style="white-space: pre;" direction="ltr" dominant-baseline="text-before-edge">3-kerros</text></g></svg>